<svg width="143" height="143" viewBox="0 0 143 143" fill="none" xmlns="http://www.w3.org/2000/svg">
<path d="M119.976 34.178L119.946 34.6181L120.379 34.703C130.168 36.6223 138.446 43.4518 141.047 53.159C143.648 62.8665 139.902 72.9242 132.376 79.4759L132.043 79.7659L132.29 80.1323C137.861 88.406 138.877 99.0941 133.854 107.794L133.854 107.794C128.833 116.5 119.073 120.956 109.116 120.27L108.676 120.24L108.591 120.673C106.672 130.462 99.8422 138.74 90.135 141.341C80.4275 143.942 70.3698 140.196 63.8181 132.67L63.5281 132.337L63.1617 132.584C54.888 138.155 44.1999 139.171 35.4998 134.148L35.4996 134.148C26.7936 129.127 22.3375 119.367 23.0235 109.41L23.0539 108.97L22.6209 108.885C12.8319 106.966 4.55437 100.136 1.95334 90.429C-0.647695 80.7218 3.10605 70.6684 10.624 64.1118L10.9565 63.8218L10.7101 63.4557C5.13921 55.182 4.12275 44.4939 9.14578 35.7938L9.1459 35.7936C14.1672 27.0876 23.9267 22.6315 33.884 23.3175L34.3241 23.3478L34.409 22.9149C36.3283 13.1259 43.1578 4.84836 52.865 2.24733C62.5722 -0.353706 72.6255 3.40004 79.1822 10.918L79.4722 11.2505L79.8383 11.0041C88.112 5.4332 98.8001 4.41674 107.5 9.43977L107.5 9.43988C116.206 14.4611 120.662 24.2207 119.976 34.178Z" fill="#FF90E7" stroke="black"/>
</svg>
