<svg width="114" height="122" viewBox="0 0 114 122" fill="none" xmlns="http://www.w3.org/2000/svg">
<path d="M50.228 121.074C47.5883 120.927 45.2419 120.047 43.3354 118.141C42.1622 116.967 41.0623 115.648 40.1091 114.181C36.8094 109.122 33.3631 104.209 29.1836 99.8092C29.1103 99.7359 29.1103 99.7359 29.0369 99.6626C21.3378 89.9103 13.3453 80.378 6.23269 70.1857C3.73962 66.5928 2.05314 62.7065 0.586626 58.527C-0.366607 55.7406 -0.0733044 53.0275 1.61318 50.6078C2.63974 49.1413 3.88628 47.7481 5.27946 46.6482C14.8851 38.949 23.7575 30.4433 32.8499 22.0842C39.0825 16.4381 45.4619 11.012 51.8412 5.58591C53.381 4.26605 55.0675 3.01951 56.8273 1.99295C61.6668 -0.940068 66.5063 -0.646766 70.8325 2.94619C72.739 4.48602 74.4255 6.31916 75.892 8.29895C81.758 15.9981 87.0375 24.0639 91.9503 32.4231C94.8833 37.4092 97.963 42.3953 101.043 47.2348C104.416 52.5143 107.495 58.0137 110.135 63.6597C111.308 66.1528 112.335 68.7192 112.848 71.4323C113.435 74.5853 112.848 77.5183 110.868 80.0847C109.548 81.6978 108.082 83.311 106.469 84.5575C102.582 87.6372 98.4762 90.4969 94.4433 93.5032C89.8971 96.8029 85.2776 100.029 80.8048 103.402C74.2055 108.462 67.1662 112.935 60.127 117.407C58.1472 118.654 55.9474 119.46 53.7476 120.34C52.7211 120.78 51.4012 120.854 50.228 121.074Z" fill="#3E89FF"/>
<mask id="mask0_14_3" style="mask-type:alpha" maskUnits="userSpaceOnUse" x="0" y="0" width="114" height="122">
<path d="M50.228 121.074C47.5883 120.927 45.2419 120.047 43.3354 118.141C42.1622 116.967 41.0623 115.648 40.1091 114.181C36.8094 109.122 33.3631 104.209 29.1836 99.8092C29.1103 99.7359 29.1103 99.7359 29.0369 99.6626C21.3378 89.9103 13.3453 80.378 6.23269 70.1857C3.73962 66.5928 2.05314 62.7065 0.586626 58.527C-0.366607 55.7406 -0.0733044 53.0275 1.61318 50.6078C2.63974 49.1413 3.88628 47.7481 5.27946 46.6482C14.8851 38.949 23.7575 30.4433 32.8499 22.0842C39.0825 16.4381 45.4619 11.012 51.8412 5.58591C53.381 4.26605 55.0675 3.01951 56.8273 1.99295C61.6668 -0.940068 66.5063 -0.646766 70.8325 2.94619C72.739 4.48602 74.4255 6.31916 75.892 8.29895C81.758 15.9981 87.0375 24.0639 91.9503 32.4231C94.8833 37.4092 97.963 42.3953 101.043 47.2348C104.416 52.5143 107.495 58.0137 110.135 63.6597C111.308 66.1528 112.335 68.7192 112.848 71.4323C113.435 74.5853 112.848 77.5183 110.868 80.0847C109.548 81.6978 108.082 83.311 106.469 84.5575C102.582 87.6372 98.4762 90.4969 94.4433 93.5032C89.8971 96.8029 85.2776 100.029 80.8048 103.402C74.2055 108.462 67.1662 112.935 60.127 117.407C58.1472 118.654 55.9474 119.46 53.7476 120.34C52.7211 120.78 51.4012 120.854 50.228 121.074Z" fill="#3E89FF"/>
</mask>
<g mask="url(#mask0_14_3)">
<path d="M119.741 125.913C118.787 125.62 118.054 124.887 117.394 124.08C116.074 122.467 115.268 120.56 114.608 118.654C112.995 113.888 112.115 108.902 111.528 103.916C111.088 100.029 110.795 96.0698 110.355 92.1835C110.355 91.8902 110.282 91.6702 110.135 91.0103C109.548 91.8902 109.255 92.4035 108.888 92.9168C104.709 99.4427 100.163 105.675 94.5167 111.101C92.4635 113.081 90.1904 114.914 87.844 116.528C86.4508 117.481 84.7644 118.214 83.0779 118.654C79.3383 119.681 76.1853 118.141 74.4988 114.694C73.3256 112.348 72.8856 109.782 72.8856 107.215C72.8856 104.209 73.1056 101.276 73.2523 98.2695C73.2523 97.9029 73.3256 97.5363 73.3989 96.7297C72.8123 97.4629 72.4457 97.9029 72.079 98.3428C69.0727 102.376 65.8464 106.262 62.2534 109.782C59.8337 112.128 57.3406 114.328 54.4076 116.014C52.7211 117.041 50.9613 117.774 49.0548 118.141C45.8285 118.654 43.1154 117.334 41.6489 114.401C40.6224 112.348 40.2558 110.075 40.1091 107.802C39.7425 102.082 40.4757 96.4364 41.2823 90.7903C41.5756 88.9572 41.8689 87.124 41.9422 85.1442C41.5756 85.6575 41.209 86.1708 40.9157 86.6841C37.5427 92.1102 34.0964 97.3163 29.8435 102.082C28.0104 104.136 26.0306 106.042 23.9042 107.802C22.6576 108.828 21.1178 109.635 19.6513 110.148C16.4983 111.248 13.7119 110.222 11.8788 107.435C10.7056 105.675 10.1923 103.696 9.82565 101.716C9.0924 97.3163 9.01907 92.9168 9.45902 88.5906C9.89898 83.6044 10.5589 78.545 11.0722 73.5588C11.1455 72.9722 11.2188 72.3856 10.9989 71.6524C10.6322 72.0923 10.2656 72.5323 9.89898 73.0455C6.08605 78.2516 1.90649 83.1645 -3.00632 87.4173C-4.83946 88.9572 -6.81925 90.3504 -8.79904 91.6702C-9.38564 92.0368 -10.1189 92.5501 -10.9255 91.6702C-10.7055 91.3769 -10.5588 91.0836 -10.2655 90.937C-6.9659 88.8105 -4.1062 86.0242 -1.39316 83.2378C3.44633 78.2516 7.69921 72.8256 11.5121 67.0328C12.0254 66.2263 12.392 65.273 12.612 64.3198C15.765 48.4815 19.9446 32.9365 26.3239 18.0514C28.2304 13.6518 30.2835 9.39895 32.9965 5.5127C34.0964 3.89954 35.3429 2.43303 36.6628 1.03984C37.4694 0.0132823 38.5693 -0.793299 39.8158 -0.206695C41.1357 0.453235 41.209 1.84642 40.989 3.01963C40.3291 6.39261 39.7425 9.83891 38.7159 13.1386C33.3632 31.1033 25.7373 48.0415 15.8383 63.9532C14.8118 65.5663 14.1519 67.2528 13.8586 69.1593C12.6853 76.1252 11.5855 83.1645 11.2922 90.277C11.1455 94.1633 11.0722 98.0495 11.9521 101.862C12.2454 103.109 12.6853 104.356 13.272 105.455C14.6651 108.095 16.9382 108.975 19.5779 107.582C21.1178 106.849 22.6576 105.822 23.9042 104.576C26.4706 102.009 28.8903 99.2961 31.1634 96.4364C36.0762 90.1304 40.1091 83.2378 43.8487 76.1985C44.142 75.6119 44.4353 74.8787 44.582 74.2187C47.735 60.3602 52.1345 46.795 56.3874 33.2298C59.5404 23.2575 62.7667 13.2119 66.7996 3.53291C67.6062 1.55312 68.5594 -0.426672 69.586 -2.33314C69.8793 -2.91974 70.3192 -3.50634 70.9058 -3.9463C71.7857 -4.67955 72.9589 -4.31293 73.1789 -3.13972C73.3256 -2.33314 73.3256 -1.52655 73.3256 -0.719973C72.9589 4.33949 71.7124 9.2523 70.5392 14.1651C65.4064 35.9428 57.1206 56.6206 46.7817 76.4185C46.1218 77.665 45.6085 78.9849 45.3885 80.3781C44.2887 86.1708 43.2621 91.8902 42.3822 97.6829C41.8689 101.276 41.6489 104.942 42.1622 108.535C42.3822 109.928 42.6755 111.321 43.1888 112.641C44.2887 115.428 46.4151 116.454 49.2748 115.721C50.7413 115.354 52.2078 114.694 53.4544 113.888C55.5808 112.421 57.6339 110.882 59.5404 109.195C65.1131 104.136 69.6593 98.2695 73.8389 92.1102C74.2055 91.5969 74.4255 90.937 74.5721 90.3504C78.0917 72.3123 83.2245 54.7141 89.2372 37.336C92.4635 27.9503 95.9098 18.7113 99.9427 9.61893C100.749 7.85912 101.629 6.0993 102.582 4.41282C103.096 3.45958 103.756 2.50635 105.076 2.87298C106.395 3.23961 106.469 4.41282 106.395 5.43937C106.175 8.73902 106.029 12.0387 105.515 15.265C102.216 37.116 95.4699 57.8671 85.2043 77.4451C82.8579 81.9913 80.0715 86.2441 77.5785 90.717C77.2118 91.4502 76.7719 92.1835 76.6252 92.9168C75.8186 97.6829 75.0854 102.449 75.452 107.289C75.5987 109.048 75.892 110.882 76.4786 112.641C77.6518 116.014 80.0715 117.114 83.4445 115.868C84.911 115.354 86.3775 114.621 87.6241 113.668C89.9705 111.835 92.2436 109.928 94.37 107.802C100.383 101.643 105.296 94.6766 109.622 87.1974C110.062 86.3908 110.208 85.5842 110.208 84.7043C110.135 75.4653 112.188 66.6662 115.561 58.1604C116.294 56.4006 117.248 54.6408 118.274 53.0277C118.787 52.1478 119.594 51.4145 120.474 50.8279C121.94 49.8747 123.554 50.4613 123.92 52.1478C124.214 53.5409 124.287 55.0808 124.14 56.474C123.774 60.4335 122.674 64.3198 121.354 68.0594C119.227 74.3654 116.368 80.3048 113.215 86.1708C112.848 86.8307 112.481 87.7106 112.481 88.4439C112.848 98.5628 113.508 108.608 116.001 118.434C116.294 119.754 116.734 121.074 117.321 122.247C117.834 123.42 118.787 124.593 119.741 125.913ZM104.049 6.3926C98.0363 15.1183 78.0184 76.4185 78.2384 84.631C83.0045 78.3983 92.5369 56.474 97.1564 40.9289C100.529 29.6368 103.022 18.198 104.049 6.3926ZM39.3758 1.77309C39.2292 1.69977 39.0092 1.62644 38.8626 1.55312C38.4226 1.99307 37.836 2.28637 37.4694 2.79965C36.3695 4.19284 35.1963 5.5127 34.3164 7.05254C32.5566 10.0589 30.8701 13.0652 29.4769 16.2182C24.2708 27.5837 20.5312 39.6091 17.5248 51.8545C16.8649 54.4208 16.3516 56.9139 15.765 59.4803C15.8383 59.5536 15.985 59.5536 16.0583 59.627C16.425 59.0404 16.7916 58.4538 17.1582 57.8671C23.9042 46.355 29.4769 34.3296 34.0231 21.791C36.0762 16.1449 38.056 10.5722 39.0825 4.63279C39.3025 3.75288 39.3025 2.72633 39.3758 1.77309ZM49.1281 65.713C50.1547 63.5865 51.1079 61.4601 52.1345 59.407C60.2736 41.8088 66.5063 23.5508 70.4659 4.55947C70.8325 2.9463 71.0525 1.33314 71.3458 -0.28002C67.8262 3.89954 51.2546 53.3943 49.1281 65.713ZM121.794 52.9543C117.834 55.0808 112.481 73.7055 112.701 80.5247C112.848 80.3781 112.995 80.3048 113.068 80.1581C116.588 73.0455 119.521 65.7863 121.134 58.0138C121.5 56.4006 121.574 54.8608 121.794 52.9543Z" fill="black"/>
</g>
</svg>
