<svg width="196" height="33" viewBox="0 0 196 33" fill="none" xmlns="http://www.w3.org/2000/svg">
<g clip-path="url(#clip0_4_13899)">
<path fill-rule="evenodd" clip-rule="evenodd" d="M52.3766 0.124756L35.6638 32.9473H19.9659L26.9602 19.3442H26.6464C20.8762 26.8693 12.2669 31.8232 0 32.9473V19.5326C0 19.5326 7.84742 19.0669 12.4607 14.1942H0V0.125015H14.0045V11.6967L14.3188 11.6955L20.0415 0.125015H30.6328V11.6234L30.9471 11.6229L36.8845 0.124756H52.3766Z" fill="#146EF5"/>
<path d="M143.512 29.3244H148.022V3.3158H143.512V29.3244Z" fill="#080808"/>
<path fill-rule="evenodd" clip-rule="evenodd" d="M118.648 29.0588C119.628 29.4682 120.625 29.6728 121.638 29.6728C123.312 29.6728 124.81 29.2635 126.132 28.4447C127.453 27.6259 128.478 26.4972 129.205 25.0588C129.932 23.6092 130.295 21.9661 130.295 20.1292C130.295 18.2924 129.921 16.6493 129.172 15.1997C128.423 13.7502 127.382 12.6271 126.049 11.8304C124.716 11.0227 123.202 10.6243 121.506 10.6354C120.426 10.6354 119.391 10.8456 118.4 11.2661C117.408 11.6866 116.582 12.2841 115.921 13.0586C115.87 13.1176 115.821 13.1772 115.773 13.2373V3.3324H111.246V29.3244H115.74L115.731 26.8963C115.847 27.0394 115.971 27.1792 116.103 27.316C116.819 28.0575 117.667 28.6383 118.648 29.0588ZM123.273 24.8596C122.536 25.3132 121.693 25.5402 120.746 25.5402C119.81 25.5402 118.95 25.3077 118.168 24.843C117.386 24.3671 116.764 23.7199 116.301 22.9011C115.85 22.0823 115.624 21.1528 115.624 20.1127C115.613 19.0725 115.833 18.1431 116.285 17.3242C116.748 16.4943 117.37 15.8526 118.152 15.3989C118.934 14.9342 119.798 14.7073 120.746 14.7184C121.693 14.7073 122.536 14.9286 123.273 15.3823C124.022 15.8249 124.595 16.4611 124.992 17.291C125.399 18.1099 125.603 19.0505 125.603 20.1127C125.603 21.1749 125.399 22.1154 124.992 22.9342C124.595 23.7531 124.022 24.3948 123.273 24.8596Z" fill="#080808"/>
<path d="M58.9109 4.89258H64.0655L68.6766 21.8101L73.5818 4.89258H77.8773L83.1973 21.4706L87.6249 4.89258H92.3499L85.378 29.3244H80.9337L75.5242 13.129L70.5584 29.3244H66.0645L58.9109 4.89258Z" fill="#080808"/>
<path fill-rule="evenodd" clip-rule="evenodd" d="M99.962 29.756C98.1666 29.7669 96.5476 29.3685 95.1046 28.5609C93.6729 27.7421 92.5439 26.6078 91.7178 25.1584C90.9028 23.7088 90.4952 22.0546 90.4952 20.1956C90.4952 18.3921 90.9139 16.7599 91.7509 15.2993C92.5879 13.8387 93.7225 12.699 95.1542 11.8802C96.5861 11.0614 98.1831 10.652 99.9455 10.652C101.928 10.652 103.663 11.0946 105.15 11.9798C106.648 12.865 107.766 14.1209 108.503 15.7475C109.252 17.363 109.522 19.2164 109.313 21.3076H95.1613C95.2008 22.1408 95.4077 22.8989 95.7821 23.5815C96.2006 24.3339 96.7844 24.9205 97.5332 25.3409C98.2822 25.7613 99.1194 25.9715 100.045 25.9715C100.749 25.9606 101.405 25.8388 102.011 25.6065C102.616 25.3631 103.128 25.0366 103.547 24.6273C103.977 24.2178 104.279 23.7531 104.456 23.2331H109.181C108.895 24.5055 108.322 25.6397 107.463 26.6356C106.603 27.6203 105.524 28.3893 104.224 28.9426C102.925 29.4958 101.504 29.7669 99.962 29.756ZM95.7986 16.7433C95.5346 17.2057 95.3518 17.7037 95.25 18.2371H104.631C104.563 17.5632 104.356 16.9491 104.01 16.3948C103.613 15.7419 103.073 15.2385 102.391 14.8844C101.708 14.5192 100.937 14.3367 100.078 14.3367C99.1635 14.3367 98.3319 14.5469 97.583 14.9674C96.834 15.3879 96.2391 15.9798 95.7986 16.7433Z" fill="#080808"/>
<path d="M133.616 11.0337C133.616 9.55098 133.952 8.23425 134.624 7.08348C135.296 5.92164 136.237 5.01983 137.449 4.37806C138.671 3.72521 140.098 3.38773 141.728 3.3656V7.39882C140.968 7.40989 140.318 7.57035 139.778 7.88016C139.25 8.17891 138.842 8.61599 138.556 9.19138C138.292 9.72109 138.15 10.3352 138.129 11.0337H141.629V14.8678H138.126V29.3244H133.616V14.8678H130.708V11.0337H133.616Z" fill="#080808"/>
<path fill-rule="evenodd" clip-rule="evenodd" d="M159.488 29.7228C157.649 29.7228 156.002 29.3188 154.548 28.5111C153.105 27.6923 151.971 26.5635 151.145 25.1252C150.33 23.6756 149.922 22.0325 149.922 20.1956C149.922 18.3478 150.33 16.6991 151.145 15.2495C151.971 13.7889 153.105 12.6548 154.548 11.847C156.002 11.0393 157.649 10.6354 159.488 10.6354C161.338 10.6354 162.991 11.0393 164.444 11.847C165.909 12.6548 167.049 13.7834 167.864 15.2329C168.679 16.6825 169.092 18.3367 169.103 20.1956C169.092 22.0325 168.679 23.6756 167.864 25.1252C167.06 26.5635 165.926 27.6923 164.461 28.5111C162.996 29.3188 161.338 29.7228 159.488 29.7228ZM159.488 25.5568C160.457 25.5568 161.316 25.3354 162.065 24.8927C162.814 24.4391 163.393 23.8083 163.8 23.0006C164.208 22.1818 164.411 21.2469 164.411 20.1956C164.411 19.1334 164.208 18.1929 163.8 17.374C163.393 16.5552 162.814 15.9245 162.065 15.4819C161.316 15.0282 160.457 14.8014 159.488 14.8014C158.53 14.8014 157.676 15.0282 156.927 15.4819C156.189 15.9245 155.616 16.5552 155.209 17.374C154.801 18.1929 154.603 19.1334 154.614 20.1956C154.614 21.2469 154.818 22.1818 155.225 23.0006C155.644 23.8083 156.217 24.4391 156.944 24.8927C157.682 25.3354 158.53 25.5568 159.488 25.5568Z" fill="#080808"/>
<path d="M173.977 11.0337H168.955L174.39 29.3244H178.785L182.36 17.6421L186.22 29.3244H190.548L196 11.0337H191.458L188.365 22.4184L184.948 11.0337H180.553L177.152 22.6693L173.977 11.0337Z" fill="#080808"/>
</g>
<defs>
<clipPath id="clip0_4_13899">
<rect width="196" height="33" fill="white"/>
</clipPath>
</defs>
</svg>
