<svg width="249" height="267" viewBox="0 0 249 267" fill="none" xmlns="http://www.w3.org/2000/svg">
<path d="M307.214 175.477C307.214 180.757 306.884 186.037 305.977 191.234C304.575 199.236 301.275 206.33 296.243 212.6C292.53 217.219 288.323 221.262 283.869 225.056C272.732 234.461 260.193 241.803 247.076 248.072C229.01 256.569 210.119 262.096 190.403 264.818C182.978 265.808 175.472 266.798 167.965 266.963C159.138 267.128 150.393 266.303 141.979 263.663C139.504 262.838 137.029 261.849 134.637 260.694C128.78 257.724 124.243 253.269 121.191 247.412C118.221 241.72 115.333 236.028 113.271 229.923C113.106 229.428 112.941 228.933 112.694 228.438C108.239 219.447 105.682 209.795 103.207 200.143C99.7421 186.779 95.205 173.745 90.8328 160.711C87.4505 150.647 84.2333 140.5 82.0884 130.106C80.686 123.094 79.6961 116.082 79.6136 108.905C79.5311 102.965 80.2736 97.0257 81.9234 91.3336C86.0481 76.8971 93.0601 64.0281 103.784 53.3864C108.156 49.0142 113.024 45.302 118.551 42.4972C121.273 41.0948 124.078 39.7749 126.883 38.455C136.782 33.8353 146.681 29.3806 156.498 24.6785C170.522 18.079 184.876 12.6344 199.89 8.83964C205.747 7.35475 211.769 6.6123 217.873 6.6123C226.37 6.6123 234.125 8.92213 241.137 13.7893C251.696 21.1312 260.77 29.9581 267.865 40.7648C273.639 49.5916 278.259 58.996 282.136 68.7302C291.046 91.3336 297.81 114.514 302.347 138.355C304.08 147.264 305.564 156.256 306.472 165.331C306.802 168.713 306.967 172.095 307.214 175.477Z" fill="white"/>
<path fill-rule="evenodd" clip-rule="evenodd" d="M182.55 39.3097C182.856 33.2715 186.983 30.1378 192.715 31.8193C195.084 32.5072 196.613 34.0359 197.301 36.4053C198.065 39.1569 197.836 41.9085 196.536 44.4308C195.161 47.0295 193.021 48.6346 189.964 48.5581C186.983 48.4817 184.92 46.7237 183.85 44.0486C183.351 42.9394 183.093 41.7498 182.843 40.5965L182.843 40.5961L182.843 40.5958C182.749 40.1598 182.655 39.729 182.55 39.3097ZM124.849 188.812C124.849 188.66 124.849 188.201 124.925 187.819C125.384 186.519 125.537 185.144 125.537 183.691C125.537 181.857 127.142 180.481 129.052 180.405C129.893 180.405 130.81 180.558 131.498 180.863C133.944 182.01 136.236 183.462 137.994 185.526C141.586 189.577 139.981 196.226 134.937 198.137C132.262 199.207 129.434 198.443 127.447 196.226C125.995 194.545 124.849 191.488 124.849 188.812ZM155.954 228.558C154.732 229.781 154.273 231.309 154.273 232.303C154.273 236.43 156.184 239.87 158.935 241.475C162.374 243.462 166.272 242.392 168.182 238.876C170.934 233.832 167.724 226.876 162.145 225.653C160.005 225.195 158.171 225.653 156.795 227.564C156.566 227.946 156.26 228.252 155.954 228.558ZM266.696 173.067C266.619 173.424 266.56 173.789 266.5 174.154C266.381 174.885 266.262 175.615 266.008 176.277C264.326 180.787 259.053 181.933 255.614 178.494C253.856 176.812 253.168 174.596 252.862 172.226C252.786 171.539 252.633 170.774 252.404 170.086C251.334 167.335 252.404 164.965 255.232 164.048C258.747 162.825 263.409 164.583 265.243 167.793C266.161 169.398 266.619 171.156 266.696 173.067ZM111.793 75.9107C111.76 76.0859 111.731 76.2436 111.704 76.3795C111.78 79.5897 112.315 81.8827 113.92 83.7171C115.601 85.7044 117.818 86.6216 120.416 86.163C123.015 85.7044 124.696 84.0228 125.537 81.5006C127.065 76.991 124.62 71.5643 119.805 70.4942C119.652 70.4432 119.499 70.4008 119.346 70.3583C119.041 70.2734 118.735 70.1885 118.429 70.0356C116.289 69.1184 113.614 70.0356 112.544 72.7872C112.167 73.9183 111.945 75.1011 111.793 75.9107ZM242.698 207.462C242.698 210.596 241.093 213.042 238.494 213.882C236.125 214.723 233.679 213.959 231.922 211.895C229.935 209.449 229.094 206.621 229.17 203.564C229.247 201.347 230.47 199.513 231.769 197.831C232.61 196.761 233.909 196.456 235.284 196.685C236.049 196.838 236.813 197.143 237.424 197.602C240.176 199.436 242.698 204.099 242.698 207.462ZM112.315 130.877V131.641C112.392 135.08 113.462 138.138 116.519 140.125C118.582 141.501 120.798 141.806 123.091 140.66C125.308 139.513 126.301 137.526 126.377 135.157C126.53 131.106 124.467 128.125 121.104 125.985C120.798 125.756 120.493 125.603 120.111 125.526C116.213 124.303 112.544 126.826 112.315 130.877ZM214.191 210.214C214.31 210.481 214.405 210.76 214.5 211.037C214.65 211.473 214.798 211.904 215.032 212.278C216.102 214.036 216.942 215.794 217.019 217.934C217.095 220.227 216.254 221.985 214.191 223.055C212.127 224.125 210.14 223.743 208.382 222.367C206.319 220.838 205.325 218.622 204.867 216.099C204.663 214.978 204.527 213.857 204.391 212.736C204.323 212.176 204.255 211.615 204.179 211.055C204.026 209.985 204.255 208.838 205.096 208.227L205.223 208.135C206.561 207.168 207.971 206.149 209.452 205.704C212.28 204.864 214.879 207.309 214.191 210.214ZM212.815 158.927C210.752 161.22 209.529 163.896 209.605 166.494C209.529 169.169 209.911 170.851 210.675 172.227C211.898 174.29 214.038 175.284 216.254 174.978C219.006 174.596 221.528 172.303 222.063 169.552C222.674 166.418 221.91 163.59 219.999 161.068C219.77 160.762 219.56 160.475 219.35 160.189C219.139 159.902 218.929 159.615 218.7 159.31C217.172 157.093 214.649 156.94 212.815 158.927ZM162.603 198.367C167.571 197.526 171.622 203.335 170.399 208.15C169.405 212.048 165.507 213.959 161.839 212.354C158.171 210.749 155.801 205.857 156.948 201.959C157.483 199.819 159.317 197.755 162.603 198.367ZM265.702 131.793C264.403 133.857 263.715 136.15 263.791 138.596C263.791 140.43 264.173 142.112 265.091 143.64C266.466 145.933 268.683 147.08 271.052 146.698C273.345 146.392 275.255 144.558 275.637 141.882C276.325 137.679 274.797 134.01 272.045 130.952C270.135 128.812 267.23 129.347 265.702 131.793ZM147.395 157.399C147.513 157.666 147.609 157.945 147.704 158.222C147.854 158.658 148.002 159.089 148.235 159.462C149.382 161.45 149.917 163.513 149.535 165.806C149.229 167.794 148.159 169.322 146.172 169.934C144.108 170.622 142.35 169.934 140.898 168.405C139.599 166.953 138.911 165.195 138.453 163.36C138.223 162.443 137.918 161.526 137.459 160.685C136.466 158.545 137.001 156.558 138.911 155.259C139.293 155.029 139.656 154.762 140.018 154.495L140.018 154.495L140.019 154.495L140.019 154.495L140.019 154.495L140.019 154.495L140.019 154.495L140.019 154.495L140.019 154.494L140.019 154.494L140.019 154.494L140.019 154.494L140.02 154.494C140.383 154.227 140.746 153.959 141.128 153.73C142.58 152.813 144.108 152.66 145.637 153.501C147.089 154.341 147.7 155.641 147.395 157.399ZM233.221 47.6409C235.284 46.5708 236.049 44.7365 236.125 42.7492C236.202 39.3861 233.909 35.5645 230.928 33.2715C227.871 30.9021 224.05 32.4307 223.591 36.3288C223.362 38.0868 223.438 39.9976 223.744 41.7556C224.126 43.9721 225.273 45.883 227.183 47.1823C229.094 48.4817 231.157 48.7874 233.221 47.6409ZM181.251 173.22C181.251 172.634 181.243 172.048 181.234 171.462C181.217 170.29 181.2 169.118 181.251 167.946C181.404 165.577 183.621 164.048 185.99 164.813C186.983 165.118 187.9 165.653 188.665 166.341C190.422 167.946 191.645 169.857 192.562 172.074C193.25 173.755 193.403 175.513 192.715 177.271C191.951 179.488 190.422 180.864 188.13 181.246C185.76 181.628 183.926 180.711 182.551 178.8C181.404 177.118 181.022 175.208 181.251 173.22ZM254.162 83.1819C256.989 82.0354 258.824 79.1309 258.824 75.9207C258.824 72.787 257.142 70.1883 254.62 69.3475C251.945 68.3539 248.888 69.3475 247.054 71.6405C244.991 74.2392 245.067 79.0545 247.207 81.5768C248.888 83.564 251.64 84.1755 254.162 83.1819ZM179.952 103.59C179.952 104.889 179.646 106.265 178.882 107.412C176.742 110.775 172.386 111.08 169.864 108.023C168.03 105.806 167.495 103.131 167.571 100.303C167.571 99.6727 167.7 99.0422 167.829 98.4116L167.829 98.4115C167.872 98.2013 167.915 97.9911 167.953 97.781C168.641 94.5708 171.469 93.2714 174.449 94.7236C177.506 96.0994 179.952 100.074 179.952 103.59ZM210.006 74.7776L210.006 74.7771L210.008 74.7707C210.077 74.543 210.145 74.3148 210.217 74.0865C209.988 71.9464 209.07 70.2649 207.313 68.8127C207.2 68.7159 207.08 68.6191 206.959 68.5209L206.958 68.5208L206.958 68.5208L206.958 68.5207C206.504 68.1536 206.025 67.7664 205.784 67.284C204.485 64.991 200.893 64.5324 198.676 67.3604C196.307 70.4178 196.231 75.1566 198.6 78.2904C201.504 82.112 206.548 81.8063 208.918 77.6789C209.414 76.7487 209.708 75.7682 210.006 74.7783L210.006 74.7782L210.006 74.7776ZM251.41 113.526C251.334 116.278 250.187 118.723 247.665 120.329C244.303 122.545 240.099 121.169 238.8 117.424C237.195 112.915 238.876 108.481 244.226 106.8C246.29 106.112 248.2 106.8 249.652 108.481C250.875 109.857 251.334 111.539 251.41 113.526ZM214.816 121.589C214.928 121.16 215.04 120.734 215.184 120.328C215.032 116.201 210.522 111.539 206.472 111.539C203.95 111.462 201.963 113.297 202.116 115.666C202.192 117.118 202.345 118.571 202.651 120.023C203.109 122.316 204.179 124.303 206.166 125.602C208.994 127.513 212.586 126.672 214.114 123.615C214.447 122.998 214.632 122.292 214.816 121.589L214.816 121.589ZM173.379 62.7745C173.379 65.3733 172.08 67.5134 169.94 68.3542C167.8 69.1949 165.355 68.5835 163.673 66.6726C161.381 63.9975 160.693 60.8637 161.381 57.4242C161.686 56.1249 162.374 55.0548 163.368 54.214C165.508 52.6089 168.259 53.144 169.711 55.3605C170.17 56.0484 170.705 56.7363 171.239 57.4241L171.24 57.4242C172.692 59.1058 173.379 60.7873 173.379 62.7745ZM135.297 92.7309C135.219 93.0322 135.152 93.2943 135.09 93.5007C135.243 96.8637 135.931 99.1567 137.918 100.838C140.898 103.437 145.102 102.443 146.554 98.851C147.471 96.4816 147.165 94.265 145.637 92.2777C145.025 91.437 144.567 90.6727 144.338 89.679C143.803 87.5389 141.663 86.3924 139.446 87.0039C137.994 87.386 136.848 88.3797 136.236 89.7555C135.79 90.8156 135.507 91.9164 135.297 92.7309ZM182.168 133.093C182.168 134.545 181.786 135.997 180.793 137.373C178.653 140.125 174.831 140.354 172.233 137.832C169.787 135.462 169.1 131.182 170.628 128.125C171.622 126.138 173.379 125.22 175.596 125.526C175.672 125.526 175.729 125.545 175.787 125.564C175.844 125.583 175.901 125.603 175.978 125.603C180.181 126.214 182.168 128.583 182.168 133.093ZM228.406 141.347V146.163C228.406 147.615 228.865 149.526 230.393 151.054C232.915 153.577 236.889 152.812 238.265 149.602C239.794 146.086 237.042 139.437 233.527 137.984C230.928 136.914 228.406 138.596 228.406 141.347Z" fill="black"/>
<path d="M35.5881 102.528C35.3057 103.092 35.0938 103.728 34.7408 104.293C34.1053 105.493 33.2579 106.411 31.8457 106.764C29.3743 107.4 26.9735 105.564 26.9735 102.81C26.9735 100.55 27.1854 98.2909 27.4678 96.0314C30.0098 78.0961 38.4126 63.4796 52.1818 51.8993C55.9241 48.7218 59.2429 45.3325 62.2085 41.4489C66.5158 35.8 70.9643 30.2923 76.0484 25.2789C78.9434 22.3838 82.0503 19.8418 85.5103 17.6529C87.6286 16.3112 89.8882 15.3227 92.4302 14.9696C96.6668 14.4047 99.9856 16.6643 100.621 20.901C101.257 25.3495 100.339 29.4449 97.5848 33.0461C95.4665 35.8 92.9245 37.9889 89.8882 39.5424C87.7698 40.6015 85.6515 41.6607 83.4625 42.6492C68.2105 49.7104 57.1952 61.0082 50.4165 76.3308C47.6626 82.5446 46.0386 89.1115 44.9088 95.8195C43.9908 101.468 43.1435 107.117 42.2256 112.696C42.0137 113.967 41.6607 115.238 41.3076 116.509C39.5423 122.793 35.1644 126.535 29.3037 128.583C26.6205 129.572 23.7254 129.925 20.901 130.348C19.8418 130.56 18.6414 130.419 17.5116 130.278C15.817 129.995 14.8284 128.866 14.7578 127.524C14.7578 126.182 15.6757 125.123 17.3704 124.629C20.0536 123.852 22.8075 123.075 25.4907 122.299C27.6796 121.663 29.4449 120.463 30.9984 118.839C32.5518 117.285 33.611 115.449 34.0347 113.261C34.5995 110.083 35.1644 106.905 35.6587 103.728C35.7293 103.375 35.6587 103.022 35.6587 102.669C35.7293 102.598 35.6587 102.598 35.5881 102.528ZM75.8365 37.2828C76.119 37.2828 76.1896 37.3534 76.3308 37.3534C79.7908 35.6587 83.2507 34.0347 86.7107 32.34C88.6878 31.3514 90.3118 29.798 91.6535 28.0327C92.7126 26.5499 93.1363 24.8552 92.9951 22.9487C88.7584 23.9373 79.7908 31.5633 75.8365 37.2828Z" fill="#FB421F"/>
<path d="M0 107.793C0.635501 100.732 0.917946 93.8831 2.18895 87.1044C3.24812 81.7379 3.95423 76.3009 4.87218 70.9344C5.29584 68.3924 5.93135 65.8504 6.56685 63.3084C6.84929 62.2492 7.34357 61.1901 7.62602 60.0603C10.0268 51.4457 13.981 43.5372 19.065 36.1937C20.2654 34.4284 21.4658 32.6631 22.8074 30.9684C31.7045 20.0943 42.5786 11.8328 55.218 5.83083C59.3841 3.92432 63.5501 2.01782 67.9986 1.09987C73.012 0.0407043 78.0254 -0.453575 83.1095 0.534983C87.0637 1.31171 90.6649 2.93577 93.7718 5.40716C96.3138 7.45489 98.2909 9.99689 99.5619 13.0332C103.092 21.5065 98.2909 30.9684 91.371 33.7223C86.5694 35.6288 81.7678 37.6059 76.8957 39.583C65.8803 44.1021 56.7008 51.0926 49.4279 60.4133C45.403 65.568 42.7904 71.4287 40.4603 77.4306C37.4946 84.8448 36.153 92.4708 36.506 100.45C36.7179 104.687 36.7885 108.923 36.9297 113.16C37.0709 116.691 36.2942 120.009 34.8114 123.187C33.4697 126.082 31.3514 128.2 28.527 129.542C23.1605 132.084 17.5822 132.86 11.7215 131.448C7.97907 130.53 5.22523 128.412 3.45995 124.952C1.97712 122.128 0.917946 119.162 0.635501 115.984C0.423668 113.089 0.211834 110.335 0 107.793Z" fill="black"/>
<mask id="mask0_51_83" style="mask-type:alpha" maskUnits="userSpaceOnUse" x="0" y="0" width="101" height="133">
<path d="M0 107.793C0.635501 100.732 0.917946 93.8831 2.18895 87.1044C3.24812 81.7379 3.95423 76.3009 4.87218 70.9344C5.29584 68.3924 5.93135 65.8504 6.56685 63.3084C6.84929 62.2492 7.34357 61.1901 7.62602 60.0603C10.0268 51.4457 13.981 43.5372 19.065 36.1937C20.2654 34.4284 21.4658 32.6631 22.8074 30.9684C31.7045 20.0943 42.5786 11.8328 55.218 5.83083C59.3841 3.92432 63.5501 2.01782 67.9986 1.09987C73.012 0.0407043 78.0254 -0.453575 83.1095 0.534983C87.0637 1.31171 90.6649 2.93577 93.7718 5.40716C96.3138 7.45489 98.2909 9.99689 99.5619 13.0332C103.092 21.5065 98.2909 30.9684 91.371 33.7223C86.5694 35.6288 81.7678 37.6059 76.8957 39.583C65.8803 44.1021 56.7008 51.0926 49.4279 60.4133C45.403 65.568 42.7904 71.4287 40.4603 77.4306C37.4946 84.8448 36.153 92.4708 36.506 100.45C36.7179 104.687 36.7885 108.923 36.9297 113.16C37.0709 116.691 36.2942 120.009 34.8114 123.187C33.4697 126.082 31.3514 128.2 28.527 129.542C23.1605 132.084 17.5822 132.86 11.7215 131.448C7.97907 130.53 5.22523 128.412 3.45995 124.952C1.97712 122.128 0.917946 119.162 0.635501 115.984C0.423668 113.089 0.211834 110.335 0 107.793Z" fill="black"/>
</mask>
<g mask="url(#mask0_51_83)">
<path d="M-2.40079 112.06C-1.97712 112.837 -1.8359 113.472 -1.41223 113.967C-0.282448 115.167 0.776721 116.368 2.04772 117.427C11.2272 125.053 21.6777 129.784 33.3991 131.62C37.424 132.255 41.4488 132.608 45.5443 131.973C46.2504 131.831 46.9565 131.69 47.6626 131.478C48.863 131.125 49.0042 130.984 49.6397 129.854C50.4164 130.631 50.4871 131.125 49.7103 131.69C48.9336 132.255 48.0863 132.679 47.1683 132.891C44.9088 133.526 42.6492 133.667 40.319 133.526C25.8437 132.608 12.9219 127.665 1.76528 118.415C0.494276 117.356 -0.706115 116.085 -1.8359 114.885C-2.25956 114.39 -2.68323 113.826 -2.96568 113.19C-3.45995 111.919 -2.96568 111.001 -1.55345 111.001C-0.282448 111.001 1.05917 111.142 2.25956 111.425C7.97907 112.837 13.628 114.32 19.2769 115.803C22.5956 116.65 25.9849 117.356 29.4449 117.568C30.7159 117.639 32.0575 117.497 33.3285 117.356C33.8228 117.286 34.3171 117.003 35.1644 116.65C34.3877 115.873 33.964 115.238 33.3285 114.814C31.7045 113.684 30.0804 112.555 28.4563 111.495C24.8552 109.095 21.1128 106.835 17.5822 104.364C8.96763 98.2911 2.68323 90.312 -1.41223 80.5676C-2.11834 78.9436 -2.61262 77.1783 -3.1069 75.413C-3.38934 74.4951 -3.38934 73.5065 -3.38934 72.5886C-3.38934 70.4702 -2.33017 69.6935 -0.282448 70.329C0.847332 70.6821 1.9065 71.1763 2.96567 71.8118C6.49623 73.9302 9.95619 76.1191 13.4867 78.3081C20.1948 82.5448 26.9029 86.6402 34.1758 89.8177C36.7885 90.9475 39.4011 92.0067 42.2255 92.4303C42.7198 92.501 43.1435 92.501 44.0614 92.501C43.3553 91.5124 42.9316 90.8769 42.4374 90.312C40.8839 88.6173 39.2599 86.9227 37.7064 85.228C30.2922 77.5314 24.0078 69.2698 19.4887 59.6667C16.9467 54.3003 14.9696 48.722 14.0516 42.8612C13.6986 40.5311 13.3455 38.1303 13.7692 35.8001C13.7692 35.6589 13.8398 35.447 13.8398 35.3058C14.4047 32.1989 16.3818 31.0691 19.2769 32.4814C20.6185 33.1169 21.8895 33.8936 22.9487 34.8115C25.9849 37.4242 29.0212 40.0368 31.9869 42.72C37.5652 47.7334 43.0729 52.888 48.7218 57.7602C50.9107 59.6667 53.4527 61.2202 55.9241 62.8442C56.8421 63.4797 57.9718 63.7622 58.9604 64.1858C59.1016 64.1152 59.1722 64.0446 59.3135 63.9034C59.1722 63.3385 59.1016 62.7736 58.8192 62.2793C58.0425 60.7259 57.1951 59.1724 56.4184 57.619C52.0405 49.2869 48.2981 40.7429 45.6149 31.7047C43.6378 25.1378 42.6492 18.5003 43.0729 11.651C43.1435 10.027 43.4965 8.40293 43.779 6.77887C43.9202 6.07276 44.2026 5.36665 44.6263 4.73115C45.6149 2.96586 47.0977 2.61281 48.7218 3.74259C49.7103 4.37809 50.6283 5.22542 51.3344 6.14337C53.2409 8.47354 55.1474 10.9449 56.9127 13.4163C61.7849 20.1244 66.4452 26.9737 72.0235 33.1875C74.7773 36.2238 77.6724 39.0482 80.5675 41.8727C81.3442 42.5788 82.2621 43.1437 83.1095 43.7792C83.2507 43.7086 83.3213 43.638 83.4625 43.5673C83.1801 42.6494 82.827 41.6608 82.5446 40.7429C80.7793 35.5883 78.8022 30.4336 77.1781 25.2084C75.4834 19.7007 74.2124 14.0518 73.7182 8.33232C73.5769 6.28459 73.5769 4.30748 73.6475 2.25975C73.6475 1.62425 73.7888 1.05936 74.0006 0.423858C74.5655 -1.48265 75.9071 -1.90631 77.4605 -0.705922C78.0961 -0.211643 78.6609 0.353247 79.1552 0.988749C80.4262 2.5422 81.6266 4.02503 82.827 5.64909C91.5828 17.653 100.55 29.5157 110.083 40.8841C112.625 43.9204 115.308 46.8155 118.062 49.9224C117.638 49.6399 117.285 49.5693 117.073 49.2869C113.967 45.9681 110.718 42.72 107.823 39.1894C98.8558 28.5271 90.3118 17.4412 82.1209 6.14337C80.7793 4.30748 79.2964 2.61281 77.8842 0.918137C77.3899 0.353247 76.6838 0.000190735 76.1189 -0.494088C75.1304 0.353247 75.1304 1.3418 75.0598 2.33036C74.7773 6.56704 75.4128 10.6625 76.2602 14.7579C77.9548 23.0195 80.4968 30.9985 83.6743 38.8364C84.1686 40.0368 84.5923 41.2372 84.9454 42.5082C85.0866 43.0025 85.1572 43.638 85.1572 44.2028C85.0866 45.1208 84.3805 45.6151 83.4625 45.3326C82.6152 45.0502 81.7678 44.5559 81.1323 43.991C78.8728 42.0139 76.6132 40.0368 74.5655 37.9184C68.4223 31.634 63.2677 24.5729 58.2543 17.3706C56.0653 14.2637 53.8764 11.2274 51.6168 8.1911C50.7695 7.06132 49.7809 6.07276 48.7218 5.15481C47.3802 4.02503 46.3916 4.30748 45.6855 5.93154C44.7675 8.12049 44.6263 10.4507 44.5557 12.7808C44.4145 18.0767 45.1206 23.2313 46.4622 28.3859C49.0748 38.4127 53.2409 47.7334 57.9718 56.9129C58.7486 58.4663 59.5959 60.0198 60.3726 61.5732C60.6551 62.2087 60.8669 62.9854 60.9375 63.6916C61.0787 65.0332 60.302 65.7393 58.9604 65.5275C58.1131 65.3862 57.1951 65.1038 56.4184 64.6095C54.3001 63.3385 52.1817 61.9969 50.2046 60.514C44.132 56.1361 38.8362 51.0521 33.5403 46.0387C30.3628 43.0024 27.1147 40.0368 23.8666 37.0711C22.8074 36.0825 21.5364 35.2352 20.336 34.4585C19.6299 33.9642 18.8532 33.6112 18.0765 33.3287C16.5936 32.7638 15.6757 33.2581 15.252 34.7409C14.9696 35.7295 14.8284 36.718 14.8284 37.7772C14.7578 42.0139 15.8169 46.0387 17.0879 50.0636C20.2654 60.0904 25.5613 68.9874 32.2693 77.0371C35.0938 80.4264 38.1301 83.6039 41.0958 86.9227C42.0843 87.9818 43.0729 89.1116 43.9908 90.2414C44.4145 90.7357 44.6969 91.23 44.9088 91.8655C45.2618 92.9952 44.7675 93.8426 43.5671 93.8426C42.5786 93.9132 41.5194 93.772 40.5309 93.5601C36.8591 92.7128 33.3991 91.1593 29.9392 89.4647C23.7254 86.4284 17.9353 82.7566 12.1451 79.0142C9.10885 77.0371 6.07257 75.1306 2.96567 73.2241C1.83589 72.518 0.564887 71.9531 -0.706115 71.4588C-2.11834 70.9645 -2.68323 71.3882 -2.61262 72.8004C-2.54201 74.0008 -2.40079 75.2718 -1.97712 76.4722C-0.141225 82.6154 3.1775 87.9818 7.06112 92.9952C10.7329 97.7262 15.1814 101.61 20.1948 104.929C23.5135 107.117 26.8323 109.165 30.151 111.354C31.2808 112.06 32.4106 112.837 33.5403 113.614C34.0346 113.967 34.4583 114.32 34.8113 114.673C35.5175 115.308 36.0117 116.085 35.7293 117.074C35.4468 117.992 34.5995 118.345 33.7522 118.415C32.1281 118.557 30.5041 118.839 28.88 118.627C26.0556 118.274 23.1605 117.85 20.4067 117.144C14.899 115.803 9.53252 114.249 4.02484 112.837C2.82445 112.555 1.62406 112.272 0.353054 112.06C-0.282448 111.919 -1.20039 112.06 -2.40079 112.06Z" fill="#FB421F"/>
</g>
</svg>
