<svg width="274" height="433" viewBox="0 0 274 433" fill="none" xmlns="http://www.w3.org/2000/svg">
<path d="M191.106 184.058C196.784 193.134 202.861 204.325 207.554 216.233C212.897 229.829 215.323 244.078 216.209 258.528C217.683 282.878 212.746 306.005 201.951 327.814C192.717 346.596 180.992 363.558 165.804 378.011C157.264 386.154 148.182 393.594 137.935 399.5C128.659 404.868 118.827 409.101 108.327 411.481C101.525 413.057 94.6585 413.444 87.7808 411.907C84.7191 411.246 81.8295 410.035 79.0461 408.58C73.2172 405.399 70.0159 400.436 68.822 394.09C68.1241 390.148 68.2867 386.177 68.9596 382.317C70.2653 374.535 72.7336 367.057 76.2805 360.025C79.381 354.072 82.6857 348.163 85.6841 342.188C91.5709 330.748 97.3557 319.287 103.06 307.701C106.019 301.663 108.449 295.352 110.613 289.037C115.201 275.448 116.99 261.468 116.285 247.163C115.669 235.174 112.316 223.984 106.764 213.333C98.5654 197.625 86.7481 185.568 71.5864 176.635C69.1712 175.206 66.6099 173.959 64.0266 172.814C48.1583 165.918 31.5313 161.796 14.2515 160.203C-0.614852 158.81 -15.3054 159.325 -30.092 160.78C-41.6588 161.915 -53.2836 162.824 -64.8064 163.755C-69.8093 164.171 -74.8662 164.094 -79.817 163.773C-81.1878 163.691 -82.4925 163.303 -83.607 162.528C-85.4719 161.271 -87.3369 160.014 -89.2638 158.797C-91.8391 157.12 -93.5238 154.78 -94.606 151.877C-98.0309 142.753 -98.2178 133.474 -94.5986 124.375C-90.5951 114.237 -84.1804 105.795 -76.3269 98.3581C-62.4273 85.1763 -45.7868 77.606 -26.8276 75.1289C-11.1103 73.0736 4.54459 73.782 19.9991 76.9037C32.9022 79.4747 45.4169 83.3505 57.9096 87.3283C73.7441 92.4012 89.1982 98.2465 104.242 105.499C126.788 116.346 146.531 131.02 163.703 149.199C173.335 159.502 182.263 170.347 191.106 184.058Z" fill="#27DAB7"/>
<mask id="mask0_11_221" style="mask-type:alpha" maskUnits="userSpaceOnUse" x="-98" y="73" width="315" height="340">
<path d="M191.106 184.058C196.784 193.134 202.861 204.325 207.554 216.233C212.897 229.829 215.323 244.078 216.209 258.528C217.683 282.878 212.746 306.005 201.951 327.814C192.717 346.596 180.992 363.558 165.804 378.011C157.264 386.154 148.182 393.594 137.935 399.5C128.659 404.868 118.827 409.101 108.327 411.481C101.525 413.057 94.6585 413.444 87.7808 411.907C84.7191 411.246 81.8295 410.035 79.0461 408.58C73.2172 405.399 70.0159 400.436 68.822 394.09C68.1241 390.148 68.2867 386.177 68.9596 382.317C70.2653 374.535 72.7336 367.057 76.2805 360.025C79.381 354.072 82.6857 348.163 85.6841 342.188C91.5709 330.748 97.3557 319.287 103.06 307.701C106.019 301.663 108.449 295.352 110.613 289.037C115.201 275.448 116.99 261.468 116.285 247.163C115.669 235.174 112.316 223.984 106.764 213.333C98.5654 197.625 86.7481 185.568 71.5864 176.635C69.1712 175.206 66.6099 173.959 64.0266 172.814C48.1583 165.918 31.5313 161.796 14.2515 160.203C-0.614852 158.81 -15.3054 159.325 -30.092 160.78C-41.6588 161.915 -53.2836 162.824 -64.8064 163.755C-69.8093 164.171 -74.8662 164.094 -79.817 163.773C-81.1878 163.691 -82.4925 163.303 -83.607 162.528C-85.4719 161.271 -87.3369 160.014 -89.2638 158.797C-91.8391 157.12 -93.5238 154.78 -94.606 151.877C-98.0309 142.753 -98.2178 133.474 -94.5986 124.375C-90.5951 114.237 -84.1804 105.795 -76.3269 98.3581C-62.4273 85.1763 -45.7868 77.606 -26.8276 75.1289C-11.1103 73.0736 4.54459 73.782 19.9991 76.9037C32.9022 79.4747 45.4169 83.3505 57.9096 87.3283C73.7441 92.4012 89.1982 98.2465 104.242 105.499C126.788 116.346 146.531 131.02 163.703 149.199C173.335 159.502 182.263 170.347 191.106 184.058Z" fill="black"/>
</mask>
<g mask="url(#mask0_11_221)">
<path d="M35.2562 275.009C35.2949 275.603 35.3554 275.828 35.3137 276.033C34.7592 287.108 37.0117 297.744 40.309 308.22C44.2933 321.073 49.5083 333.379 55.1336 345.502C59.3577 354.568 63.8898 363.431 68.7089 372.193C73.2231 380.359 77.9221 388.404 83.2161 396.144C88.082 403.37 93.7496 409.801 100.876 414.824C115.518 425.057 131.257 426.776 147.827 420.246C162.428 414.487 173.36 404.25 181.172 390.766C191.767 372.522 193.89 352.976 188.931 332.624C187.419 326.455 185.148 320.611 182.201 314.948C182.038 314.702 181.875 314.456 181.59 314.025C180.932 314.636 180.275 315.248 179.679 315.819C167.39 327.484 153.554 336.543 137.541 342.173C126.695 345.981 115.569 347.761 104.087 346.591C93.5461 345.506 83.8537 342.09 75.4846 335.321C68.9529 329.993 64.2279 323.382 62.4788 314.98C60.3266 304.898 62.9417 295.735 69.1154 287.67C71.1528 284.996 73.6599 282.63 76.0042 280.018C75.9019 279.997 75.5543 279.873 75.2474 279.811C68.6356 279.314 64.3284 275.878 62.2643 269.543C61.2932 266.468 60.9777 263.314 61.0923 260.141C61.2547 255.166 62.3587 250.276 63.9534 245.593C67.6185 234.939 73.3672 225.563 80.4647 216.888C90.6277 204.417 102.789 194.164 116.885 186.437C123.492 182.777 130.527 179.897 137.783 177.754C138.358 177.551 138.87 177.39 139.423 177.289C139.527 177.044 139.609 176.901 139.589 176.737C141.009 164.293 140.749 151.986 137.479 139.811C135.399 132.248 132.19 125.253 127.32 119.092C118.212 107.59 106.317 101.914 91.656 101.96C87.0693 101.983 82.562 102.662 78.1957 103.956C77.8064 104.036 77.3962 104.219 76.9859 104.401C77.0256 104.729 76.963 105.036 77.0643 105.323C80.0373 120.261 80.0406 135.393 78.3038 150.436C76.4836 165.888 72.7405 180.842 66.6654 195.213C63.4009 202.858 59.4004 210.194 54.093 216.623C50.7811 220.583 47.0413 224.029 42.506 226.673C40.2691 227.975 37.788 228.907 35.2473 229.348C28.691 230.408 23.4173 228.054 19.2801 223.001C16.2025 219.283 14.4788 214.935 13.1862 210.303C11.0278 201.818 10.9175 193.217 12.0359 184.601C13.9554 169.968 19.1057 156.474 26.4439 143.746C32.1331 133.878 39.2108 125.039 47.7373 117.455C54.7432 111.319 62.4202 106.332 71.0944 102.986C71.6685 102.784 72.1402 102.56 72.7759 102.317C72.7164 101.826 72.636 101.436 72.5556 101.047C70.6594 93.6273 67.8404 86.5524 63.3597 80.3105C53.298 66.4303 39.6648 60.1328 22.6023 61.7667C13.5282 62.6328 5.4261 66.3078 -2.00568 71.3982C-7.83629 75.43 -12.9121 80.2018 -17.4785 85.6104C-17.8282 86.0185 -18.1778 86.4267 -18.4252 86.8558C-17.0826 89.1542 -15.7192 91.3504 -14.4173 93.5872C-9.19005 102.699 -5.4189 112.419 -2.91911 122.625C0.729301 137.648 1.89964 152.804 -0.329833 168.173C-1.44406 175.724 -3.41738 183.047 -6.90432 189.955C-9.1733 194.287 -11.912 198.31 -15.8137 201.243C-17.3334 202.425 -19.0369 203.463 -20.8417 204.214C-26.7069 206.587 -32.659 204.946 -37.1855 199.974C-40.5909 196.296 -42.6215 191.885 -44.221 187.19C-44.6261 186.042 -45.2369 185.118 -46.1346 184.296C-53.5611 177.347 -59.5295 169.256 -64.3475 160.228C-72.52 144.922 -76.798 128.545 -77.1 111.222C-77.2322 102.99 -76.3414 94.9669 -73.8743 87.0523C-72.1326 81.3872 -69.655 76.032 -65.6041 71.5839C-59.7028 65.1157 -52.5484 62.9523 -44.1014 65.4214C-38.5177 67.0399 -33.8003 70.2932 -29.4743 74.1593C-26.5565 76.8323 -23.8444 79.7298 -21.5017 82.8716C-21.0737 83.3852 -20.6864 83.8371 -20.177 84.4738C-19.6426 83.9435 -19.2313 83.4946 -18.7585 83.005C-13.6786 77.1685 -7.96601 71.8872 -1.459 67.6737C6.89551 62.2388 15.9798 58.7109 26.055 58.422C44.6897 57.9612 58.7458 66.1031 68.4726 81.8863C71.7486 87.2431 74.0195 93.0874 75.6546 99.175C75.7956 99.7898 76.0389 100.425 76.2613 101.163C76.9376 100.982 77.5525 100.841 78.1673 100.7C87.9437 98.2189 97.6912 97.9697 107.303 100.996C118.776 104.562 127.307 111.843 133.554 121.962C139.782 131.916 142.606 142.882 143.647 154.496C144.215 161.111 144.087 167.745 143.489 174.336C143.466 174.971 143.381 175.646 143.338 176.383C144.116 176.222 144.772 176.143 145.387 176.002C153.685 174.498 162.041 174.018 170.41 175.566C192.794 179.706 207.507 192.723 214.201 214.494C217.497 225.236 217.762 236.212 216.348 247.325C214.217 263.78 208.016 278.765 199.015 292.592C194.917 298.842 190.369 304.681 185.311 310.149C185.023 310.516 184.694 310.822 184.283 311.271C185.299 313.343 186.376 315.374 187.29 317.425C200.165 345.199 197.841 379.835 175.568 405.18C167.239 414.669 157.158 421.777 145.002 425.477C126.367 431.159 109.551 427.409 94.631 414.882C89.7121 410.788 85.5332 405.94 81.9294 400.623C76.9006 393.15 72.2621 385.331 67.9107 377.411C61.4442 365.756 55.5319 353.734 50.3576 341.49C45.0007 328.836 40.1969 316.082 37.0131 302.699C35.0187 294.194 33.946 285.611 34.7167 276.87C34.7386 276.502 34.7813 276.031 34.8032 275.663C34.8857 275.52 34.9472 275.479 35.2562 275.009ZM98.4252 269.355C99.3062 269.215 99.8386 269.217 100.289 269.096C107.011 267.75 113.728 267.468 120.564 268.17C134.625 269.76 147.259 274.948 158.755 283.1C167.74 289.462 175.204 297.271 181.23 306.386C181.556 306.879 181.984 307.392 182.391 308.008C182.864 307.518 183.254 307.172 183.583 306.866C186.155 303.661 188.972 300.56 191.401 297.272C201.569 283.47 208.733 268.202 211.726 251.177C213.63 240.537 213.794 229.809 211.378 219.193C209.304 210.032 205.445 201.786 199.145 194.8C192.233 187.157 183.672 182.373 173.731 179.919C163.686 177.444 153.59 177.835 143.57 179.947C143.344 180.007 143.159 180.129 142.975 180.251C142.892 180.394 142.81 180.537 142.789 180.64C142.726 180.947 142.643 181.356 142.58 181.663C139.472 201.86 132.643 220.713 122.623 238.488C117.18 248.193 110.757 257.219 102.905 265.154C101.528 266.418 100.09 267.723 98.4252 269.355ZM179.841 310.844C179.414 310.065 179.069 309.408 178.641 308.894C176.482 305.897 174.344 302.797 172 299.921C161.89 287.842 149.31 279.256 134.34 274.55C118.02 269.41 101.988 269.389 86.3548 277.335C79.3383 280.912 73.607 285.763 69.4248 292.422C62.3787 303.718 63.148 316.662 71.4004 327.136C75.7203 332.599 81.1518 336.531 87.4475 339.36C94.9697 342.706 102.888 344.108 111.059 344.017C124.471 343.823 136.935 339.919 148.875 333.883C158.148 329.169 166.546 323.263 174.21 316.249C176.06 314.495 177.869 312.679 179.841 310.844ZM73.6238 105.474C72.9474 105.655 72.6196 105.695 72.271 105.837C65.9142 108.27 60.0449 111.708 54.6235 115.823C47.4976 121.242 41.2893 127.648 35.9788 134.876C24.6991 150.21 17.3654 167.094 14.9379 186.046C14.0094 193.209 14.0841 200.416 15.5106 207.527C16.4556 212.035 17.934 216.279 20.5607 220.119C24.7553 226.195 30.8495 228.185 37.7595 225.652C42.1477 223.989 45.7624 221.157 48.949 217.811C54.2325 212.283 58.1067 205.827 61.3682 198.98C66.6732 187.862 70.1785 176.163 72.5179 164.174C75.693 147.826 76.7804 131.265 74.8991 114.631C74.665 111.6 74.1032 108.608 73.6238 105.474ZM138.815 181.055C138.2 181.195 137.647 181.296 137.196 181.417C130.616 183.378 124.279 185.974 118.226 189.268C104.273 196.811 92.4609 206.922 82.5443 219.23C75.9603 227.477 70.4589 236.425 66.9806 246.424C65.2826 251.352 64.1369 256.446 64.1373 261.667C64.0864 264.268 64.4655 266.849 65.3979 269.33C67.2824 274.456 71.3672 277.154 76.7743 276.766C78.5154 276.588 80.339 276.267 81.959 275.639C86.3879 274.038 90.3898 271.658 94.0253 268.724C99.1806 264.607 103.662 259.874 107.655 254.668C124.036 233.129 134.142 208.925 138.708 182.365C138.77 182.058 138.751 181.628 138.815 181.055ZM-40.0945 189.684C-38.2893 194.154 -35.9299 198.259 -31.5988 200.794C-28.228 202.813 -24.6852 202.684 -21.2595 201.038C-20.1927 200.51 -19.0435 199.839 -18.0988 199.126C-15.0186 196.824 -12.7548 193.823 -10.8584 190.533C-7.78676 185.139 -5.86028 179.352 -4.56745 173.276C-2.23117 162.085 -2.00348 150.783 -3.31129 139.434C-5.09438 123.886 -9.33776 109.168 -16.984 95.4611C-18.123 93.4706 -19.3236 91.5208 -20.5242 89.571C-20.7705 89.7338 -20.9344 89.7537 -20.996 89.7944C-21.4896 90.3863 -21.9833 90.9782 -22.3747 91.591C-37.4451 112.971 -45.0717 136.776 -45.1927 162.964C-45.2203 170.151 -44.2855 177.321 -42.2442 184.29C-41.9205 185.315 -41.4121 186.218 -40.5342 186.877C-38.6969 188.317 -36.8805 189.86 -35.0641 191.403C-34.6966 191.691 -34.493 191.999 -34.1256 192.287C-36.5212 192.277 -38.0506 190.633 -40.0945 189.684ZM-22.3166 87.1275C-22.5202 86.8196 -22.6215 86.5325 -22.7843 86.2862C-26.9602 80.6393 -31.6704 75.5227 -37.4912 71.6714C-40.6365 69.5913 -44.0093 68.1041 -47.7129 67.4551C-53.1765 66.5536 -57.953 68.03 -62.1239 71.7611C-65.1237 74.4523 -67.2863 77.7406 -68.9792 81.3379C-71.3942 86.3861 -72.8072 91.7453 -73.5656 97.2914C-75.4164 110.02 -74.359 122.596 -71.2536 135.058C-67.1196 151.618 -59.703 166.45 -48.347 179.209C-47.6945 179.929 -47.042 180.648 -46.328 181.326C-49.56 164.524 -48.3912 148.086 -44.1107 131.804C-39.8708 115.46 -32.6674 100.52 -22.3166 87.1275Z" fill="black"/>
</g>
</svg>
