<svg width="433" height="466" viewBox="0 0 433 466" fill="none" xmlns="http://www.w3.org/2000/svg">
<path d="M432.915 326.251C433.015 346.151 431.215 361.151 426.615 375.651C419.715 397.551 407.115 415.651 389.615 430.251C369.015 447.451 345.515 458.751 319.115 463.751C306.715 466.051 294.215 466.451 281.615 465.151C264.415 463.451 247.415 460.251 230.915 454.851C223.515 452.351 216.115 449.651 208.915 446.651C199.415 442.851 190.815 437.551 182.715 431.351C175.715 425.951 168.915 420.451 162.715 414.151C154.815 406.151 148.215 397.251 143.315 387.251C136.315 373.051 130.515 358.451 126.715 343.051C125.115 336.551 124.215 329.851 123.815 323.151C123.315 315.451 122.915 307.651 123.015 299.951C123.215 282.251 128.515 265.851 137.015 250.351C147.115 231.851 161.515 217.251 179.015 205.751C183.415 202.851 187.615 199.751 191.715 196.351C203.915 186.051 216.715 176.651 230.315 168.251C250.815 155.751 272.815 147.251 296.515 143.051C308.215 141.051 320.015 140.251 331.815 141.851C351.115 144.551 366.315 153.751 376.915 170.351C381.315 177.351 384.615 184.851 387.515 192.651C389.015 196.751 390.415 200.751 391.815 204.851C395.915 216.651 400.715 228.151 406.415 239.251C410.215 246.651 413.815 254.151 417.515 261.551C428.215 283.451 433.315 306.651 432.915 326.251Z" fill="#FB421F"/>
<mask id="mask0_52_104" style="mask-type:alpha" maskUnits="userSpaceOnUse" x="123" y="141" width="310" height="325">
<path d="M432.915 326.251C433.015 346.151 431.215 361.151 426.615 375.651C419.715 397.551 407.115 415.651 389.615 430.251C369.015 447.451 345.515 458.751 319.115 463.751C306.715 466.051 294.215 466.451 281.615 465.151C264.415 463.451 247.415 460.251 230.915 454.851C223.515 452.351 216.115 449.651 208.915 446.651C199.415 442.851 190.815 437.551 182.715 431.351C175.715 425.951 168.915 420.451 162.715 414.151C154.815 406.151 148.215 397.251 143.315 387.251C136.315 373.051 130.515 358.451 126.715 343.051C125.115 336.551 124.215 329.851 123.815 323.151C123.315 315.451 122.915 307.651 123.015 299.951C123.215 282.251 128.515 265.851 137.015 250.351C147.115 231.851 161.515 217.251 179.015 205.751C183.415 202.851 187.615 199.751 191.715 196.351C203.915 186.051 216.715 176.651 230.315 168.251C250.815 155.751 272.815 147.251 296.515 143.051C308.215 141.051 320.015 140.251 331.815 141.851C351.115 144.551 366.315 153.751 376.915 170.351C381.315 177.351 384.615 184.851 387.515 192.651C389.015 196.751 390.415 200.751 391.815 204.851C395.915 216.651 400.715 228.151 406.415 239.251C410.215 246.651 413.815 254.151 417.515 261.551C428.215 283.451 433.315 306.651 432.915 326.251Z" fill="black"/>
</mask>
<g mask="url(#mask0_52_104)">
<path d="M268.755 -8.94873C267.355 -8.54873 265.855 -8.14873 264.455 -7.74873C255.755 -5.64873 248.355 -1.24873 241.655 4.45127C232.455 12.3513 224.555 21.4513 217.055 30.9513C203.455 48.4513 191.455 67.1513 180.255 86.2513C156.555 126.851 135.755 168.851 118.355 212.551C110.355 232.551 104.455 253.251 100.855 274.551C97.7546 292.851 96.4546 311.251 97.4546 329.751C98.5546 352.051 102.655 373.751 111.355 394.351C117.455 408.951 125.555 422.251 136.455 433.851C137.455 434.851 138.455 435.851 139.555 436.851C139.655 436.951 139.855 436.951 140.255 436.951C139.955 434.651 139.755 432.551 139.455 430.351C138.355 420.851 138.455 411.351 139.355 401.851C140.455 390.051 142.955 378.451 146.455 367.151C146.755 366.151 146.755 364.951 146.455 363.851C142.855 347.551 141.555 331.151 142.355 314.551C143.955 280.451 153.255 248.351 168.855 218.251C191.555 174.551 223.155 138.651 264.155 111.151C279.255 101.051 295.255 92.4513 312.555 86.5513C317.855 84.7513 323.355 83.5513 328.755 82.2513C330.455 81.8513 332.255 81.8513 333.955 81.8513C334.655 81.8513 335.455 82.1513 336.155 82.3513C336.155 82.5513 336.155 82.6513 336.155 82.8513C335.755 83.0513 335.255 83.4513 334.855 83.4513C319.155 85.0513 304.855 90.9513 290.955 98.0513C267.055 110.151 245.955 126.151 226.955 144.951C200.055 171.551 178.655 202.051 163.755 236.851C155.155 256.851 149.555 277.551 146.855 299.151C144.555 318.251 144.755 337.251 148.155 356.251C148.355 357.151 148.555 357.951 148.755 359.351C149.155 358.451 149.455 357.951 149.655 357.451C157.155 337.751 167.455 319.751 180.555 303.251C181.455 302.051 181.655 300.951 181.655 299.551C181.455 292.651 180.855 285.751 181.355 278.951C183.755 243.351 196.655 212.351 222.755 187.451C235.855 175.051 251.155 166.451 268.755 162.451C287.855 158.151 306.255 159.851 323.655 169.351C326.255 170.751 328.755 172.451 331.355 174.051C334.255 172.651 337.255 171.251 340.355 169.851C341.355 169.451 341.255 168.551 341.255 167.851C341.355 164.451 341.455 160.951 341.455 157.551C341.255 143.751 341.355 129.851 340.755 116.051C340.155 99.1513 338.655 82.2513 335.255 65.5513C333.255 55.5513 330.155 45.9513 325.755 36.6513C325.355 35.8513 325.055 35.0513 325.055 34.1513C325.355 34.6513 325.755 35.1513 325.955 35.6513C331.555 46.5513 335.255 58.0513 337.555 70.0513C340.155 83.4513 341.555 96.9513 342.455 110.451C343.755 128.651 343.855 146.851 343.655 165.151C343.655 165.951 343.655 166.751 343.655 167.551C343.655 167.651 343.755 167.851 343.955 168.151C344.855 167.851 345.855 167.551 346.855 167.151C357.855 163.151 369.155 160.851 380.955 161.251C409.555 162.051 431.555 174.851 447.055 198.851C455.055 211.351 459.355 225.151 460.855 239.851C463.355 263.751 458.355 286.351 448.155 307.851C445.155 314.151 441.455 320.151 437.855 326.251C437.055 327.751 436.855 328.851 437.355 330.451C441.755 343.851 442.855 357.651 441.355 371.651C438.155 402.351 425.555 429.051 406.155 452.751C393.955 467.551 379.655 479.851 362.655 488.851C351.555 494.751 339.755 498.751 327.155 499.951C312.355 501.351 298.155 498.951 284.855 491.951C283.155 491.051 281.955 491.151 280.355 492.151C267.055 500.851 252.755 506.851 237.055 509.451C216.955 512.751 197.655 510.451 179.855 499.951C164.555 490.951 154.055 477.751 147.055 461.551C144.755 456.151 142.955 450.651 141.655 444.951C141.355 443.751 141.055 442.751 140.055 441.851C125.755 428.851 115.555 413.051 108.155 395.351C102.055 380.651 98.2546 365.351 96.0546 349.551C93.4546 331.151 93.3546 312.751 95.0546 294.251C97.8546 264.451 105.455 235.951 116.755 208.351C136.855 159.251 160.555 111.951 188.855 67.0513C199.055 50.8513 210.055 35.2513 222.655 20.7513C228.155 14.4513 234.055 8.65127 240.455 3.25127C248.855 -3.24873 258.055 -7.74873 268.755 -8.94873ZM435.055 324.051C435.255 324.051 435.555 324.151 435.755 324.151C436.255 323.451 436.755 322.751 437.155 322.051C440.155 316.551 443.355 311.251 446.055 305.551C456.055 284.051 460.855 261.551 457.855 237.751C455.855 222.151 450.655 207.751 441.155 195.151C426.555 175.751 407.155 165.351 382.855 164.251C369.955 163.651 357.555 166.251 345.555 170.851C344.255 171.351 343.855 172.051 343.855 173.351C343.855 176.751 343.755 180.051 343.555 183.451C343.455 184.751 343.955 185.751 344.755 186.651C350.355 193.151 354.655 200.351 358.055 208.251C361.455 216.051 363.755 224.151 365.155 232.551C365.355 233.851 365.855 234.651 367.255 235.051C368.855 235.451 370.455 236.151 371.955 236.751C387.455 242.751 401.155 251.551 412.155 264.151C426.055 280.051 432.855 298.851 434.155 319.751C434.355 321.151 434.855 322.651 435.055 324.051ZM328.255 176.051C328.055 175.751 327.955 175.651 327.855 175.551C327.655 175.351 327.355 175.151 327.055 174.951C316.455 167.951 304.855 164.151 292.155 163.351C275.855 162.451 260.555 166.351 246.255 174.051C227.955 183.951 213.955 198.251 203.455 216.051C188.955 240.551 182.855 267.151 184.355 295.551C184.355 296.351 184.555 297.051 184.655 297.851C184.955 297.751 185.155 297.751 185.255 297.651C185.755 297.151 186.255 296.551 186.655 296.051C207.955 271.651 233.255 252.651 263.455 240.551C264.655 240.051 265.355 239.251 266.055 238.251C269.955 232.551 273.755 226.651 277.955 221.151C291.555 203.251 307.655 188.051 327.155 176.751C327.555 176.451 327.855 176.251 328.255 176.051ZM434.755 332.351C434.555 332.351 434.455 332.451 434.255 332.451C434.155 333.151 433.955 333.851 433.955 334.551C433.555 340.251 432.655 345.851 431.155 351.351C422.055 385.951 401.955 412.451 371.755 431.351C357.755 440.051 342.455 445.251 325.755 445.151C324.455 445.151 323.955 445.851 323.455 446.851C314.555 463.051 302.455 476.551 287.655 487.651C287.055 488.051 286.555 488.551 285.855 489.151C286.755 489.651 287.455 490.051 288.155 490.351C302.555 497.451 317.755 499.151 333.455 496.251C347.155 493.751 359.655 488.151 371.255 480.451C391.155 467.251 406.855 450.051 418.955 429.651C431.055 409.151 438.355 387.051 439.055 363.151C439.355 353.451 438.155 343.851 435.455 334.451C435.255 333.651 435.055 332.951 434.755 332.351ZM364.655 283.851C364.455 284.651 364.355 285.051 364.255 285.451C362.355 295.651 359.655 305.751 356.255 315.551C350.455 332.651 342.855 348.951 333.855 364.551C333.155 365.751 332.755 366.751 333.155 368.151C335.755 376.851 337.055 385.751 336.955 394.851C336.955 395.451 337.055 396.051 337.155 396.651C337.455 396.651 337.655 396.751 337.755 396.751C338.455 396.551 339.155 396.451 339.855 396.151C375.655 385.451 404.655 364.951 427.655 335.651C431.155 331.151 431.055 331.151 431.155 325.451C431.155 323.851 431.055 322.351 430.255 320.851C418.255 297.751 399.255 285.351 373.255 283.851C370.555 283.651 367.655 283.851 364.655 283.851ZM292.355 319.551C293.055 318.751 293.655 318.051 294.355 317.351C303.755 306.951 314.555 298.451 326.955 291.951C328.555 291.151 330.655 290.551 331.555 289.151C332.455 287.751 332.355 285.651 332.555 283.851C334.355 268.151 336.055 252.351 337.755 236.651C337.955 235.051 337.955 233.351 338.055 231.551C337.455 231.451 337.055 231.351 336.755 231.251C333.355 231.051 329.855 230.751 326.455 230.751C306.855 230.551 288.055 234.151 269.655 240.751C268.055 241.351 266.955 242.251 266.155 243.751C252.055 267.851 242.255 293.551 236.455 320.851C236.355 321.351 236.355 321.951 236.255 322.751C254.655 313.851 273.155 311.751 292.355 319.551ZM262.455 244.251C262.355 244.151 262.255 244.051 262.155 243.951C261.255 244.351 260.355 244.651 259.555 245.051C245.155 251.351 231.655 259.351 219.255 268.951C207.255 278.151 196.455 288.551 186.755 300.051C185.555 301.451 185.155 302.851 185.455 304.651C185.755 306.351 186.055 308.151 186.355 309.851C188.855 323.851 193.555 337.051 200.755 349.251C201.155 349.951 201.655 350.651 202.155 351.551C202.655 350.951 203.055 350.651 203.255 350.251C211.155 340.451 220.355 332.151 231.255 325.651C232.355 325.051 232.755 324.151 232.955 323.051C238.555 295.751 247.955 269.851 261.755 245.651C262.055 245.151 262.255 244.651 262.455 244.251ZM325.855 442.251C326.955 442.251 327.555 442.251 328.155 442.251C338.555 441.951 348.355 439.351 357.855 435.251C372.955 428.651 385.855 418.951 397.055 406.951C413.455 389.351 424.655 369.051 429.355 345.351C429.855 343.051 430.155 340.751 430.455 338.551C405.655 369.051 374.755 390.051 337.055 400.551C336.055 415.051 332.355 428.751 325.855 442.251ZM145.555 446.451C145.655 447.251 145.755 447.651 145.855 448.051C147.155 451.951 148.355 455.851 149.855 459.551C156.555 475.551 166.955 488.551 182.055 497.351C198.655 507.051 216.555 509.451 235.355 506.551C250.855 504.251 265.055 498.351 278.155 490.051C278.655 489.751 279.055 489.351 279.655 488.851C277.155 487.051 274.755 485.451 272.355 483.751C268.755 486.051 264.855 486.651 260.855 486.551C258.355 486.451 255.855 486.351 253.455 485.951C237.155 483.251 222.355 476.951 209.655 466.251C208.655 465.451 207.755 465.051 206.455 465.251C199.455 465.951 192.355 465.451 185.455 464.351C171.455 461.951 158.955 456.251 147.555 447.851C147.055 447.451 146.455 447.051 145.555 446.451ZM268.255 398.851C265.555 384.651 266.855 371.151 270.955 357.851C275.055 344.551 281.855 332.651 290.455 321.951C290.255 321.651 290.155 321.451 290.055 321.451C289.755 321.251 289.455 321.151 289.155 321.051C282.955 318.551 276.455 317.151 269.755 316.951C258.155 316.551 247.255 319.551 236.955 324.751C235.755 325.351 235.155 326.151 235.055 327.451C234.155 334.451 232.855 341.551 232.155 348.551C230.955 359.251 230.555 369.951 231.155 380.651C231.255 382.151 231.755 382.951 232.955 383.751C238.455 387.351 244.155 390.451 250.255 393.051C255.955 395.351 261.755 397.351 268.255 398.851ZM182.555 420.851C182.755 420.751 182.855 420.651 183.055 420.651C179.455 396.151 186.155 374.351 200.055 354.351C190.655 339.451 185.055 323.251 182.455 305.551C181.655 306.551 181.155 307.051 180.755 307.551C178.455 310.651 176.155 313.751 174.055 316.851C164.355 331.151 156.655 346.451 150.855 362.751C150.355 364.251 150.255 365.651 150.655 367.151C152.455 373.751 154.655 380.351 157.355 386.651C162.055 397.451 168.255 407.351 176.655 415.651C178.655 417.451 180.655 419.051 182.555 420.851ZM237.255 431.351C237.055 430.551 236.855 429.951 236.655 429.351C232.155 415.251 229.555 400.851 228.555 386.051C228.455 384.551 227.755 383.751 226.655 382.951C217.455 376.051 209.455 367.851 202.855 358.451C202.455 357.851 201.955 357.351 201.455 356.751C200.955 357.451 200.455 358.051 200.055 358.651C194.955 366.351 190.955 374.651 188.355 383.551C184.655 396.051 183.555 408.651 185.955 421.451C186.255 423.051 186.955 423.951 188.255 424.851C198.055 430.951 208.655 433.951 220.155 433.851C225.855 433.751 231.455 433.051 237.255 431.351ZM204.755 462.251C204.555 461.851 204.555 461.751 204.555 461.651C204.355 461.451 204.155 461.151 203.955 460.951C194.855 451.451 188.255 440.451 184.855 427.651C184.555 426.551 183.955 425.851 183.155 425.251C175.355 419.751 169.055 412.751 163.755 404.851C157.355 395.351 152.855 385.051 149.455 374.151C149.255 373.351 148.955 372.651 148.655 371.851C147.955 372.751 147.755 373.551 147.455 374.351C144.655 384.751 142.755 395.251 142.055 405.951C141.255 417.151 141.755 428.351 143.855 439.351C144.055 440.551 144.555 441.551 145.555 442.351C162.055 455.851 180.855 463.051 202.355 462.451C202.955 462.451 203.755 462.351 204.755 462.251ZM293.855 322.751C293.055 323.751 292.455 324.351 291.955 325.051C287.355 330.851 283.455 337.051 280.155 343.651C272.755 358.651 268.655 374.451 270.355 391.351C270.655 394.151 271.155 396.851 271.555 399.751C275.055 400.251 278.255 400.751 281.555 401.351C282.955 401.651 283.955 401.051 284.855 400.051C299.355 383.851 309.955 365.451 317.755 345.251C318.155 344.151 317.955 343.351 317.255 342.451C312.955 336.951 307.955 332.051 302.255 328.051C299.555 326.251 296.755 324.651 293.855 322.751ZM320.955 445.051C306.255 443.751 293.755 438.451 283.455 428.151C273.055 437.451 262.055 445.551 249.755 452.151C258.055 466.651 268.455 478.651 282.555 487.251C298.555 475.951 311.355 462.251 320.955 445.051ZM270.255 237.651C281.355 234.051 292.455 231.351 303.855 229.751C315.255 228.151 326.755 228.051 338.255 228.851C338.455 227.051 338.555 225.551 338.655 224.051C339.155 217.151 339.555 210.351 340.055 203.451C340.355 198.551 340.555 193.551 340.755 188.551C340.755 187.751 340.755 186.851 340.255 186.351C337.455 183.151 334.355 180.351 330.855 177.751C305.255 192.251 285.955 213.051 270.255 237.651ZM430.355 313.451C428.455 295.251 421.755 279.051 409.555 265.351C397.855 252.051 383.155 243.151 366.055 237.351C367.955 252.151 367.255 266.451 365.155 280.851C393.055 279.751 414.855 290.151 430.355 313.451ZM331.455 362.251C332.055 361.251 332.455 360.551 332.855 359.851C334.455 356.851 336.155 353.851 337.755 350.751C348.155 330.551 356.155 309.551 360.655 287.151C360.855 286.251 360.855 285.351 361.055 284.351C352.055 285.351 343.755 287.751 335.755 291.051C334.555 291.551 334.355 292.351 334.155 293.451C331.655 310.051 327.755 326.351 322.155 342.251C321.755 343.351 321.855 344.151 322.455 345.151C324.555 348.551 326.555 352.051 328.455 355.551C329.455 357.551 330.355 359.751 331.455 362.251ZM322.555 442.051C328.955 429.351 333.055 415.851 334.055 401.251C333.055 401.451 332.355 401.551 331.755 401.651C323.655 403.451 315.455 404.851 307.155 405.251C305.855 405.351 305.155 405.851 304.355 406.751C298.555 412.951 292.655 419.051 286.855 425.151C286.555 425.451 286.255 425.851 285.955 426.151C294.255 435.651 309.755 442.151 322.555 442.051ZM341.155 231.851C339.155 250.651 337.255 269.251 335.255 288.051C343.755 284.551 352.555 282.251 361.455 281.151C364.155 269.651 364.755 245.751 362.355 236.151C355.455 234.151 348.455 232.651 341.155 231.851ZM188.155 428.651C188.155 429.151 188.055 429.451 188.155 429.651C188.555 430.751 188.855 431.951 189.255 433.051C193.155 443.651 199.255 452.751 207.255 460.751C208.255 461.751 209.255 462.251 210.655 461.951C211.155 461.851 211.655 461.851 212.055 461.751C223.255 460.051 233.955 456.551 244.055 451.551C244.555 451.351 244.955 450.951 245.355 450.751C242.955 445.351 240.555 440.051 238.255 434.651C220.755 439.251 204.055 437.651 188.155 428.651ZM240.155 430.351C248.955 428.451 267.755 417.551 272.255 411.751C271.155 408.751 270.055 405.651 268.955 402.451C255.855 399.351 243.455 394.251 231.555 386.551C232.655 401.751 235.355 416.151 240.155 430.351ZM271.055 482.651C261.055 474.351 253.355 464.551 247.355 453.751C241.455 456.051 235.855 458.551 230.155 460.451C224.355 462.351 218.455 463.551 212.355 465.151C213.055 465.751 213.555 466.251 214.255 466.751C224.455 474.651 235.955 479.851 248.355 482.951C253.055 484.051 257.755 484.951 262.555 484.851C265.355 484.751 268.155 484.351 271.055 482.651ZM287.555 401.751C288.455 401.851 288.855 402.051 289.155 402.051C293.655 402.151 298.055 402.151 302.555 402.251C303.755 402.251 304.255 401.551 304.855 400.851C313.555 390.251 321.455 378.951 328.555 367.151C329.255 365.951 329.255 365.051 328.855 363.751C326.855 358.451 324.355 353.351 321.355 348.551C321.055 348.151 320.755 347.751 320.255 347.251C312.455 367.351 301.955 385.551 287.555 401.751ZM331.155 293.551C321.655 296.651 298.955 314.451 295.755 321.051C297.555 322.051 299.355 323.051 301.055 324.251C302.755 325.351 304.355 326.451 305.955 327.651C307.555 328.951 309.155 330.251 310.755 331.651C312.255 332.951 313.655 334.451 315.055 335.851C316.455 337.351 317.755 338.851 319.355 340.551C324.855 325.151 328.555 309.651 331.155 293.551ZM203.455 353.851C210.155 364.051 218.155 372.551 227.755 379.851C228.055 370.951 228.055 362.351 228.655 353.751C229.255 345.151 230.555 336.551 231.655 327.651C220.455 334.651 211.255 343.351 203.455 353.851ZM281.055 425.751C278.655 422.151 276.255 418.751 273.755 415.151C264.055 423.251 253.455 429.651 241.355 433.651C243.455 439.151 245.555 444.251 248.355 449.151C256.955 445.151 274.955 432.251 281.055 425.751ZM361.855 232.951C361.955 222.651 349.955 194.851 343.555 190.651C342.855 203.451 342.055 216.251 341.355 228.851C348.255 230.251 354.955 231.651 361.855 232.951ZM330.655 370.151C323.955 381.151 316.655 391.551 308.555 401.551C313.355 401.851 329.955 399.151 334.055 397.451C334.955 391.351 333.055 375.451 330.655 370.151ZM283.355 423.551C287.055 421.051 299.455 407.851 300.255 405.551C298.555 405.551 296.855 405.551 295.155 405.551C293.455 405.551 291.755 405.351 290.155 405.351C288.355 405.251 286.355 404.751 284.755 405.351C283.255 405.851 282.155 407.551 280.855 408.851C279.355 410.251 277.955 411.751 276.455 413.251C278.355 416.951 280.655 420.351 283.355 423.551ZM341.055 182.251C341.055 178.851 341.055 175.951 341.055 172.751C338.755 173.851 336.555 174.851 334.055 176.051C336.455 178.151 338.555 180.051 341.055 182.251ZM272.355 403.151C273.255 405.551 273.955 407.551 274.855 409.851C276.755 407.951 278.755 406.551 280.155 404.451C277.555 404.051 275.255 403.651 272.355 403.151Z" fill="black"/>
</g>
<path d="M175.818 71.7348C176.044 71.1085 176.233 70.5997 176.382 70.0523C177.088 67.199 176.898 64.3956 176.24 61.5198C175.296 57.5174 173.499 53.915 171.275 50.5126C167.583 44.9066 162.889 40.1701 157.58 36.1425C149.714 30.1583 141.011 25.8988 131.548 23.2073C126.23 21.7127 120.88 20.8031 115.388 20.9863C113.401 21.0493 111.456 21.3066 109.512 21.6418C108.384 21.8503 107.3 22.4089 106.214 22.8896C105.827 23.0502 105.439 23.2108 105.123 22.9028C104.925 22.6324 104.725 22.2062 104.722 21.8945C104.752 21.1537 105.252 20.6411 105.873 20.3998C107.113 19.8392 108.313 19.1623 109.635 18.9125C111.772 18.458 113.952 18.1979 116.172 18.1321C120.377 17.8475 124.631 18.3807 128.774 19.3439C143.233 22.7545 155.902 29.4991 166.511 40.0095C171.244 44.7066 175.127 50.0374 177.58 56.2818C179.711 61.7507 180.596 67.2346 178.406 73.0285C178.837 73.296 179.268 73.4857 179.661 73.7148C184.798 76.4195 189.708 79.5947 194.119 83.4383C198.411 87.1665 202.164 91.3688 204.72 96.4819C205.519 98.1089 206.163 99.8158 206.651 101.524C208.896 109.954 205.712 117.318 198.126 121.618C195.378 123.171 192.428 124.142 189.358 124.842C183.373 126.161 177.295 126.312 171.211 125.918C169.534 125.822 167.895 125.608 166.179 125.472C165.828 125.438 165.516 125.441 165.009 125.409C165.172 125.952 165.295 126.457 165.417 126.884C166.674 130.961 167.27 135.162 166.737 139.417C166.1 144.724 163.934 149.31 159.925 152.943C157.534 155.076 154.863 156.55 151.837 157.6C147.063 159.255 142.119 159.666 137.09 159.454C136.427 159.423 135.764 159.392 134.984 159.323C134.99 159.869 135.035 160.375 135.041 160.842C135.254 165.594 134.295 170.048 131.459 173.979C129.428 176.848 126.725 178.907 123.587 180.465C119.559 182.462 115.322 183.41 110.884 183.775C104.734 184.317 98.6481 183.767 92.6308 182.437C92.1623 182.364 91.6544 182.254 91.0685 182.144C91.1146 182.728 91.1587 183.156 91.2038 183.662C91.8114 188.798 92.1852 193.938 91.7797 199.087C91.6136 201.466 91.2521 203.808 90.8128 206.152C90.5218 207.87 89.8797 209.553 88.8845 211.046C88.1578 212.185 87.4621 212.661 86.374 212.908C86.373 212.83 86.3327 212.714 86.3327 212.714C87.6048 211.568 88.1709 210.041 88.5802 208.439C89.213 205.976 89.4166 203.48 89.4645 200.985C89.6211 194.592 89.0764 188.208 88.1815 181.867C88.1411 181.75 88.1008 181.634 88.0585 181.362C87.7064 181.249 87.3149 181.098 86.8849 180.986C76.4812 177.838 66.9909 172.887 58.5691 166.052C54.083 162.443 50.0974 158.322 47.2309 153.29C46.1963 151.51 45.4338 149.688 44.9033 147.707C44.5343 146.192 44.3991 144.673 44.5755 143.152C45.0412 139.756 46.8832 137.395 50.064 136.188C52.2751 135.343 54.5349 135.315 56.8765 135.599C61.677 136.203 65.947 138.061 69.9147 140.702C78.7159 146.675 84.6207 154.826 87.5107 165.04C88.6506 169.079 89.3643 173.318 90.2713 177.438C90.3549 177.905 90.4385 178.371 90.522 178.838C90.6788 178.914 90.7577 178.991 90.8751 179.029C98.0274 180.774 105.285 181.543 112.638 180.558C116.801 180.002 120.724 178.902 124.32 176.637C130.237 172.864 133.043 166.439 131.941 159.048C131.55 158.975 131.042 158.864 130.574 158.792C121.32 157.306 112.634 154.371 104.587 149.519C101.25 147.494 98.144 145.233 95.4981 142.342C93.9584 140.685 92.534 138.909 91.7294 136.815C91.2477 135.652 90.8815 134.37 90.7885 133.124C90.5199 130.244 91.9723 127.888 94.6068 126.609C96.1183 125.928 97.7125 125.636 99.349 125.617C102.154 125.583 104.889 126.173 107.512 127.116C113.695 129.301 118.999 132.862 123.575 137.483C128.703 142.642 132.438 148.599 134.239 155.747C134.28 155.864 134.32 155.98 134.401 156.213C134.752 156.248 135.142 156.321 135.494 156.356C139.589 156.657 143.718 156.529 147.76 155.623C150.908 154.922 153.817 153.757 156.443 151.855C160.036 149.279 162.293 145.783 163.294 141.523C164.112 138.24 164.149 134.888 163.485 131.545C163.112 129.64 162.505 127.816 162.015 125.951C161.81 125.135 161.3 124.791 160.441 124.645C154.584 123.703 148.877 122.291 143.283 120.449C134.715 117.708 126.412 114.223 118.755 109.444C115.025 107.112 111.564 104.504 108.602 101.227C107.14 99.5693 105.872 97.7921 105.183 95.6571C104.09 92.2021 105.496 89.2624 108.87 87.9357C109.801 87.5348 110.811 87.2888 111.823 87.1986C113.419 87.0625 114.977 87.0436 116.538 87.1807C120.01 87.4895 123.411 88.4226 126.661 89.6694C138.092 93.9738 147.876 100.675 155.822 110.049C158.747 113.521 161.249 117.348 163.169 121.456C163.449 122.037 163.727 122.462 164.507 122.531C170.751 123.313 176.952 123.745 183.218 123.084C186.799 122.729 190.299 122.064 193.634 120.776C195.574 120.052 197.433 119.094 199.054 117.827C203.263 114.62 205.083 110.389 204.668 105.134C204.35 101.357 202.868 97.985 200.881 94.8136C198.219 90.5981 194.786 87.0933 190.891 83.9839C186.877 80.759 182.558 78.0833 177.971 75.7615C177.735 75.6085 177.501 75.5334 177.188 75.4592C176.957 75.6959 176.725 75.8545 176.572 76.0902C174.577 78.6862 172.066 80.5481 169.001 81.6372C166.983 82.363 164.887 83.0118 162.787 83.349C153.802 84.7434 145.135 83.4451 136.829 79.7265C134.909 78.8534 133.064 77.7455 131.565 76.2828C131.092 75.8209 130.619 75.359 130.184 74.8576C127.612 71.6542 128.271 68.1391 131.674 65.9157C133.105 65.0022 134.696 64.4764 136.329 64.1449C138.894 63.5684 141.542 63.4585 144.232 63.5429C150.976 63.7343 157.54 65.1359 163.918 67.2801C167.478 68.4451 170.925 69.9623 174.41 71.2841C174.917 71.317 175.348 71.5066 175.818 71.7348ZM87.7843 178.014C87.4922 176.419 87.2415 175.02 86.9514 173.581C85.9993 168.955 84.9307 164.37 82.9693 160.068C79.1676 151.814 73.4384 145.297 65.4748 140.912C62.5323 139.272 59.3627 138.18 55.9696 137.948C54.3313 137.812 52.7342 137.87 51.1438 138.474C48.8943 139.358 47.5104 140.934 47.3452 143.391C47.2814 144.561 47.2965 145.808 47.6608 146.933C48.1481 148.564 48.7912 150.193 49.6278 151.703C52.0174 155.96 55.3336 159.505 59.0347 162.656C67.1063 169.534 76.2849 174.489 86.3778 177.719C86.7684 177.792 87.1975 177.826 87.7843 178.014ZM160.287 121.647C160.127 121.259 160.086 121.065 159.966 120.871C158.371 117.851 156.505 115.029 154.369 112.404C148.912 105.768 142.339 100.43 134.846 96.2732C129.786 93.4896 124.537 91.2927 118.835 90.2705C117 89.9419 115.089 89.848 113.219 89.8706C112.05 89.8847 110.885 90.2106 109.76 90.6528C108.131 91.296 107.563 92.6667 108.012 94.337C108.217 95.1528 108.576 95.8889 109.014 96.624C110.248 98.7524 111.944 100.486 113.795 102.061C116.591 104.482 119.617 106.589 122.873 108.381C134.291 114.829 146.538 119.007 159.39 121.541C159.585 121.577 159.858 121.613 160.287 121.647ZM131.472 155.742C131.39 155.353 131.386 155.041 131.266 154.77C130.782 153.451 130.415 152.091 129.815 150.813C126.371 143.138 120.883 137.242 113.815 132.807C110.36 130.667 106.756 129.073 102.734 128.382C100.898 128.053 99.0655 127.958 97.2 128.37C94.1693 129.109 92.9085 131.189 93.7244 134.219C94.1732 135.889 95.1262 137.358 96.1947 138.709C98.4913 141.721 101.481 144.023 104.662 146.05C112.594 151.098 121.282 154.111 130.497 155.636C130.732 155.712 131.043 155.708 131.472 155.742ZM174.638 74.0482C174.285 73.8576 174.049 73.7046 173.853 73.59C166.056 70.138 157.959 67.5469 149.489 66.4411C145.937 65.9774 142.388 65.7474 138.809 66.2583C137.214 66.4724 135.582 66.8818 134.109 67.523C130.93 68.8864 130.569 71.2289 132.976 73.7328C134.515 75.3119 136.36 76.4198 138.358 77.2919C145.762 80.5149 153.453 81.708 161.469 80.7539C164.427 80.4065 167.262 79.6318 169.895 78.1972C171.714 77.201 173.296 75.8959 174.638 74.0482Z" fill="black"/>
</svg>
