<svg width="12" height="19" viewBox="0 0 12 19" fill="none" xmlns="http://www.w3.org/2000/svg">
<path d="M9.05088 5.4976C9.59516 5.5408 10.0962 5.58399 10.5973 5.62719C10.7096 5.63583 10.822 5.65311 10.917 5.6963C11.1071 5.77406 11.2021 5.92957 11.2194 6.14555C11.2366 6.43065 11.1848 6.69847 11.0811 6.95765C10.9602 7.26867 10.8306 7.57105 10.6837 7.86479C10.3295 8.59049 9.94074 9.29892 9.51741 9.99007C8.67939 11.3378 7.85001 12.6769 7.03791 14.0419C6.64914 14.6899 6.32948 15.3724 5.96663 16.029C5.60378 16.6942 5.22364 17.3595 4.86079 18.0247C4.66208 18.3962 4.32515 18.5776 3.95366 18.6899C3.52169 18.8195 3.07244 18.5603 2.93421 18.1284C2.83054 17.8001 2.8219 17.4631 2.95149 17.1521C3.18475 16.5905 3.45257 16.0463 3.72039 15.502C3.80679 15.3292 3.94502 15.191 4.1178 15.0873C4.37699 14.9318 4.51521 14.9836 4.58433 15.2687C4.59297 15.2946 4.59297 15.3206 4.61025 15.3897C4.67072 15.3033 4.71392 15.2514 4.74848 15.191C5.32732 14.2579 5.85432 13.2903 6.32948 12.2968C7.07247 10.7417 7.90185 9.23845 8.73123 7.72656C8.85218 7.50193 8.99905 7.29459 9.12864 7.06996C9.16319 7.00949 9.19775 6.95765 9.24095 6.8799C8.93857 6.86262 8.66211 6.84534 8.39429 6.82806C8.31654 6.81942 8.27334 6.86262 8.23014 6.93173C8.12647 7.09588 8.0228 7.26003 7.91913 7.42418C7.70314 7.78703 7.38348 7.95118 6.96016 7.91662C6.8392 7.90798 6.70961 7.90798 6.58866 7.87343C6.26037 7.79567 6.09622 7.50193 6.18261 7.17364C6.20853 7.0786 6.25173 6.99221 6.29492 6.90582C7.11566 5.43712 7.92776 3.97707 8.75714 2.51702C8.99905 2.09369 9.27551 1.68764 9.53469 1.26431C9.56924 1.20383 9.6038 1.152 9.647 1.07424C9.52605 1.0656 9.43965 1.0656 9.34462 1.04833C9.12864 1.01377 9.01632 0.892817 8.99041 0.702751C8.97313 0.555881 9.02496 0.460848 9.16319 0.400373C9.24959 0.365815 9.31006 0.30534 9.37918 0.253503C9.45693 0.193028 9.56924 0.132552 9.67292 0.132552C10.0876 0.106634 10.485 0.0893555 10.8911 0.0893555C11.0379 0.0893555 11.1934 0.115274 11.3403 0.149831C11.6427 0.218946 11.7809 0.44357 11.6945 0.737308C11.6513 0.892817 11.5822 1.04833 11.4872 1.18656C11.1502 1.65308 10.8565 2.15416 10.5973 2.68117C10.1567 3.57102 9.68156 4.43496 9.17183 5.28161C9.13728 5.34209 9.10272 5.40257 9.05088 5.4976Z" fill="black"/>
<path d="M2.64911 9.10901C2.38993 9.12629 2.14802 9.14357 1.89748 9.15221C1.50871 9.17812 1.1113 9.20404 0.722529 9.22132C0.636136 9.22996 0.558382 9.22996 0.471988 9.22132C0.135053 9.18676 -0.0550135 8.91894 0.0141015 8.59065C0.0227408 8.55609 0.0313802 8.52153 0.0486589 8.49561C0.43743 7.47617 0.71389 6.43081 0.973071 5.3768C1.26681 4.21049 1.56919 3.04417 1.87157 1.8865C1.93204 1.66187 2.00116 1.43725 2.06163 1.21263C2.14802 0.91025 2.32081 0.711544 2.64911 0.676987C2.99468 0.642429 3.33162 0.581954 3.67719 0.556036C5.23228 0.461002 6.78736 0.288215 8.33381 0.106788C8.72258 0.0635916 9.11999 0.0290341 9.50877 0.00311604C9.64699 -0.00552332 9.78522 0.00311605 9.91481 0.0376735C10.2431 0.115428 10.3813 0.426445 10.2518 0.728823C10.2086 0.823856 10.1481 0.91025 10.0876 0.996643C9.93209 1.23855 9.77659 1.47181 9.62972 1.71371C9.23231 2.38758 8.84353 3.06145 8.43748 3.72668C8.03143 4.39191 7.61674 5.05715 7.20205 5.72238C7.0811 5.91244 6.96015 6.09387 6.8392 6.2753C6.80464 6.32713 6.77009 6.38761 6.71825 6.474C6.80464 6.474 6.85648 6.474 6.90832 6.474C7.62538 6.48264 8.34245 6.48264 9.05952 6.49128C9.11135 6.49128 9.17183 6.49992 9.22367 6.50856C9.55196 6.57767 9.71611 6.88005 9.59516 7.19107C9.55196 7.30338 9.47421 7.40705 9.39645 7.50209C9.04224 7.96861 8.67939 8.4265 8.33381 8.90166C8.16966 9.12629 8.02279 9.37683 7.8932 9.62737C7.19342 10.9578 6.50227 12.2797 5.81976 13.6188C5.11133 14.9924 4.42018 16.3834 3.72039 17.757C3.66855 17.8607 3.60808 17.9644 3.52168 18.0508C3.31434 18.2667 3.03788 18.2495 2.8219 18.0508C2.66639 17.9039 2.57999 17.7311 2.57135 17.5238C2.54544 17.135 2.51088 16.7376 2.51952 16.3402C2.54544 14.9233 2.59727 13.5064 2.62319 12.0896C2.64047 11.1306 2.64047 10.1717 2.64911 9.21268C2.66639 9.18676 2.65775 9.15221 2.64911 9.10901Z" fill="#FB421F"/>
</svg>
