<svg width="126" height="156" viewBox="0 0 126 156" fill="none" xmlns="http://www.w3.org/2000/svg">
<path d="M214.739 24.43C214.064 33.4484 213.512 42.5895 212.714 51.6693C211.978 59.9515 210.751 68.2337 208.174 76.2092C203.941 89.2767 196.886 100.749 188.113 111.24C178.113 123.203 165.536 131.424 150.996 136.884C140.383 140.81 129.524 143.817 118.604 146.577C108.849 149.031 98.9717 150.81 89.0943 152.774C83.1434 153.939 77.2538 155.105 71.2416 155.534C66.7017 155.902 62.1618 156.271 57.5606 155.718C52.898 155.105 48.4195 154.062 44.125 152.16C43.082 151.669 41.9777 151.179 40.9348 150.688C33.7569 147.62 27.4378 143.387 21.671 138.172C18.7875 135.534 16.0268 132.835 13.6955 129.706C13.2047 129.031 12.6526 128.418 12.2231 127.682C9.52372 122.958 6.64028 118.295 4.43169 113.326C2.77525 109.583 1.6096 105.718 1.18015 101.608C0.443957 94.7981 -0.23089 88.0497 0.0758588 81.1785C0.443957 74.0006 1.54825 66.9454 3.26605 59.9515C5.29059 51.792 7.56053 43.7552 9.70777 35.657C11.4256 29.0926 13.1434 22.4668 14.0636 15.657C14.6157 11.7306 14.9838 7.74284 15.1065 3.81646C15.2292 -1.52097 15.0452 -6.85839 14.9225 -12.2572C14.7998 -18.8216 14.9838 -25.386 16.2108 -31.8891C19.0329 -46.9198 26.5789 -59.1897 38.2967 -68.883C46.2722 -75.5088 55.4133 -79.8646 65.4747 -82.4413C77.0698 -85.4474 88.8489 -86.6131 100.689 -85.6928C110.015 -85.018 119.156 -83.1161 128.051 -80.1713C142.591 -75.3247 156.763 -69.5578 170.321 -62.4413C176.395 -59.2511 182.101 -55.5087 187.377 -51.2143C198.665 -41.9504 206.027 -30.1713 210.137 -16.2449C213.757 -4.09766 215.291 8.29499 214.739 20.9944C214.677 22.0987 214.739 23.2643 214.739 24.43Z" fill="#27DAB7"/>
<mask id="mask0_16_34002" style="mask-type:alpha" maskUnits="userSpaceOnUse" x="0" y="-86" width="215" height="242">
<path d="M214.739 24.43C214.064 33.4484 213.512 42.5895 212.714 51.6693C211.978 59.9515 210.751 68.2337 208.174 76.2092C203.941 89.2767 196.886 100.749 188.113 111.24C178.113 123.203 165.536 131.424 150.996 136.884C140.383 140.81 129.524 143.817 118.604 146.577C108.849 149.031 98.9717 150.81 89.0943 152.774C83.1434 153.939 77.2538 155.105 71.2416 155.534C66.7017 155.902 62.1618 156.271 57.5606 155.718C52.898 155.105 48.4195 154.062 44.125 152.16C43.082 151.669 41.9777 151.179 40.9348 150.688C33.7569 147.62 27.4378 143.387 21.671 138.172C18.7875 135.534 16.0268 132.835 13.6955 129.706C13.2047 129.031 12.6526 128.418 12.2231 127.682C9.52372 122.958 6.64028 118.295 4.43169 113.326C2.77525 109.583 1.6096 105.718 1.18015 101.608C0.443957 94.7981 -0.23089 88.0497 0.0758588 81.1785C0.443957 74.0006 1.54825 66.9454 3.26605 59.9515C5.29059 51.792 7.56053 43.7552 9.70777 35.657C11.4256 29.0926 13.1434 22.4668 14.0636 15.657C14.6157 11.7306 14.9838 7.74284 15.1065 3.81646C15.2292 -1.52097 15.0452 -6.85839 14.9225 -12.2572C14.7998 -18.8216 14.9838 -25.386 16.2108 -31.8891C19.0329 -46.9198 26.5789 -59.1897 38.2967 -68.883C46.2722 -75.5088 55.4133 -79.8646 65.4747 -82.4413C77.0698 -85.4474 88.8489 -86.6131 100.689 -85.6928C110.015 -85.018 119.156 -83.1161 128.051 -80.1713C142.591 -75.3247 156.763 -69.5578 170.321 -62.4413C176.395 -59.2511 182.101 -55.5087 187.377 -51.2143C198.665 -41.9504 206.027 -30.1713 210.137 -16.2449C213.757 -4.09766 215.291 8.29499 214.739 20.9944C214.677 22.0987 214.739 23.2643 214.739 24.43Z" fill="black"/>
</mask>
<g mask="url(#mask0_16_34002)">
<path fill-rule="evenodd" clip-rule="evenodd" d="M72.2845 -49.0056C72.2845 -51.5209 72.7753 -53.6682 74.0023 -55.57C74.5545 -56.4289 75.352 -57.2878 76.2109 -57.9013C77.4379 -58.7602 79.2171 -58.5148 80.0759 -57.1651C80.26 -56.8584 80.6894 -56.613 81.0575 -56.4289C81.2553 -56.3159 81.4662 -56.2289 81.672 -56.1439C81.9131 -56.0445 82.1473 -55.9478 82.3459 -55.8154C85.168 -53.9136 86.7017 -49.1283 85.5361 -45.9995C84.4931 -43.1774 80.8121 -40.8461 77.8674 -41.1528C76.1496 -41.3369 74.8612 -42.2571 73.8796 -43.6682C72.7753 -45.3246 72.2845 -47.2265 72.2845 -49.0056ZM123.266 -49.3128C120.628 -47.4724 119.708 -44.773 119.647 -41.7055C119.647 -40.049 120.015 -38.5153 120.689 -36.9815C121.855 -34.6503 124.002 -33.4846 126.579 -33.7914C129.217 -34.0981 131.303 -35.3865 132.959 -37.3496C137.315 -42.6257 134.002 -49.1901 128.235 -50.4171C126.395 -50.7852 124.8 -50.4171 123.266 -49.3128ZM150.321 -6.552C150.383 -9.55814 151.242 -12.3189 152.959 -14.8342C153.696 -15.8772 154.555 -16.7974 155.72 -17.4109C156.64 -17.9017 157.499 -18.1471 158.542 -17.6563C158.849 -17.5336 159.217 -17.4723 159.524 -17.4723C163.45 -17.2269 166.518 -14.2821 166.886 -10.3557C167.193 -6.9201 165.966 -3.97531 163.512 -1.64402C161.916 -0.110275 160.015 0.871323 157.867 1.30077C155.536 1.73022 153.634 0.932667 152.162 -0.907825C150.812 -2.56427 150.26 -4.46611 150.321 -6.552ZM114.984 101.301C114.923 99.1538 115.413 96.6998 116.64 94.4299C116.952 93.8076 117.482 93.2292 117.972 92.6946C118.062 92.5967 118.15 92.5003 118.235 92.4054C118.788 91.7919 119.401 91.2397 120.015 90.6876C122.591 88.1722 125.843 88.3563 127.99 91.2397C128.972 92.5281 129.892 93.9391 129.278 95.7182C129.203 95.9071 129.244 96.1193 129.286 96.3404C129.313 96.4783 129.34 96.6198 129.34 96.7612C129.647 100.81 128.235 104.246 125.475 107.191C124.37 108.356 123.021 109.092 121.426 109.522C118.972 110.197 116.947 109.215 115.843 106.945C115.107 105.166 114.923 103.448 114.984 101.301ZM167.825 32.122C167.8 32.5258 167.774 32.9457 167.745 33.3867C167.755 33.4935 167.766 33.6096 167.777 33.7327C167.831 34.3168 167.899 35.0593 168.051 35.718C168.665 38.7242 170.935 40.5647 174.002 40.626C176.15 40.6874 177.99 39.9512 179.524 38.5401C182.346 35.9021 183.634 32.6506 183.266 28.7855C182.837 24.7978 179.831 22.2211 175.597 22.1597C171.671 22.0984 168.604 24.7364 168.113 28.6015C167.973 29.721 167.904 30.8406 167.825 32.122ZM48.9716 73.4484C48.9716 76.3319 48.3581 78.9699 46.8244 81.3625C46.5176 81.792 46.2109 82.2214 45.8428 82.6509C42.1618 86.8227 37.3765 84.8595 35.5974 81.3625C34.4317 79.0312 34.2477 76.5773 34.8612 74.0619C34.9042 73.9007 34.9472 73.7413 34.9898 73.5831L34.9899 73.583C35.1907 72.8387 35.3842 72.1215 35.536 71.3625C36.0882 69.2153 37.1925 67.3748 39.033 66.0864C41.9164 64.0006 45.352 64.6141 47.3765 67.5589C48.6035 69.2766 48.9103 71.3625 48.9716 73.4484ZM50.1986 112.467C48.9716 115.228 48.2968 118.234 48.1741 120.504C48.1127 123.081 48.4195 124.86 49.4624 126.393C50.8121 128.357 52.898 129.154 55.2293 128.725C57.0698 128.418 58.4808 127.375 59.6465 126.025C63.2661 121.854 63.9409 115.534 59.4011 110.504C58.0514 108.97 56.0882 108.602 54.1863 109.4C54.1149 109.435 54.0383 109.481 53.9595 109.529L53.9591 109.529C53.7673 109.644 53.5627 109.768 53.3888 109.768C51.6096 109.89 50.8121 111.056 50.1986 112.467ZM127.867 55.4113C127.99 53.0187 128.91 50.442 130.628 48.1107C131.426 47.0064 132.346 46.0862 133.88 46.2088C134.158 46.2088 134.47 46.034 134.766 45.8691C134.861 45.8156 134.955 45.7631 135.045 45.718C137.07 44.7365 138.972 44.9819 140.567 46.577C142.591 48.6628 143.266 51.1782 142.898 54.0003C142.653 56.0248 141.978 57.9266 140.874 59.6444C139.524 61.7917 137.561 63.1414 135.107 63.5708C132.898 64.0003 131.058 63.2641 129.647 61.4849C128.358 59.8898 127.867 57.988 127.867 55.4113ZM66.3493 31.7842L66.3492 31.7844C66.3044 32.1168 66.2598 32.4472 66.2109 32.7733C66.3949 35.4727 66.8244 38.1107 68.2354 40.442C68.8489 41.5463 69.6465 42.4665 71.1802 41.9757C71.262 41.9348 71.3984 41.9485 71.5347 41.9621C71.6029 41.9689 71.671 41.9757 71.7324 41.9757C73.8183 42.2825 75.4747 41.3622 76.763 39.8285C79.0943 37.0064 80.0146 33.7549 79.8305 30.1352C79.7692 28.7855 79.4624 27.4358 78.7876 26.2089C76.8857 22.7119 73.3275 21.9144 70.1373 24.307C68.5422 25.534 67.3152 27.0677 66.8244 29.0309C66.5992 29.9318 66.4732 30.8657 66.3493 31.7841L66.3493 31.7842ZM95.6588 70.8102C95.5974 73.755 94.5545 76.393 92.4072 78.4789C91.9164 78.9697 91.3643 79.3991 90.8121 79.7672C87.3152 81.9145 83.6342 80.5648 82.3459 76.6384C81.7324 74.7366 81.6097 72.7734 82.0391 70.8102C82.3336 69.3378 82.7851 67.8653 83.2367 66.3929C83.3496 66.0248 83.4624 65.6568 83.5729 65.2887C83.6956 64.8593 83.941 64.4911 84.1863 64.123C85.5974 61.7918 87.1925 61.3623 89.6465 62.528C89.8191 62.602 89.9918 62.6859 90.1685 62.7717L90.1688 62.7719L90.169 62.772C90.4316 62.8996 90.7029 63.0315 90.9962 63.1415C92.7753 63.6936 93.941 64.8592 94.7385 66.4543C95.4134 67.804 95.7201 69.2764 95.6588 70.8102ZM31.9777 20.9328C31.9777 19.2764 32.1618 17.6813 32.8366 16.2089C33.7569 13.9389 35.4747 12.7733 37.9287 12.5892C44.125 12.2211 47.3152 18.4788 45.4747 23.2641C45.1679 24.0003 44.7998 24.6751 44.3704 25.2886C43.5115 26.4543 42.5912 27.6199 41.671 28.7242C39.5238 31.3009 37.1311 31.0555 34.8612 28.6629C32.6526 26.3929 32.0391 23.8163 31.9777 20.9328ZM91.6097 -2.31879C95.8428 -3.17768 98.8489 -6.79732 98.8489 -11.0918C98.8489 -13.3617 98.1127 -15.693 97.0084 -17.3495C94.9839 -20.1716 91.671 -20.8464 88.7262 -18.9446C87.1925 -17.963 86.1495 -16.6133 85.5974 -14.9568C84.8612 -12.7482 84.8612 -10.5397 85.536 -8.33106C86.1495 -6.42922 87.0698 -4.71143 88.5422 -3.36173C89.4011 -2.56419 90.3827 -2.07339 91.6097 -2.31879ZM163.389 70.9944C160.076 72.8349 158.42 75.7796 158.236 79.522C158.174 81.7919 159.217 83.4483 160.935 84.798C162.346 85.9023 163.88 86.3318 165.598 86.025C170.321 85.1662 173.634 79.7674 172.285 75.1661C171.119 71.1171 166.824 69.0312 163.389 70.9944ZM58.4195 -20.6623C58.4195 -17.3494 55.7814 -14.5887 52.2845 -14.2206C49.1557 -13.8525 46.2109 -15.9997 45.5974 -19.1899C45.0452 -22.0734 45.536 -24.8955 47.1311 -27.4108C47.6219 -28.147 48.3581 -28.8218 49.0943 -29.374C50.0146 -29.9875 50.9962 -29.9875 51.9778 -29.2513C52.5299 -28.8218 53.1127 -28.4077 53.6955 -27.9936C54.2784 -27.5795 54.8612 -27.1654 55.4133 -26.736C57.3765 -25.1409 58.2968 -23.055 58.4195 -20.6623ZM115.659 12.2829C114.064 13.9393 113.389 15.9025 113.389 18.1724C113.389 20.6878 114.432 23.0804 115.966 24.4301C117.745 25.9638 120.015 26.0865 121.548 24.4915C122.714 23.3258 123.696 21.9761 124.555 20.5651C125.597 18.8473 125.659 16.8841 125.229 14.9822C124.739 12.835 123.512 11.2399 121.303 10.6264C119.156 10.0743 117.193 10.6878 115.659 12.2829Z" fill="black"/>
</g>
</svg>
