<svg width="199" height="216" viewBox="0 0 199 216" fill="none" xmlns="http://www.w3.org/2000/svg">
<path d="M-165.395 215.31C-177.495 215.51 -189.395 214.11 -200.795 210.21C-207.695 207.91 -214.095 204.71 -219.495 199.71C-222.295 197.11 -224.595 194.21 -226.295 190.81C-227.995 187.31 -229.595 183.91 -231.295 180.41C-233.695 175.41 -234.995 170.11 -235.395 164.71C-235.795 159.61 -236.195 154.51 -235.895 149.41C-235.395 140.41 -233.295 131.71 -229.995 123.31C-227.695 117.41 -224.595 111.91 -221.295 106.51C-218.995 102.71 -216.695 99.01 -214.395 95.21C-207.795 84.11 -198.895 75.11 -188.795 67.21C-179.895 60.21 -170.295 54.31 -160.795 48.31C-134.795 32.21 -108.895 16.11 -82.7953 0.209991C-61.1953 -12.99 -40.7953 -27.89 -21.7953 -44.69C-8.09526 -56.89 5.50474 -69.09 19.2047 -81.29C31.0047 -91.79 43.2047 -101.99 56.4047 -110.79C71.2047 -120.59 86.5047 -129.39 103.005 -135.79C111.305 -139.09 119.805 -141.39 128.805 -141.89C137.505 -142.39 145.905 -141.19 154.005 -138.19C164.005 -134.59 171.205 -127.59 176.905 -118.99C183.405 -109.29 188.305 -98.89 192.005 -87.79C196.905 -72.99 198.705 -57.69 198.705 -42.19C198.705 -33.49 196.705 -25.09 193.905 -16.79C190.505 -6.49002 185.705 3.10999 179.805 12.21C168.105 30.21 153.905 46.01 137.605 60.11C123.405 72.31 108.105 82.81 91.9047 92.01C74.5047 101.81 56.7047 111.01 38.9047 119.91C20.2047 129.31 1.60475 138.91 -16.4953 149.61C-36.8953 161.61 -57.4952 173.31 -77.8952 185.21C-81.1952 187.11 -84.4953 189.21 -87.6953 191.21C-99.0953 198.11 -110.795 204.31 -123.495 208.41C-132.795 211.41 -142.195 213.91 -151.995 214.61C-156.595 215.01 -160.995 215.11 -165.395 215.31Z" fill="black"/>
<mask id="mask0_70_1037" style="mask-type:alpha" maskUnits="userSpaceOnUse" x="-236" y="-142" width="435" height="358">
<path d="M-165.395 215.31C-177.495 215.51 -189.395 214.11 -200.795 210.21C-207.695 207.91 -214.095 204.71 -219.495 199.71C-222.295 197.11 -224.595 194.21 -226.295 190.81C-227.995 187.31 -229.595 183.91 -231.295 180.41C-233.695 175.41 -234.995 170.11 -235.395 164.71C-235.795 159.61 -236.195 154.51 -235.895 149.41C-235.395 140.41 -233.295 131.71 -229.995 123.31C-227.695 117.41 -224.595 111.91 -221.295 106.51C-218.995 102.71 -216.695 99.01 -214.395 95.21C-207.795 84.11 -198.895 75.11 -188.795 67.21C-179.895 60.21 -170.295 54.31 -160.795 48.31C-134.795 32.21 -108.895 16.11 -82.7953 0.209991C-61.1953 -12.99 -40.7953 -27.89 -21.7953 -44.69C-8.09526 -56.89 5.50474 -69.09 19.2047 -81.29C31.0047 -91.79 43.2047 -101.99 56.4047 -110.79C71.2047 -120.59 86.5047 -129.39 103.005 -135.79C111.305 -139.09 119.805 -141.39 128.805 -141.89C137.505 -142.39 145.905 -141.19 154.005 -138.19C164.005 -134.59 171.205 -127.59 176.905 -118.99C183.405 -109.29 188.305 -98.89 192.005 -87.79C196.905 -72.99 198.705 -57.69 198.705 -42.19C198.705 -33.49 196.705 -25.09 193.905 -16.79C190.505 -6.49002 185.705 3.10999 179.805 12.21C168.105 30.21 153.905 46.01 137.605 60.11C123.405 72.31 108.105 82.81 91.9047 92.01C74.5047 101.81 56.7047 111.01 38.9047 119.91C20.2047 129.31 1.60475 138.91 -16.4953 149.61C-36.8953 161.61 -57.4952 173.31 -77.8952 185.21C-81.1952 187.11 -84.4953 189.21 -87.6953 191.21C-99.0953 198.11 -110.795 204.31 -123.495 208.41C-132.795 211.41 -142.195 213.91 -151.995 214.61C-156.595 215.01 -160.995 215.11 -165.395 215.31Z" fill="black"/>
</mask>
<g mask="url(#mask0_70_1037)">
<path d="M265.305 -25.09C263.805 -24.99 262.705 -24.79 261.605 -24.89C257.705 -24.99 253.805 -25.19 249.905 -25.29C228.005 -25.59 206.505 -22.69 185.605 -16.39C156.305 -7.49 127.905 3.71 101.705 19.81C60.1047 45.51 24.1047 77.41 -4.89529 117.01C-23.8953 143.01 -41.8953 169.81 -58.7953 197.21C-73.7953 221.41 -89.6953 245.01 -107.295 267.41C-112.095 273.61 -116.995 279.71 -122.695 285.11C-125.395 287.71 -128.395 290.01 -131.395 292.21C-132.895 293.31 -134.795 294.11 -136.595 294.71C-141.095 296.11 -144.995 294.61 -146.995 290.31C-148.095 288.01 -148.895 285.31 -149.195 282.81C-149.695 278.91 -149.895 275.01 -149.695 271.11C-147.495 239.01 -139.995 208.11 -126.495 178.81C-118.195 160.81 -107.595 144.11 -95.8953 128.11C-75.7953 100.61 -52.4953 76.11 -26.9953 53.61C6.6047 23.91 43.9047 -0.190002 84.2047 -19.69C105.905 -30.19 127.705 -40.19 149.505 -50.49C165.805 -58.19 181.905 -66.19 197.205 -75.59C209.105 -82.89 220.405 -90.99 230.305 -100.89C234.405 -104.99 238.305 -109.39 241.505 -114.29C244.405 -118.69 246.805 -123.39 247.705 -128.69C248.205 -131.69 248.205 -134.69 247.005 -137.69C245.905 -140.59 243.905 -142.69 241.105 -143.99C238.405 -145.29 235.505 -145.79 232.505 -145.99C223.505 -146.39 214.905 -144.49 206.505 -141.39C195.005 -137.09 184.305 -131.19 173.705 -125.09C152.705 -112.99 132.705 -99.29 113.305 -84.69C90.4047 -67.39 66.8047 -51.29 42.4047 -36.29C29.1047 -28.09 16.0047 -19.69 2.70471 -11.59C-26.2953 6.11 -52.5953 27.21 -76.2953 51.71C-96.5953 72.71 -115.095 95.11 -132.195 118.71C-141.495 131.41 -150.395 144.41 -159.395 157.41C-175.095 179.91 -191.295 202.11 -209.095 223.01C-219.695 235.51 -230.895 247.51 -243.495 258.11C-251.895 265.21 -260.695 271.71 -270.395 276.81C-273.995 278.71 -277.595 280.31 -281.595 281.11C-284.295 281.61 -286.995 281.81 -289.695 281.21C-294.095 280.21 -297.395 277.71 -299.595 273.91C-301.895 270.01 -302.795 265.71 -302.995 261.31C-303.395 253.11 -301.395 245.31 -298.395 237.71C-294.795 228.41 -289.695 219.91 -283.995 211.81C-276.995 201.91 -269.095 192.81 -260.495 184.31C-229.995 154.11 -201.295 122.31 -173.295 89.81C-154.395 68.01 -134.195 47.51 -112.195 28.91C-92.6953 12.41 -71.7953 -2.29 -50.3953 -16.09C-10.9953 -41.39 29.3047 -64.99 70.8047 -86.69C90.5047 -96.99 109.905 -107.79 128.605 -119.79C140.505 -127.49 152.105 -135.59 162.705 -145.09C168.405 -150.19 173.605 -155.69 178.105 -161.79C183.405 -168.99 187.505 -176.79 189.805 -185.49C191.405 -191.69 191.505 -197.79 189.605 -203.99C187.205 -212.99 181.105 -217.99 172.005 -218.89C164.605 -219.69 157.505 -218.39 150.605 -215.69C142.105 -212.39 134.605 -207.39 127.405 -201.79C117.605 -194.19 108.605 -185.69 99.7047 -176.99C83.4047 -161.09 68.2047 -144.09 53.0047 -127.09C43.3047 -116.29 33.6047 -105.39 23.7047 -94.69C5.40471 -75.19 -14.5953 -57.49 -35.5953 -40.89C-64.9953 -17.69 -95.0953 4.51 -125.695 26.11C-139.395 35.81 -153.995 44.11 -168.595 52.51C-181.995 60.31 -195.495 68.01 -208.295 76.81C-220.395 85.21 -231.895 94.41 -241.695 105.51C-250.595 115.51 -258.095 126.51 -262.995 139.11C-265.295 144.91 -266.995 150.91 -267.195 157.21C-267.295 160.41 -266.995 163.61 -265.995 166.71C-265.395 168.51 -264.495 170.11 -262.495 171.01C-262.995 171.01 -263.395 171.21 -263.895 171.11C-265.295 170.71 -266.195 169.61 -266.695 168.31C-267.495 166.01 -268.295 163.61 -268.595 161.21C-269.295 155.11 -268.195 149.31 -266.395 143.51C-262.795 131.91 -256.895 121.51 -249.595 111.91C-238.995 97.91 -225.995 86.61 -211.695 76.51C-199.095 67.61 -185.795 59.71 -172.395 52.11C-154.195 41.71 -136.295 30.91 -119.395 18.51C-108.295 10.41 -97.2953 2.20999 -86.1953 -5.99001C-66.9953 -20.19 -47.8953 -34.59 -29.3953 -49.79C-4.19529 -70.39 18.8047 -93.19 40.4047 -117.59C54.7047 -133.89 69.4047 -149.79 84.2047 -165.69C95.4047 -177.79 107.405 -189.09 120.105 -199.69C126.105 -204.69 132.305 -209.29 139.005 -213.19C146.005 -217.19 153.305 -220.29 161.405 -221.29C165.705 -221.79 170.005 -221.89 174.305 -221.09C182.805 -219.49 188.605 -214.59 191.505 -206.49C194.405 -198.59 194.205 -190.69 191.805 -182.69C189.105 -173.69 184.605 -165.59 178.905 -158.19C172.605 -150.09 165.205 -143.19 157.305 -136.79C144.405 -126.39 130.505 -117.39 116.305 -108.79C99.3047 -98.49 81.7047 -89.19 64.1047 -79.89C24.0047 -58.69 -15.0953 -35.79 -53.1953 -11.09C-73.8953 2.31 -93.9953 16.71 -112.795 32.81C-132.995 50.11 -151.595 69.01 -169.195 89.01C-184.395 106.31 -199.695 123.51 -215.095 140.71C-228.495 155.71 -242.895 169.71 -257.095 183.91C-265.095 191.91 -272.795 200.31 -279.695 209.41C-286.795 218.91 -292.995 228.91 -297.095 240.21C-299.095 245.91 -300.595 251.71 -300.895 257.71C-301.095 261.21 -300.795 264.71 -299.795 268.11C-297.195 277.21 -290.395 281.31 -281.295 278.81C-277.995 277.91 -274.795 276.51 -271.795 275.01C-260.695 269.31 -250.995 261.61 -241.695 253.31C-227.895 241.11 -215.995 227.51 -204.495 213.51C-186.895 192.01 -170.895 169.31 -155.195 146.41C-141.195 125.81 -126.695 105.61 -110.995 86.31C-91.8953 62.91 -71.0953 41.11 -48.1953 21.31C-31.5953 7.01 -13.4953 -5.18999 5.0047 -16.79C28.3047 -31.39 51.5047 -46.09 74.6047 -61.09C84.8047 -67.79 94.7047 -75.09 104.505 -82.39C121.405 -94.89 138.405 -107.29 156.305 -118.39C167.705 -125.39 179.305 -132.19 191.405 -138.09C199.205 -141.89 207.105 -145.29 215.605 -147.19C222.305 -148.79 229.105 -149.59 236.105 -148.39C236.905 -148.29 237.705 -148.09 238.405 -147.89C248.905 -145.29 251.405 -137.09 250.605 -129.69C250.005 -124.29 247.905 -119.29 245.205 -114.69C240.805 -107.39 235.205 -101.09 228.905 -95.29C219.105 -86.19 208.205 -78.49 196.705 -71.49C181.605 -62.39 165.905 -54.59 150.005 -47.09C127.305 -36.39 104.505 -25.79 82.0047 -14.89C56.6047 -2.49 32.1047 11.61 9.30469 28.41C-26.3953 54.61 -58.5953 84.51 -85.8953 119.61C-95.7953 132.41 -104.995 145.71 -113.195 159.61C-126.795 182.71 -136.095 207.41 -141.695 233.61C-143.995 244.21 -145.895 254.91 -146.695 265.81C-147.195 271.91 -147.595 277.91 -146.395 284.01C-145.995 285.91 -145.495 287.71 -144.595 289.41C-142.995 292.51 -140.495 293.61 -137.195 292.41C-135.295 291.81 -133.495 290.81 -131.895 289.71C-127.895 287.01 -124.295 283.71 -121.295 280.11C-115.195 272.81 -109.095 265.51 -103.395 257.91C-86.7953 236.11 -71.9953 213.11 -57.6953 189.81C-42.2953 164.91 -25.8953 140.61 -8.79529 116.91C13.5047 85.91 40.4047 59.61 70.8047 36.61C108.005 8.61002 149.405 -10.29 194.305 -22.19C208.305 -25.89 222.505 -27.79 237.005 -28.09C246.205 -28.29 255.405 -27.59 264.405 -25.69C264.505 -25.69 264.605 -25.49 265.305 -25.09Z" fill="#27DAB7"/>
</g>
<path fill-rule="evenodd" clip-rule="evenodd" d="M115.452 128.987C115.486 128.746 115.521 128.608 115.555 128.47C116.21 128.573 116.52 128.815 116.451 129.47C116.417 129.952 116.244 130.435 116.072 130.883C115.944 131.202 115.778 131.495 115.612 131.785L115.612 131.785C115.509 131.966 115.406 132.146 115.314 132.33C114.9 133.054 114.349 133.675 113.556 134.019C112.246 134.605 111.005 133.951 110.729 132.572C110.454 131.262 110.626 130.056 111.591 129.056C112.832 127.677 114.073 127.643 115.452 128.987ZM48.0997 132.675C48.4444 130.814 47.307 129.401 45.2733 129.401C45.1699 129.401 44.9976 129.401 44.7907 129.435C41.1026 130.09 39.4826 133.089 39 136.019V136.088C39 136.811 39.3792 137.156 40.1375 137.26C40.3098 137.26 40.5166 137.328 40.6545 137.432C41.5162 138.156 42.4813 138.156 43.4465 137.777C44.8252 137.26 45.9971 136.363 46.8933 135.191C47.4448 134.433 47.9274 133.606 48.0997 132.675ZM84.3304 129.656C84.2229 129.666 84.1012 129.676 83.9472 129.676C83.1889 129.607 82.3961 129.849 81.6722 130.4C80.3969 131.296 79.3284 132.434 78.6045 133.813C78.3977 134.226 78.2254 134.674 78.1564 135.122C77.9841 136.157 78.6735 136.708 79.7075 136.432C79.8108 136.404 79.9135 136.374 80.0159 136.344C80.665 136.154 81.3024 135.967 82.0169 136.294C82.2927 136.398 82.6718 136.329 82.9821 136.225C83.3612 136.088 83.7404 135.915 84.0851 135.674C85.7051 134.605 86.1876 132.985 86.1876 131.159C86.1876 130.262 85.4983 129.676 84.5676 129.642C84.4915 129.642 84.4154 129.649 84.3304 129.656ZM61.7838 137.742C61.7432 137.756 61.7013 137.769 61.6586 137.783C61.4836 137.839 61.2951 137.9 61.1289 137.983C60.5085 138.294 60.0259 138.052 59.957 137.363C59.9225 137.122 59.957 136.846 60.0259 136.639C60.405 135.226 60.9221 133.847 61.7493 132.641C61.9217 132.365 62.1285 132.089 62.3698 131.882C62.5766 131.676 62.8523 131.469 63.0936 131.365C63.4038 131.262 63.7485 131.159 64.0587 131.193C64.1939 131.21 64.3292 131.226 64.4642 131.242C65.1555 131.324 65.8428 131.405 66.506 131.607C66.9196 131.71 67.1609 132.193 67.2298 132.641C67.2643 132.985 67.2988 133.365 67.2298 133.709C66.9886 135.226 65.1273 137.26 63.5762 137.328C63.4383 137.328 63.3004 137.39 63.1625 137.451C63.0936 137.482 63.0247 137.512 62.9557 137.535C62.5766 137.673 62.1974 137.811 61.8183 137.914C61.8183 137.9 61.8123 137.88 61.8054 137.856C61.7956 137.823 61.7838 137.782 61.7838 137.742ZM94.1154 145.153C94.7014 143.395 93.8741 141.74 92.1162 141.361C91.7371 140.293 90.9788 140.017 90.1171 140.672C89.7379 140.948 89.4277 141.361 89.1519 141.775C88.2213 143.188 88.4281 144.739 88.7038 146.256C88.7728 146.669 89.083 146.945 89.4622 147.083C89.5655 147.118 89.6689 147.143 89.7723 147.169L89.7724 147.169L89.7724 147.169C89.8758 147.195 89.9792 147.221 90.0826 147.255C91.9094 147.772 93.495 146.945 94.1154 145.153ZM46.8244 148.117C46.8244 146.187 48.0652 144.291 49.7197 143.567C49.961 143.464 50.1678 143.292 50.3747 143.085C51.3742 142.223 52.5806 142.568 52.8909 143.878C52.9598 144.257 52.9598 144.636 52.8909 145.015C52.5806 146.669 51.7534 148.117 50.5815 149.324C50.3402 149.565 50.03 149.806 49.7197 149.978C48.3755 150.702 46.9967 149.978 46.8244 148.427V148.117ZM98.1138 130.021C96.9074 130.331 95.4942 132.089 95.5286 133.537C95.5286 134.812 96.3214 135.708 97.4244 135.639C97.838 135.617 98.2517 135.563 98.6653 135.509C98.8721 135.482 99.0789 135.456 99.2857 135.433C99.446 135.433 99.5856 135.371 99.7205 135.311C99.7597 135.293 99.7985 135.276 99.8372 135.26C101.044 134.709 102.216 132.779 102.147 131.469C102.112 130.4 101.354 129.676 100.285 129.711C99.5615 129.711 98.8376 129.849 98.1138 130.021ZM73.0702 140.895L73.0702 140.895L73.0702 140.895C73.1304 141.199 73.1929 141.515 73.1929 141.809C73.1929 142.189 73.2619 142.533 73.4687 142.912C73.641 143.223 73.71 143.602 73.7444 143.946C73.8134 145.601 72.0899 147.393 70.401 147.393C69.2635 147.393 68.2984 146.566 68.0571 145.429C67.7469 144.05 68.5052 142.223 69.7461 141.465C70.2286 141.154 70.7457 141.051 71.2627 141.43C71.6763 141.74 71.8142 141.672 72.1244 141.258L72.7449 140.534C72.8483 140.603 72.9517 140.637 73.0206 140.637C73.0359 140.722 73.053 140.808 73.0702 140.895ZM120.407 151.886C119.848 152.276 119.326 152.641 118.554 152.564C118.244 151.702 117.726 151.219 116.865 151.288C116.727 151.288 116.555 151.15 116.451 151.047C116.003 150.599 115.52 150.633 115.003 150.84C113.487 151.495 112.625 153.667 113.314 155.183C113.9 156.493 115.383 156.941 116.555 156.114C116.865 155.907 117.141 155.631 117.382 155.321C117.726 154.908 118.071 154.632 118.623 154.459C119.795 154.115 120.622 153.287 121.001 152.116C121.023 152.006 121.017 151.897 121.01 151.762C121.006 151.684 121.001 151.596 121.001 151.495C120.791 151.617 120.597 151.753 120.407 151.885L120.407 151.886ZM84.2746 154.08C84.4211 154.046 84.5676 154.011 84.7055 153.977C84.7055 153.908 84.7055 153.839 84.74 153.736C83.7748 153.115 82.7063 153.012 81.6033 153.322L81.5469 153.336C81.158 153.434 80.8261 153.518 80.4314 153.287C79.9143 153.012 79.3629 153.115 78.8458 153.425C77.5705 154.149 76.8466 156.148 77.3981 157.527C77.5705 158.01 77.8807 158.389 78.3633 158.458C79.1216 158.596 79.9143 158.596 80.5693 158.079C81.3965 157.424 82.0169 156.596 82.0859 155.528C82.1548 154.976 82.3961 154.666 82.8442 154.494C83.1544 154.39 83.499 154.287 83.8436 154.184L83.8438 154.184C83.9817 154.149 84.1282 154.115 84.2746 154.08ZM62.3353 159.078C62.2215 159.028 62.1124 158.982 62.0062 158.937C61.8228 158.86 61.6482 158.786 61.4736 158.699C61.2668 159.026 61.0599 159.345 60.8531 159.664C60.6463 159.983 60.4395 160.302 60.2327 160.629C59.8535 161.215 59.3365 161.629 58.5782 161.491C57.8199 161.353 57.2684 160.871 57.1305 160.078C57.0616 159.63 57.0616 159.147 57.1305 158.699C57.3029 157.699 57.751 156.803 58.4748 156.079C59.5089 155.045 60.5774 155.114 61.4391 156.252C61.508 156.355 61.6114 156.459 61.7149 156.562C62.68 157.355 62.7834 157.803 62.3353 159.078ZM44.7507 158.866C44.7964 158.782 44.8453 158.693 44.8941 158.596C44.8468 158.558 44.7968 158.52 44.745 158.481L44.7449 158.481L44.7449 158.48C44.6081 158.377 44.4581 158.263 44.3082 158.113C43.5498 157.286 42.9294 157.148 41.9298 157.665C40.7234 158.32 39.8962 159.251 39.6549 160.629C39.5515 161.25 39.5515 161.87 39.9651 162.422C40.8613 163.594 43.1018 163.525 43.7222 162.111C43.8945 161.698 44.0669 161.25 44.2048 160.802C44.277 160.549 44.3304 160.286 44.3846 160.019C44.4338 159.777 44.4838 159.531 44.5494 159.285C44.594 159.151 44.6672 159.018 44.7507 158.866ZM108.799 137.88C109.626 138.121 110.074 138.983 109.833 139.707C109.661 140.258 109.523 140.81 109.454 141.361C109.282 142.602 108.661 143.533 107.627 144.153C106.662 144.739 105.628 144.291 105.214 143.223C104.973 142.568 105.008 141.913 105.214 141.292C105.697 139.914 106.662 138.948 108.041 138.535C108.454 138.431 108.73 138.294 108.799 137.88ZM102.112 156.045C102.56 154.942 102.422 153.942 101.457 153.012C101.699 152.598 101.733 152.184 101.423 151.874C101.044 151.495 100.596 151.495 100.113 151.633C99.9751 151.667 99.8372 151.736 99.7338 151.805C98.493 152.495 97.7002 154.149 97.907 155.528C98.0449 156.562 98.7342 157.286 99.596 157.389C100.664 157.527 101.733 156.941 102.112 156.045Z" fill="black"/>
</svg>
