<svg width="115" height="181" viewBox="0 0 115 181" fill="none" xmlns="http://www.w3.org/2000/svg">
<path d="M229.921 76.4347C229.995 91.1982 228.66 102.326 225.247 113.084C220.128 129.331 210.78 142.759 197.798 153.591C182.515 166.351 165.08 174.734 145.495 178.444C136.295 180.15 127.022 180.447 117.674 179.482C104.914 178.221 92.3017 175.847 80.0606 171.841C74.5707 169.986 69.0808 167.983 63.7392 165.757C56.6913 162.938 50.3111 159.006 44.3019 154.407C39.1087 150.4 34.0639 146.32 29.4642 141.646C23.6033 135.711 18.7069 129.108 15.0717 121.69C9.87849 111.155 5.57557 100.323 2.75641 88.8984C1.5694 84.0761 0.901704 79.1055 0.604951 74.1349C0.234009 68.4224 -0.0627439 62.6357 0.0114444 56.9232C0.159821 43.7919 4.0918 31.625 10.3978 20.1258C17.8908 6.40095 28.5739 -4.43055 41.5569 -12.9622C44.8212 -15.1137 47.9371 -17.4135 50.9788 -19.9359C60.0298 -27.5773 69.5259 -34.551 79.6155 -40.7828C94.8241 -50.0564 111.146 -56.3624 128.728 -59.4783C137.408 -60.962 146.162 -61.5556 154.917 -60.3685C169.235 -58.3655 180.512 -51.5401 188.376 -39.2249C191.64 -34.0317 194.088 -28.4676 196.24 -22.6809C197.352 -19.6392 198.391 -16.6716 199.43 -13.6299C202.471 -4.87568 206.032 3.65598 210.261 11.8909C213.08 17.3808 215.751 22.9449 218.496 28.4349C226.434 44.6821 230.218 61.8938 229.921 76.4347Z" fill="#FF90E7"/>
<mask id="mask0_70_1006" style="mask-type:alpha" maskUnits="userSpaceOnUse" x="0" y="-61" width="230" height="242">
<path d="M229.921 76.4347C229.995 91.1982 228.66 102.326 225.247 113.084C220.128 129.331 210.78 142.759 197.798 153.591C182.515 166.351 165.08 174.734 145.495 178.444C136.295 180.15 127.022 180.447 117.674 179.482C104.914 178.221 92.3017 175.847 80.0606 171.841C74.5707 169.986 69.0808 167.983 63.7392 165.757C56.6913 162.938 50.3111 159.006 44.3019 154.407C39.1087 150.4 34.0639 146.32 29.4642 141.646C23.6033 135.711 18.7069 129.108 15.0717 121.69C9.87849 111.155 5.57557 100.323 2.75641 88.8984C1.5694 84.0761 0.901704 79.1055 0.604951 74.1349C0.234009 68.4224 -0.0627439 62.6357 0.0114444 56.9232C0.159821 43.7919 4.0918 31.625 10.3978 20.1258C17.8908 6.40095 28.5739 -4.43055 41.5569 -12.9622C44.8212 -15.1137 47.9371 -17.4135 50.9788 -19.9359C60.0298 -27.5773 69.5259 -34.551 79.6155 -40.7828C94.8241 -50.0564 111.146 -56.3624 128.728 -59.4783C137.408 -60.962 146.162 -61.5556 154.917 -60.3685C169.235 -58.3655 180.512 -51.5401 188.376 -39.2249C191.64 -34.0317 194.088 -28.4676 196.24 -22.6809C197.352 -19.6392 198.391 -16.6716 199.43 -13.6299C202.471 -4.87568 206.032 3.65598 210.261 11.8909C213.08 17.3808 215.751 22.9449 218.496 28.4349C226.434 44.6821 230.218 61.8938 229.921 76.4347Z" fill="black"/>
</mask>
<g mask="url(#mask0_70_1006)">
<path d="M108.133 -172.245C107.094 -171.948 105.981 -171.651 104.943 -171.354C98.4884 -169.796 92.9985 -166.532 88.0279 -162.303C81.2025 -156.442 75.3417 -149.691 69.7775 -142.643C59.6879 -129.66 50.7853 -115.787 42.4762 -101.617C24.8936 -71.4968 9.46243 -40.3377 -3.44634 -7.91737C-9.3814 6.92029 -13.7585 22.2773 -16.4293 38.0794C-18.7291 51.6558 -19.6936 65.3065 -18.9517 79.0313C-18.1356 95.5753 -15.0939 111.674 -8.63952 126.957C-4.11403 137.788 1.89522 147.656 9.98175 156.261C10.7236 157.003 11.4655 157.745 12.2816 158.487C12.3558 158.561 12.5042 158.561 12.8009 158.561C12.5783 156.855 12.43 155.297 12.2074 153.665C11.3913 146.617 11.4655 139.569 12.1332 132.521C12.9493 123.767 14.804 115.161 17.4006 106.778C17.6231 106.036 17.6231 105.146 17.4006 104.33C14.7298 92.2369 13.7654 80.07 14.3589 67.7547C15.5459 42.4565 22.4454 18.642 34.0188 -3.68864C50.8595 -36.1089 74.303 -62.7425 104.72 -83.1443C115.923 -90.6374 127.793 -97.0175 140.627 -101.395C144.559 -102.73 148.64 -103.62 152.646 -104.585C153.907 -104.882 155.242 -104.882 156.504 -104.882C157.023 -104.882 157.617 -104.659 158.136 -104.511C158.136 -104.362 158.136 -104.288 158.136 -104.14C157.839 -103.991 157.468 -103.694 157.171 -103.694C145.524 -102.507 134.915 -98.1304 124.603 -92.863C106.872 -83.8862 91.218 -72.0161 77.1222 -58.0687C57.1655 -38.3346 41.2892 -15.7071 30.2352 10.1104C23.855 24.9481 19.7004 40.305 17.6973 56.3297C15.991 70.4997 16.1394 84.5955 18.6618 98.6913C18.8102 99.3589 18.9585 99.9524 19.1069 100.991C19.4037 100.323 19.6262 99.9524 19.7746 99.5815C25.3387 84.9664 32.9801 71.6125 42.6988 59.3714C43.3665 58.4812 43.5149 57.6651 43.5149 56.6265C43.3665 51.5075 42.9214 46.3885 43.2923 41.3437C45.0728 14.9326 54.6431 -8.06576 74.0063 -26.5386C83.7249 -35.738 95.0758 -42.1182 108.133 -45.0857C122.303 -48.2758 135.954 -47.0146 148.862 -39.9667C150.791 -38.9281 152.646 -37.6669 154.575 -36.4799C156.726 -37.5185 158.952 -38.5571 161.252 -39.5958C161.994 -39.8925 161.919 -40.5602 161.919 -41.0796C161.994 -43.602 162.068 -46.1985 162.068 -48.721C161.919 -58.9589 161.994 -69.2711 161.548 -79.5091C161.103 -92.0469 159.991 -104.585 157.468 -116.974C155.984 -124.393 153.685 -131.515 150.42 -138.415C150.123 -139.008 149.901 -139.602 149.901 -140.269C150.123 -139.898 150.42 -139.527 150.569 -139.157C154.723 -131.07 157.468 -122.538 159.174 -113.636C161.103 -103.694 162.142 -93.6791 162.81 -83.6636C163.774 -70.1614 163.848 -56.6591 163.7 -43.0826C163.7 -42.4891 163.7 -41.8956 163.7 -41.3021C163.7 -41.2279 163.774 -41.0795 163.923 -40.857C164.59 -41.0795 165.332 -41.3021 166.074 -41.5989C174.235 -44.5664 182.618 -46.2727 191.372 -45.976C212.59 -45.3825 228.911 -35.8864 240.411 -18.0812C246.346 -8.80763 249.536 1.43036 250.649 12.336C252.503 30.067 248.794 46.8336 241.227 62.7841C239.001 67.458 236.256 71.9093 233.585 76.4348C232.992 77.5476 232.843 78.3636 233.214 79.5507C236.479 89.4919 237.295 99.7299 236.182 110.116C233.808 132.892 224.46 152.7 210.068 170.283C201.017 181.263 190.408 190.388 177.796 197.065C169.561 201.442 160.807 204.41 151.459 205.3C140.479 206.338 129.944 204.558 120.077 199.365C118.816 198.697 117.926 198.771 116.739 199.513C106.872 205.968 96.2628 210.419 84.6152 212.348C69.7033 214.796 55.385 213.09 42.1795 205.3C30.8287 198.623 23.0389 188.83 17.8457 176.812C16.1394 172.805 14.804 168.725 13.8395 164.496C13.617 163.606 13.3944 162.864 12.6525 162.196C2.0436 152.552 -5.52361 140.83 -11.0135 127.699C-15.539 116.793 -18.3582 105.442 -19.9903 93.7206C-21.9192 80.07 -21.9934 66.4193 -20.7322 52.6945C-18.6549 30.5864 -13.0166 9.4427 -4.63335 -11.0333C10.2785 -47.4597 27.8611 -82.5508 48.8564 -115.861C56.4236 -127.88 64.5843 -139.453 73.9321 -150.211C78.0124 -154.884 82.3895 -159.187 87.1376 -163.194C93.3694 -168.016 100.195 -171.354 108.133 -172.245ZM231.508 74.8026C231.656 74.8026 231.879 74.8768 232.027 74.8768C232.398 74.3575 232.769 73.8382 233.066 73.3188C235.292 69.2385 237.666 65.3065 239.669 61.0778C247.088 45.1273 250.649 28.4349 248.423 10.7781C246.939 -0.795298 243.081 -11.4784 236.034 -20.8261C225.202 -35.2187 210.81 -42.9343 192.782 -43.7503C183.211 -44.1955 174.012 -42.2666 165.11 -38.8539C164.145 -38.483 163.848 -37.9636 163.848 -36.9992C163.848 -34.4768 163.774 -32.0286 163.626 -29.5062C163.552 -28.5417 163.923 -27.7998 164.516 -27.1321C168.671 -22.3099 171.861 -16.9684 174.383 -11.1075C176.905 -5.32078 178.612 0.688472 179.65 6.92029C179.799 7.88474 180.17 8.47825 181.208 8.775C182.395 9.07175 183.582 9.59107 184.695 10.0362C196.194 14.4875 206.358 21.0161 214.519 30.3638C224.831 42.1597 229.876 56.1072 230.84 71.6125C230.989 72.6512 231.36 73.764 231.508 74.8026ZM152.275 -34.9961C152.127 -35.2187 152.052 -35.2929 151.978 -35.3671C151.83 -35.5154 151.607 -35.6638 151.385 -35.8122C143.521 -41.0054 134.915 -43.8245 125.493 -44.418C113.4 -45.0857 102.049 -42.1924 91.4405 -36.4799C77.8641 -29.1352 67.4777 -18.5263 59.6879 -5.32078C48.9306 12.8554 44.4051 32.5895 45.518 53.6589C45.518 54.2524 45.6663 54.7717 45.7405 55.3653C45.9631 55.2911 46.1115 55.2911 46.1856 55.2169C46.5566 54.846 46.9275 54.4008 47.2243 54.0299C63.0264 35.9279 81.796 21.8321 104.201 12.8554C105.091 12.4844 105.61 11.8909 106.13 11.149C109.023 6.92029 111.842 2.54318 114.958 -1.53717C125.048 -14.8169 136.992 -26.0935 151.459 -34.4768C151.756 -34.6994 151.978 -34.8477 152.275 -34.9961ZM231.286 80.9602C231.137 80.9602 231.063 81.0344 230.915 81.0344C230.84 81.5537 230.692 82.0731 230.692 82.5924C230.395 86.8211 229.728 90.9756 228.615 95.056C221.864 120.725 206.952 140.385 184.547 154.407C174.161 160.861 162.81 164.719 150.42 164.645C149.456 164.645 149.085 165.164 148.714 165.906C142.111 177.924 133.134 187.94 122.154 196.175C121.709 196.471 121.338 196.842 120.819 197.288C121.487 197.658 122.006 197.955 122.525 198.178C133.209 203.445 144.485 204.706 156.133 202.555C166.297 200.7 175.57 196.546 184.176 190.833C198.939 181.04 210.587 168.28 219.564 153.145C228.541 137.937 233.956 121.541 234.476 103.81C234.698 96.614 233.808 89.4919 231.805 82.5182C231.656 81.9247 231.508 81.4054 231.286 80.9602ZM179.28 44.9789C179.131 45.5724 179.057 45.8692 178.983 46.1659C177.573 53.7331 175.57 61.2261 173.048 68.4966C168.745 81.1828 163.106 93.2755 156.43 104.849C155.91 105.739 155.613 106.481 155.91 107.52C157.839 113.974 158.804 120.577 158.729 127.328C158.729 127.773 158.804 128.218 158.878 128.663C159.1 128.663 159.249 128.738 159.323 128.738C159.842 128.589 160.361 128.515 160.881 128.292C187.44 120.354 208.955 105.146 226.018 83.4085C228.615 80.07 228.541 80.07 228.615 75.8412C228.615 74.6542 228.541 73.5414 227.947 72.4286C219.044 55.2911 204.949 46.0917 185.66 44.9789C183.657 44.8305 181.505 44.9789 179.28 44.9789ZM125.641 71.4641C126.161 70.8706 126.606 70.3513 127.125 69.832C134.099 62.1164 142.111 55.8104 151.31 50.9881C152.498 50.3946 154.055 49.9495 154.723 48.9109C155.391 47.8722 155.317 46.3143 155.465 44.9789C156.8 33.3313 158.062 21.6096 159.323 9.96202C159.471 8.775 159.471 7.5138 159.545 6.17841C159.1 6.10422 158.804 6.03003 158.581 5.95584C156.059 5.80746 153.462 5.5849 150.94 5.5849C136.399 5.43652 122.451 8.1073 108.801 13.0037C107.614 13.4489 106.798 14.1166 106.204 15.2294C95.7434 33.1088 88.473 52.1752 84.1701 72.4286C84.0959 72.7995 84.0959 73.2447 84.0217 73.8382C97.6723 67.2354 111.397 65.6774 125.641 71.4641ZM103.459 15.6003C103.385 15.5261 103.311 15.4519 103.236 15.3778C102.569 15.6745 101.901 15.8971 101.308 16.1938C90.6245 20.8677 80.609 26.8028 71.4097 33.9248C62.5071 40.7502 54.4947 48.4658 47.2985 56.9974C46.4082 58.036 46.1115 59.0747 46.334 60.4101C46.5566 61.6713 46.7792 63.0067 47.0017 64.2679C48.8564 74.6542 52.3433 84.4471 57.6848 93.4981C57.9816 94.0174 58.3525 94.5367 58.7235 95.2044C59.0944 94.7593 59.3912 94.5367 59.5395 94.24C65.4004 86.9695 72.2258 80.8119 80.3123 75.9896C81.1283 75.5445 81.4251 74.8768 81.5735 74.0607C85.728 53.8073 92.7017 34.5925 102.94 16.639C103.162 16.268 103.311 15.8971 103.459 15.6003ZM150.494 162.493C151.311 162.493 151.756 162.493 152.201 162.493C159.916 162.271 167.187 160.342 174.235 157.3C185.437 152.404 195.007 145.207 203.317 136.305C215.483 123.248 223.793 108.187 227.279 90.6047C227.65 88.8984 227.873 87.1921 228.095 85.5599C209.697 108.187 186.773 123.767 158.804 131.557C158.062 142.314 155.317 152.478 150.494 162.493ZM16.7329 165.609C16.8071 166.203 16.8813 166.499 16.9554 166.796C17.9199 169.689 18.8102 172.583 19.923 175.328C24.8936 187.198 32.6092 196.842 43.8116 203.371C56.1269 210.567 69.4066 212.348 83.354 210.196C94.8532 208.49 105.388 204.113 115.107 197.955C115.478 197.733 115.774 197.436 116.219 197.065C114.365 195.73 112.584 194.543 110.804 193.281C108.133 194.988 105.24 195.433 102.272 195.359C100.417 195.284 98.5626 195.21 96.7821 194.913C84.6894 192.91 73.7095 188.237 64.2876 180.298C63.5457 179.705 62.878 179.408 61.9136 179.557C56.7204 180.076 51.453 179.705 46.334 178.889C35.9477 177.108 26.6741 172.88 18.2167 166.648C17.8457 166.351 17.4006 166.054 16.7329 165.609ZM107.762 130.295C105.759 119.761 106.723 109.745 109.765 99.8782C112.807 90.0112 117.852 81.1828 124.232 73.2446C124.083 73.0221 124.009 72.8737 123.935 72.8737C123.712 72.7253 123.49 72.6511 123.267 72.577C118.668 70.7222 113.845 69.6836 108.875 69.5352C100.269 69.2385 92.1824 71.4641 84.541 75.3219C83.6507 75.7671 83.2056 76.3606 83.1314 77.325C82.4637 82.5182 81.4993 87.7856 80.98 92.9787C80.0897 100.917 79.793 108.855 80.2381 116.793C80.3123 117.906 80.6832 118.5 81.5735 119.093C85.6538 121.764 89.8826 124.064 94.4081 125.993C98.6368 127.699 102.94 129.183 107.762 130.295ZM44.1826 146.617C44.3309 146.543 44.4051 146.469 44.5535 146.469C41.8827 128.292 46.8533 112.119 57.1655 97.2817C50.1918 86.2276 46.0373 74.2091 44.1084 61.0778C43.5149 61.8196 43.1439 62.1906 42.8472 62.5615C41.1408 64.8614 39.4345 67.1612 37.8766 69.461C30.6803 80.07 24.9678 91.4208 20.6649 103.513C20.2939 104.626 20.2197 105.665 20.5165 106.778C21.8519 111.674 23.484 116.571 25.4871 121.244C28.974 129.257 33.5736 136.601 39.8055 142.759C41.2892 144.095 42.773 145.282 44.1826 146.617ZM84.7636 154.407C84.6152 153.813 84.4668 153.368 84.3184 152.923C80.98 142.462 79.0511 131.779 78.3092 120.799C78.235 119.687 77.7157 119.093 76.8996 118.5C70.0743 113.381 64.1392 107.297 59.2428 100.323C58.946 99.8783 58.5751 99.5073 58.2042 99.0622C57.8332 99.5815 57.4623 100.027 57.1655 100.472C53.3819 106.184 50.4144 112.342 48.4855 118.945C45.7405 128.218 44.9244 137.566 46.705 147.062C46.9275 148.249 47.4469 148.917 48.4113 149.584C55.6818 154.11 63.5457 156.336 72.0774 156.261C76.3061 156.187 80.4607 155.668 84.7636 154.407ZM60.6524 177.331C60.504 177.034 60.504 176.96 60.504 176.886C60.3556 176.737 60.2072 176.515 60.0589 176.366C53.3077 169.319 48.4113 161.158 45.8889 151.662C45.6663 150.846 45.2212 150.326 44.6277 149.881C38.841 145.801 34.1671 140.608 30.2352 134.747C25.4871 127.699 22.1486 120.057 19.6262 111.971C19.4779 111.377 19.2553 110.858 19.0327 110.265C18.5134 110.932 18.365 111.526 18.1425 112.119C16.0652 119.835 14.6556 127.625 14.1363 135.563C13.5428 143.872 13.9137 152.181 15.4717 160.342C15.6201 161.232 15.991 161.974 16.7329 162.567C28.974 172.583 42.9214 177.924 58.8719 177.479C59.317 177.479 59.9105 177.405 60.6524 177.331ZM126.754 73.8382C126.161 74.58 125.716 75.0252 125.345 75.5445C121.932 79.8474 119.039 84.4471 116.59 89.3435C111.1 100.472 108.059 112.194 109.32 124.731C109.542 126.809 109.913 128.812 110.21 130.963C112.807 131.334 115.181 131.705 117.629 132.15C118.668 132.373 119.41 131.928 120.077 131.186C130.835 119.167 138.698 105.517 144.485 90.5305C144.782 89.7145 144.634 89.1209 144.114 88.4533C140.924 84.3729 137.215 80.7377 132.986 77.7701C130.983 76.4347 128.906 75.2477 126.754 73.8382ZM146.859 164.57C135.954 163.606 126.68 159.674 119.039 152.033C111.323 158.932 103.162 164.941 94.0371 169.838C100.195 180.595 107.91 189.498 118.371 195.878C130.241 187.495 139.737 177.331 146.859 164.57ZM109.246 10.7039C117.481 8.03312 125.716 6.03003 134.173 4.84302C142.63 3.656 151.162 3.58182 159.694 4.17532C159.842 2.83993 159.916 1.72711 159.991 0.614283C160.361 -4.50471 160.658 -9.54952 161.029 -14.6685C161.252 -18.3037 161.4 -22.0132 161.548 -25.7226C161.548 -26.3161 161.548 -26.9838 161.178 -27.3547C159.1 -29.7287 156.8 -31.806 154.204 -33.7349C135.212 -22.9776 120.893 -7.54643 109.246 10.7039ZM228.021 66.9386C226.612 53.4364 221.641 41.4179 212.59 31.2541C203.91 21.387 193.004 14.7843 180.318 10.4813C181.728 21.4612 181.208 32.0701 179.65 42.7532C200.349 41.9372 216.522 49.6528 228.021 66.9386ZM154.649 103.143C155.094 102.401 155.391 101.881 155.688 101.362C156.875 99.1364 158.136 96.9107 159.323 94.6109C167.038 79.6249 172.973 64.0453 176.312 47.4271C176.46 46.7594 176.46 46.0917 176.609 45.3498C169.932 46.0917 163.774 47.8722 157.839 50.3205C156.949 50.6914 156.8 51.2849 156.652 52.101C154.797 64.4162 151.904 76.5089 147.749 88.3049C147.453 89.121 147.527 89.7145 147.972 90.4563C149.53 92.9787 151.014 95.5753 152.423 98.1719C153.165 99.6557 153.833 101.288 154.649 103.143ZM148.046 162.345C152.794 152.923 155.836 142.907 156.578 132.076C155.836 132.224 155.317 132.299 154.872 132.373C148.862 133.708 142.779 134.747 136.621 135.044C135.657 135.118 135.137 135.489 134.544 136.156C130.241 140.756 125.864 145.282 121.561 149.807C121.338 150.03 121.116 150.326 120.893 150.549C127.051 157.597 138.55 162.419 148.046 162.345ZM161.845 6.40097C160.361 20.3484 158.952 34.1474 157.468 48.0948C163.774 45.4982 170.303 43.7919 176.905 42.9758C178.909 34.4442 179.354 16.7132 177.573 9.59107C172.454 8.10731 167.261 6.99448 161.845 6.40097ZM48.3371 152.404C48.3371 152.775 48.2629 152.997 48.3371 153.145C48.6339 153.962 48.8564 154.852 49.1532 155.668C52.0465 163.532 56.572 170.283 62.5071 176.218C63.249 176.96 63.9908 177.331 65.0295 177.108C65.4004 177.034 65.7714 177.034 66.0681 176.96C74.3772 175.699 82.3154 173.102 89.8084 169.393C90.1793 169.244 90.4761 168.948 90.7728 168.799C88.9923 164.793 87.2118 160.861 85.5055 156.855C72.5225 160.268 60.1331 159.081 48.3371 152.404ZM86.915 153.665C93.4436 152.255 107.391 144.169 110.729 139.866C109.913 137.64 109.097 135.34 108.281 132.966C98.5626 130.666 89.3633 126.883 80.5348 121.17C81.3509 132.447 83.354 143.13 86.915 153.665ZM109.839 192.465C102.42 186.308 96.7079 179.037 92.2566 171.025C87.8795 172.731 83.7249 174.586 79.4962 175.995C75.1933 177.405 70.8162 178.295 66.2907 179.482C66.81 179.927 67.1809 180.298 67.7003 180.669C75.2675 186.53 83.7991 190.388 92.9985 192.688C96.4853 193.504 99.9722 194.172 103.533 194.097C105.61 194.023 107.688 193.726 109.839 192.465ZM122.08 132.447C122.748 132.521 123.045 132.669 123.267 132.669C126.606 132.744 129.87 132.744 133.209 132.818C134.099 132.818 134.47 132.299 134.915 131.779C141.369 123.915 147.23 115.532 152.498 106.778C153.017 105.888 153.017 105.22 152.72 104.255C151.236 100.323 149.382 96.5398 147.156 92.9787C146.933 92.682 146.711 92.3852 146.34 92.0143C140.553 106.926 132.763 120.428 122.08 132.447ZM154.426 52.1752C147.379 54.475 130.538 67.6805 128.164 72.577C129.499 73.3188 130.835 74.0607 132.096 74.951C133.357 75.7671 134.544 76.5831 135.731 77.4734C136.918 78.4378 138.105 79.4023 139.292 80.4409C140.405 81.4054 141.443 82.5182 142.482 83.5568C143.521 84.6696 144.485 85.7825 145.672 87.0437C149.753 75.6187 152.498 64.1195 154.426 52.1752ZM59.6879 96.9107C64.6585 104.478 70.5936 110.784 77.7157 116.2C77.9383 109.597 77.9382 103.217 78.3834 96.8365C78.8285 90.4563 79.793 84.0761 80.609 77.4734C72.2999 82.6666 65.4746 89.1209 59.6879 96.9107ZM117.258 150.252C115.478 147.581 113.697 145.059 111.842 142.388C104.646 148.397 96.7821 153.145 87.8053 156.113C89.3633 160.193 90.9212 163.977 92.9985 167.612C99.3787 164.645 112.733 155.074 117.258 150.252ZM177.202 7.21704C177.276 -0.424358 168.374 -21.0487 163.626 -24.1646C163.106 -14.6685 162.513 -5.1724 161.994 4.17532C167.113 5.21396 172.083 6.25259 177.202 7.21704ZM154.055 109.003C149.085 117.164 143.669 124.88 137.66 132.299C141.221 132.521 153.536 130.518 156.578 129.257C157.246 124.731 155.836 112.935 154.055 109.003ZM118.964 148.62C121.709 146.765 130.909 136.972 131.502 135.266C130.241 135.266 128.98 135.266 127.719 135.266C126.457 135.266 125.196 135.118 124.009 135.118C122.674 135.044 121.19 134.673 120.003 135.118C118.89 135.489 118.074 136.75 117.11 137.714C115.997 138.753 114.958 139.866 113.845 140.979C115.255 143.724 116.961 146.246 118.964 148.62ZM161.771 -30.3964C161.771 -32.9188 161.771 -35.0703 161.771 -37.4443C160.065 -36.6283 158.433 -35.8864 156.578 -34.9961C158.358 -33.4382 159.916 -32.0286 161.771 -30.3964ZM110.804 133.486C111.471 135.266 111.991 136.75 112.658 138.456C114.068 137.047 115.552 136.008 116.59 134.45C114.661 134.153 112.955 133.857 110.804 133.486Z" fill="black"/>
</g>
</svg>
