<svg width="561" height="65" viewBox="0 0 561 65" fill="none" xmlns="http://www.w3.org/2000/svg">
<path d="M345.078 63.7974L352.731 46.8913L338.607 15.7925H347.026L356.766 37.9165L366.506 15.7925H374.785L353.148 63.7974H345.078Z" fill="black"/>
<path d="M549.082 52.4576V40.1968H550.496L554.686 49.4053L558.877 40.1968H560.291V52.4576H558.86V43.4732L555.411 51.0953H553.962L550.513 43.4732V52.4576H549.082Z" fill="black"/>
<path d="M542.259 52.4576V41.6108H539V40.1968H547.019V41.6108H543.69V52.4576H542.259Z" fill="black"/>
<path d="M320.007 53.0137L312.98 49.6046L309.293 44.2475L307.971 38.2643V30.0548L309.293 24.0715L312.98 18.7145L320.007 15.2358H327.381L334.478 18.7145L338.165 24.0715L339.417 30.0548V38.2643L338.165 44.2475L334.478 49.6046L327.381 53.0137H320.007ZM321.398 45.7086H325.99L329.608 43.8997L331.138 41.5342L332.043 37.2903V30.8896L331.138 26.8544L329.469 24.3498L326.06 22.6105H321.259L317.989 24.3498L316.25 26.7849L315.415 30.8896V37.2903L316.25 41.6038L317.85 43.8997L321.398 45.7086Z" fill="black"/>
<path d="M293.401 10.088V0H303.141V10.088H293.401ZM289.366 63.7283L284.844 62.6152L286.722 55.4492L290.131 56.2841H291.662L293.61 55.6579L294.862 53.6403V15.7929H302.306V55.8666L298.619 61.6412L292.566 63.7283H289.366Z" fill="black"/>
<path d="M257.645 52.4571V15.7924H265.089V18.0187L269.889 15.2358H276.151L282.621 16.9751L287.004 22.8888V52.4571H279.56V25.6021L278.238 23.7237L274.759 22.6105H271.072L266.759 25.463L265.089 27.8284V52.4571H257.645Z" fill="black"/>
<path d="M230.25 64.1452L225.519 62.8929L221.832 60.5275L219.327 58.0229L224.545 52.6658L226.841 54.9617L228.094 55.9357L231.294 56.7706H235.538L238.251 55.7966L240.756 53.9877L241.382 52.4571V48.3523L237.208 50.8569H230.807L223.641 48.074L218.771 41.7429L217.24 36.5946V30.1939L218.771 24.976L223.432 18.7145L230.459 15.2358H236.651L240.825 16.7664L241.382 17.1839V15.7924H248.757V53.5007L247.017 58.7186L241.451 62.4059L236.442 64.1452H230.25ZM231.92 43.4822H235.816L239.643 40.8385L241.382 38.1252V26.1587L240.199 24.7673L238.042 23.3758L235.746 22.5409H231.711L228.302 24.489L225.38 28.4546L224.684 31.0983V35.6901L225.311 38.1252L228.163 42.0212L231.92 43.4822Z" fill="black"/>
<path d="M201.678 10.088V0H211.418V10.088H201.678ZM202.86 52.4576V15.7929H210.305V52.4576H202.86Z" fill="black"/>
<path d="M179.063 53.0137L173.288 51.5526L169.949 48.8393L167.723 46.3347L172.941 41.3255L174.749 43.4127L176.28 44.5954L180.315 45.7086H184.35L186.646 45.0128L188.038 44.0388L188.942 42.7865V40.7689L188.038 39.3079L186.507 38.2643L177.115 36.3163L172.454 33.8117L169.392 29.6373V23.0975L171.758 18.9927L175.167 16.4186L179.341 15.2358H185.464L190.96 16.6969L195.899 20.0363L191.795 26.1587L188.038 23.5845L184.698 22.5409H180.594L178.089 23.2367L177.393 23.8628L176.767 24.976V27.3414L177.741 28.5937L179.202 29.359L189.36 31.3766L193.464 34.09L196.317 38.6817V44.9433L193.604 49.048L190.055 51.6222L185.185 53.0137H179.063Z" fill="black"/>
<path d="M146.387 53.0137L139.29 49.535L134.629 43.2735L133.168 38.1947V30.1939L134.629 24.976L139.29 18.7145L146.387 15.2358H152.648L159.745 18.7145L164.336 24.976L166.006 29.7765V38.1252H140.612L141.308 39.7949L144.23 43.8997L147.848 45.639H151.396L155.57 44.5258L159.814 41.9516L163.71 47.9349L158.353 51.4831L152.231 53.0137H146.387ZM140.682 30.7505H158.492L157.727 28.5242L154.875 24.5585L151.326 22.6105H147.569L144.16 24.4194L141.169 28.4546L140.682 30.7505Z" fill="black"/>
<path d="M93.2266 52.4577V2.9917H111.802L119.803 6.12246L124.604 10.9925L127.665 17.0453L129.126 23.0981V32.3513L127.665 38.4041L124.604 44.4569L119.803 49.3269L111.802 52.4577H93.2266ZM100.74 45.0134H110.341L115.42 42.8567L118.412 39.8651L120.29 35.969L121.612 31.1685V24.2809L120.36 19.4804L118.342 15.4452L115.351 12.5231L110.341 10.4359H100.74V45.0134Z" fill="black"/>
<path d="M8.20703 17.7759C10.8885 29.989 21.7691 39.1288 34.7874 39.1288C47.8058 39.1288 58.6863 29.988 61.3678 17.7759" stroke="black" stroke-width="10.6098" stroke-linecap="round" stroke-linejoin="round"/>
<g clip-path="url(#clip0_155_1073)">
<path d="M393.068 13.5232C393.068 14.9174 391.933 16.0465 390.534 16.0465C389.135 16.0465 388 14.9174 388 13.5232C388 12.1291 389.134 11 390.534 11C391.934 11 393.068 12.1304 393.068 13.5232Z" fill="black"/>
<path d="M393.068 19.8309C393.068 21.225 391.933 22.3541 390.534 22.3541C389.135 22.3541 388 21.225 388 19.8309C388 18.4367 389.134 17.3076 390.534 17.3076C391.934 17.3076 393.068 18.438 393.068 19.8309Z" fill="black"/>
<path d="M393.068 26.1394C393.068 27.5336 391.933 28.6627 390.534 28.6627C389.135 28.6627 388 27.5336 388 26.1394C388 24.7453 389.134 23.6162 390.534 23.6162C391.934 23.6162 393.068 24.7466 393.068 26.1394Z" fill="black"/>
<path d="M393.068 32.448C393.068 33.8422 391.933 34.9713 390.534 34.9713C389.135 34.9713 388 33.8409 388 32.448C388 31.0552 389.134 29.9248 390.534 29.9248C391.934 29.9248 393.068 31.0552 393.068 32.448Z" fill="black"/>
<path d="M393.068 38.7557C393.068 40.1498 391.933 41.2789 390.534 41.2789C389.135 41.2789 388 40.1498 388 38.7557C388 37.3615 389.134 36.2324 390.534 36.2324C391.934 36.2324 393.068 37.3628 393.068 38.7557Z" fill="black"/>
<path d="M393.068 45.0628C393.068 46.457 391.933 47.586 390.534 47.586C389.135 47.586 388 46.457 388 45.0628C388 43.6686 389.134 42.5396 390.534 42.5396C391.934 42.5396 393.068 43.67 393.068 45.0628Z" fill="black"/>
<path d="M399.404 51.3719C399.404 52.766 398.269 53.8951 396.87 53.8951C395.471 53.8951 394.336 52.766 394.336 51.3719C394.336 49.9777 395.47 48.8486 396.87 48.8486C398.27 48.8486 399.404 49.9777 399.404 51.3719Z" fill="black"/>
<path d="M405.738 51.3719C405.738 52.766 404.603 53.8951 403.204 53.8951C401.805 53.8951 400.67 52.766 400.67 51.3719C400.67 49.9777 401.804 48.8486 403.204 48.8486C404.604 48.8486 405.738 49.9777 405.738 51.3719Z" fill="black"/>
<path d="M412.074 51.3719C412.074 52.766 410.938 53.8951 409.54 53.8951C408.141 53.8951 407.006 52.766 407.006 51.3719C407.006 49.9777 408.14 48.8486 409.54 48.8486C410.94 48.8486 412.074 49.9777 412.074 51.3719Z" fill="black"/>
<path d="M418.408 51.3719C418.408 52.766 417.272 53.8951 415.874 53.8951C414.475 53.8951 413.34 52.766 413.34 51.3719C413.34 49.9777 414.474 48.8486 415.874 48.8486C417.274 48.8486 418.408 49.9777 418.408 51.3719Z" fill="black"/>
<path d="M393.068 51.3719C393.068 52.766 391.933 53.8951 390.534 53.8951C389.135 53.8951 388 52.766 388 51.3719C388 49.9777 389.134 48.8486 390.534 48.8486C391.934 48.8486 393.068 49.9777 393.068 51.3719Z" fill="black"/>
<path d="M441.718 13.5232C441.718 14.9174 440.583 16.0465 439.184 16.0465C437.786 16.0465 436.65 14.9174 436.65 13.5232C436.65 12.1291 437.784 11 439.184 11C440.584 11 441.718 12.1304 441.718 13.5232Z" fill="black"/>
<path d="M435.384 19.8309C435.384 21.225 434.249 22.3541 432.85 22.3541C431.452 22.3541 430.316 21.225 430.316 19.8309C430.316 18.4367 431.45 17.3076 432.85 17.3076C434.25 17.3076 435.384 18.438 435.384 19.8309Z" fill="black"/>
<path d="M448.052 19.8309C448.052 21.225 446.917 22.3541 445.518 22.3541C444.12 22.3541 442.984 21.225 442.984 19.8309C442.984 18.4367 444.118 17.3076 445.518 17.3076C446.918 17.3076 448.052 18.438 448.052 19.8309Z" fill="black"/>
<path d="M454.388 26.1394C454.388 27.5336 453.253 28.6627 451.854 28.6627C450.456 28.6627 449.32 27.5336 449.32 26.1394C449.32 24.7453 450.454 23.6162 451.854 23.6162C453.254 23.6162 454.388 24.7466 454.388 26.1394Z" fill="black"/>
<path d="M429.048 26.1394C429.048 27.5336 427.913 28.6627 426.514 28.6627C425.116 28.6627 423.98 27.5336 423.98 26.1394C423.98 24.7453 425.114 23.6162 426.514 23.6162C427.914 23.6162 429.048 24.7466 429.048 26.1394Z" fill="black"/>
<path d="M454.388 32.448C454.388 33.8422 453.253 34.9713 451.854 34.9713C450.456 34.9713 449.32 33.8422 449.32 32.448C449.32 31.0539 450.454 29.9248 451.854 29.9248C453.254 29.9248 454.388 31.0552 454.388 32.448Z" fill="black"/>
<path d="M429.048 32.448C429.048 33.8422 427.913 34.9713 426.514 34.9713C425.116 34.9713 423.98 33.8422 423.98 32.448C423.98 31.0539 425.114 29.9248 426.514 29.9248C427.914 29.9248 429.048 31.0552 429.048 32.448Z" fill="black"/>
<path d="M435.384 38.7557C435.384 40.1498 434.249 41.2789 432.85 41.2789C431.452 41.2789 430.316 40.1498 430.316 38.7557C430.316 37.3615 431.45 36.2324 432.85 36.2324C434.25 36.2324 435.384 37.3628 435.384 38.7557Z" fill="black"/>
<path d="M441.718 38.7557C441.718 40.1498 440.583 41.2789 439.184 41.2789C437.786 41.2789 436.65 40.1498 436.65 38.7557C436.65 37.3615 437.784 36.2324 439.184 36.2324C440.584 36.2324 441.718 37.3628 441.718 38.7557Z" fill="black"/>
<path d="M448.052 38.7557C448.052 40.1498 446.917 41.2789 445.518 41.2789C444.12 41.2789 442.984 40.1498 442.984 38.7557C442.984 37.3615 444.118 36.2324 445.518 36.2324C446.918 36.2324 448.052 37.3628 448.052 38.7557Z" fill="black"/>
<path d="M454.388 38.7557C454.388 40.1498 453.253 41.2789 451.854 41.2789C450.456 41.2789 449.32 40.1498 449.32 38.7557C449.32 37.3615 450.454 36.2324 451.854 36.2324C453.254 36.2324 454.388 37.3628 454.388 38.7557Z" fill="black"/>
<path d="M429.048 38.7557C429.048 40.1498 427.913 41.2789 426.514 41.2789C425.116 41.2789 423.98 40.1498 423.98 38.7557C423.98 37.3615 425.114 36.2324 426.514 36.2324C427.914 36.2324 429.048 37.3628 429.048 38.7557Z" fill="black"/>
<path d="M454.388 45.0628C454.388 46.457 453.253 47.586 451.854 47.586C450.456 47.586 449.32 46.457 449.32 45.0628C449.32 43.6686 450.454 42.5396 451.854 42.5396C453.254 42.5396 454.388 43.67 454.388 45.0628Z" fill="black"/>
<path d="M429.048 45.0628C429.048 46.457 427.913 47.586 426.514 47.586C425.116 47.586 423.98 46.457 423.98 45.0628C423.98 43.6686 425.114 42.5396 426.514 42.5396C427.914 42.5396 429.048 43.67 429.048 45.0628Z" fill="black"/>
<path d="M454.388 51.3719C454.388 52.766 453.253 53.8951 451.854 53.8951C450.456 53.8951 449.32 52.766 449.32 51.3719C449.32 49.9777 450.454 48.8486 451.854 48.8486C453.254 48.8486 454.388 49.9777 454.388 51.3719Z" fill="black"/>
<path d="M429.048 51.3719C429.048 52.766 427.913 53.8951 426.514 53.8951C425.116 53.8951 423.98 52.766 423.98 51.3719C423.98 49.9777 425.114 48.8486 426.514 48.8486C427.914 48.8486 429.048 49.9777 429.048 51.3719Z" fill="black"/>
<path d="M473.392 13.6282C473.392 15.0224 472.257 16.1515 470.858 16.1515C469.459 16.1515 468.324 15.0224 468.324 13.6282C468.324 12.234 469.458 11.105 470.858 11.105C472.258 11.105 473.392 12.2354 473.392 13.6282Z" fill="black"/>
<path d="M479.728 13.6282C479.728 15.0224 478.593 16.1515 477.194 16.1515C475.795 16.1515 474.66 15.0224 474.66 13.6282C474.66 12.234 475.794 11.105 477.194 11.105C478.594 11.105 479.728 12.2354 479.728 13.6282Z" fill="black"/>
<path d="M486.062 13.6282C486.062 15.0224 484.927 16.1515 483.528 16.1515C482.129 16.1515 480.994 15.0224 480.994 13.6282C480.994 12.234 482.128 11.105 483.528 11.105C484.928 11.105 486.062 12.2354 486.062 13.6282Z" fill="black"/>
<path d="M467.058 13.6282C467.058 15.0224 465.923 16.1515 464.524 16.1515C463.125 16.1515 461.99 15.0224 461.99 13.6282C461.99 12.234 463.124 11.105 464.524 11.105C465.924 11.105 467.058 12.2354 467.058 13.6282Z" fill="black"/>
<path d="M492.396 19.9358C492.396 21.33 491.261 22.4591 489.862 22.4591C488.463 22.4591 487.328 21.33 487.328 19.9358C487.328 18.5417 488.462 17.4126 489.862 17.4126C491.262 17.4126 492.396 18.543 492.396 19.9358Z" fill="black"/>
<path d="M467.058 19.9358C467.058 21.33 465.923 22.4591 464.524 22.4591C463.125 22.4591 461.99 21.33 461.99 19.9358C461.99 18.5417 463.124 17.4126 464.524 17.4126C465.924 17.4126 467.058 18.543 467.058 19.9358Z" fill="black"/>
<path d="M492.396 26.2444C492.396 27.6386 491.261 28.7677 489.862 28.7677C488.463 28.7677 487.328 27.6386 487.328 26.2444C487.328 24.8503 488.462 23.7212 489.862 23.7212C491.262 23.7212 492.396 24.8516 492.396 26.2444Z" fill="black"/>
<path d="M467.058 26.2444C467.058 27.6386 465.923 28.7677 464.524 28.7677C463.125 28.7677 461.99 27.6386 461.99 26.2444C461.99 24.8503 463.124 23.7212 464.524 23.7212C465.924 23.7212 467.058 24.8516 467.058 26.2444Z" fill="black"/>
<path d="M473.392 32.552C473.392 33.9462 472.257 35.0753 470.858 35.0753C469.459 35.0753 468.324 33.9462 468.324 32.552C468.324 31.1579 469.458 30.0288 470.858 30.0288C472.258 30.0288 473.392 31.1592 473.392 32.552Z" fill="black"/>
<path d="M479.728 32.552C479.728 33.9462 478.593 35.0753 477.194 35.0753C475.795 35.0753 474.66 33.9462 474.66 32.552C474.66 31.1579 475.794 30.0288 477.194 30.0288C478.594 30.0288 479.728 31.1592 479.728 32.552Z" fill="black"/>
<path d="M486.062 32.552C486.062 33.9462 484.927 35.0753 483.528 35.0753C482.129 35.0753 480.994 33.9462 480.994 32.552C480.994 31.1579 482.128 30.0288 483.528 30.0288C484.928 30.0288 486.062 31.1592 486.062 32.552Z" fill="black"/>
<path d="M467.058 32.552C467.058 33.9462 465.923 35.0753 464.524 35.0753C463.125 35.0753 461.99 33.9462 461.99 32.552C461.99 31.1579 463.124 30.0288 464.524 30.0288C465.924 30.0288 467.058 31.1592 467.058 32.552Z" fill="black"/>
<path d="M492.396 38.8606C492.396 40.2548 491.261 41.3839 489.862 41.3839C488.463 41.3839 487.328 40.2548 487.328 38.8606C487.328 37.4665 488.462 36.3374 489.862 36.3374C491.262 36.3374 492.396 37.4678 492.396 38.8606Z" fill="black"/>
<path d="M467.058 38.8606C467.058 40.2548 465.923 41.3839 464.524 41.3839C463.125 41.3839 461.99 40.2548 461.99 38.8606C461.99 37.4665 463.124 36.3374 464.524 36.3374C465.924 36.3374 467.058 37.4678 467.058 38.8606Z" fill="black"/>
<path d="M492.396 45.1678C492.396 46.5619 491.261 47.691 489.862 47.691C488.463 47.691 487.328 46.5619 487.328 45.1678C487.328 43.7736 488.462 42.6445 489.862 42.6445C491.262 42.6445 492.396 43.7749 492.396 45.1678Z" fill="black"/>
<path d="M467.058 45.1678C467.058 46.5619 465.923 47.691 464.524 47.691C463.125 47.691 461.99 46.5619 461.99 45.1678C461.99 43.7736 463.124 42.6445 464.524 42.6445C465.924 42.6445 467.058 43.7749 467.058 45.1678Z" fill="black"/>
<path d="M473.392 51.4769C473.392 52.871 472.257 54.0001 470.858 54.0001C469.459 54.0001 468.324 52.871 468.324 51.4769C468.324 50.0827 469.458 48.9536 470.858 48.9536C472.258 48.9536 473.392 50.0827 473.392 51.4769Z" fill="black"/>
<path d="M479.728 51.4769C479.728 52.871 478.593 54.0001 477.194 54.0001C475.795 54.0001 474.66 52.871 474.66 51.4769C474.66 50.0827 475.794 48.9536 477.194 48.9536C478.594 48.9536 479.728 50.0827 479.728 51.4769Z" fill="black"/>
<path d="M486.062 51.4769C486.062 52.871 484.927 54.0001 483.528 54.0001C482.129 54.0001 480.994 52.871 480.994 51.4769C480.994 50.0827 482.128 48.9536 483.528 48.9536C484.928 48.9536 486.062 50.0827 486.062 51.4769Z" fill="black"/>
<path d="M467.058 51.4769C467.058 52.871 465.923 54.0001 464.524 54.0001C463.125 54.0001 461.99 52.871 461.99 51.4769C461.99 50.0827 463.124 48.9536 464.524 48.9536C465.924 48.9536 467.058 50.0827 467.058 51.4769Z" fill="black"/>
<path d="M510.996 13.5232C510.996 14.9161 509.86 16.0465 508.462 16.0465C507.063 16.0465 505.928 14.9161 505.928 13.5232C505.928 12.1304 507.062 11 508.462 11C509.862 11 510.996 12.1291 510.996 13.5232Z" fill="black"/>
<path d="M517.33 13.5232C517.33 14.9161 516.194 16.0465 514.796 16.0465C513.397 16.0465 512.262 14.9161 512.262 13.5232C512.262 12.1304 513.396 11 514.796 11C516.196 11 517.33 12.1291 517.33 13.5232Z" fill="black"/>
<path d="M523.665 13.5232C523.665 14.9161 522.53 16.0465 521.132 16.0465C519.733 16.0465 518.598 14.9161 518.598 13.5232C518.598 12.1304 519.731 11 521.132 11C522.532 11 523.665 12.1291 523.665 13.5232Z" fill="black"/>
<path d="M529.999 19.8309C529.999 21.2237 528.864 22.3541 527.466 22.3541C526.067 22.3541 524.932 21.2237 524.932 19.8309C524.932 18.438 526.065 17.3076 527.466 17.3076C528.866 17.3076 529.999 18.4367 529.999 19.8309Z" fill="black"/>
<path d="M504.662 19.8309C504.662 21.2237 503.526 22.3541 502.128 22.3541C500.729 22.3541 499.594 21.2237 499.594 19.8309C499.594 18.438 500.728 17.3076 502.128 17.3076C503.528 17.3076 504.662 18.4367 504.662 19.8309Z" fill="black"/>
<path d="M504.662 26.1394C504.662 27.5323 503.526 28.6627 502.128 28.6627C500.729 28.6627 499.594 27.5323 499.594 26.1394C499.594 24.7466 500.728 23.6162 502.128 23.6162C503.528 23.6162 504.662 24.7453 504.662 26.1394Z" fill="black"/>
<path d="M510.996 32.448C510.996 33.8409 509.86 34.9713 508.462 34.9713C507.063 34.9713 505.928 33.8409 505.928 32.448C505.928 31.0552 507.062 29.9248 508.462 29.9248C509.862 29.9248 510.996 31.0539 510.996 32.448Z" fill="black"/>
<path d="M517.33 32.448C517.33 33.8409 516.194 34.9713 514.796 34.9713C513.397 34.9713 512.262 33.8409 512.262 32.448C512.262 31.0552 513.396 29.9248 514.796 29.9248C516.196 29.9248 517.33 31.0539 517.33 32.448Z" fill="black"/>
<path d="M523.665 32.448C523.665 33.8409 522.53 34.9713 521.132 34.9713C519.733 34.9713 518.598 33.8409 518.598 32.448C518.598 31.0552 519.731 29.9248 521.132 29.9248C522.532 29.9248 523.665 31.0539 523.665 32.448Z" fill="black"/>
<path d="M529.999 38.7557C529.999 40.1485 528.864 41.2789 527.466 41.2789C526.067 41.2789 524.932 40.1485 524.932 38.7557C524.932 37.3628 526.065 36.2324 527.466 36.2324C528.866 36.2324 529.999 37.3615 529.999 38.7557Z" fill="black"/>
<path d="M529.999 45.0628C529.999 46.4556 528.864 47.586 527.466 47.586C526.067 47.586 524.932 46.4556 524.932 45.0628C524.932 43.67 526.065 42.5396 527.466 42.5396C528.866 42.5396 529.999 43.6686 529.999 45.0628Z" fill="black"/>
<path d="M504.662 45.0628C504.662 46.4556 503.526 47.586 502.128 47.586C500.729 47.586 499.594 46.4556 499.594 45.0628C499.594 43.67 500.728 42.5396 502.128 42.5396C503.528 42.5396 504.662 43.6686 504.662 45.0628Z" fill="black"/>
<path d="M510.996 51.3719C510.996 52.7647 509.86 53.8951 508.462 53.8951C507.063 53.8951 505.928 52.7647 505.928 51.3719C505.928 49.979 507.062 48.8486 508.462 48.8486C509.862 48.8486 510.996 49.9777 510.996 51.3719Z" fill="black"/>
<path d="M517.33 51.3719C517.33 52.7647 516.194 53.8951 514.796 53.8951C513.397 53.8951 512.262 52.7647 512.262 51.3719C512.262 49.979 513.396 48.8486 514.796 48.8486C516.196 48.8486 517.33 49.9777 517.33 51.3719Z" fill="black"/>
<path d="M523.665 51.3719C523.665 52.7647 522.53 53.8951 521.132 53.8951C519.733 53.8951 518.598 52.7647 518.598 51.3719C518.598 49.979 519.731 48.8486 521.132 48.8486C522.532 48.8486 523.665 49.9777 523.665 51.3719Z" fill="black"/>
</g>
<defs>
<clipPath id="clip0_155_1073">
<rect width="142" height="43" fill="white" transform="translate(388 11)"/>
</clipPath>
</defs>
</svg>
