<svg width="624" height="128" viewBox="0 0 624 128" fill="none" xmlns="http://www.w3.org/2000/svg">
<g clip-path="url(#clip0_155_1097)">
<mask id="mask0_155_1097" style="mask-type:luminance" maskUnits="userSpaceOnUse" x="0" y="0" width="624" height="128">
<path d="M624 0H0V128H624V0Z" fill="white"/>
</mask>
<g mask="url(#mask0_155_1097)">
<path d="M79.1662 29.7763L79.0782 29.7246L78.875 29.6626C78.9569 29.7316 79.0593 29.7716 79.1662 29.7763Z" fill="white"/>
<path d="M79.213 29.7587C79.2005 29.7571 79.1883 29.7542 79.1765 29.75C79.1755 29.7581 79.1755 29.7662 79.1765 29.7744C79.1896 29.7726 79.2024 29.7672 79.213 29.7587Z" fill="white"/>
<path d="M80.375 38.9186L80.5232 38.8342L80.5782 38.8034L80.6281 38.75C80.5344 38.7903 80.4483 38.8476 80.375 38.9186Z" fill="white"/>
<path d="M79.4421 29.966L79.2975 29.8283L79.1992 29.7749C79.252 29.868 79.3391 29.9366 79.4421 29.966Z" fill="white"/>
<path d="M43.0444 118.712C42.9289 118.762 42.8274 118.84 42.75 118.94L42.8412 118.881C42.9033 118.824 42.991 118.757 43.0444 118.712Z" fill="white"/>
<path d="M64.1757 114.569C64.1757 114.438 64.112 114.462 64.1274 114.927C64.1274 114.889 64.1431 114.851 64.1498 114.815C64.1584 114.732 64.1655 114.651 64.1757 114.569Z" fill="white"/>
<path d="M61.9943 118.712C61.8784 118.762 61.777 118.84 61.6992 118.94L61.7907 118.881C61.8525 118.824 61.9408 118.757 61.9943 118.712Z" fill="white"/>
<path d="M28.1596 119.695C28.0719 119.618 27.9645 119.569 27.8496 119.55C27.9426 119.595 28.0356 119.64 28.0976 119.674L28.1596 119.695Z" fill="white"/>
<path d="M24.7981 116.486C24.7843 116.35 24.7427 116.219 24.6758 116.1C24.7232 116.223 24.7629 116.35 24.7946 116.479L24.7981 116.486Z" fill="white"/>
<path d="M47.2959 59.1451C42.6985 61.1134 37.4809 63.3451 30.7185 63.3451C27.8896 63.3393 25.0745 62.9515 22.3496 62.1915L27.0265 110.209C27.1921 112.216 28.1063 114.087 29.5879 115.452C31.0693 116.815 33.0095 117.573 35.0236 117.572C35.0236 117.572 41.655 117.917 43.8674 117.917C46.2492 117.917 53.3903 117.572 53.3903 117.572C55.4038 117.572 57.3436 116.815 58.8246 115.451C60.3058 114.087 61.2198 112.216 61.3855 110.209L66.3948 57.1476C64.1561 56.3832 61.8969 55.875 59.35 55.875C54.9452 55.8734 51.3961 57.3905 47.2959 59.1451Z" fill="white"/>
<path d="M7.875 38.6499L7.9542 38.7241L8.00588 38.7552C7.96607 38.7155 7.9222 38.6803 7.875 38.6499Z" fill="white"/>
<path d="M88.0256 34.2115L87.3213 30.6591C86.6893 27.4717 85.2547 24.46 81.983 23.308C80.9344 22.9395 79.7443 22.7811 78.9402 22.0182C78.136 21.2554 77.8986 20.0706 77.7126 18.972C77.368 16.9556 77.0445 14.9374 76.6912 12.9244C76.3866 11.1938 76.1456 9.24966 75.3517 7.66198C74.3184 5.53014 72.1747 4.28342 70.0429 3.45859C68.9504 3.05082 67.8355 2.70586 66.7037 2.42541C61.3776 1.02027 55.7779 0.50367 50.2986 0.20921C43.7216 -0.153697 37.1274 -0.044358 30.5661 0.536387C25.6826 0.980659 20.539 1.51792 15.8982 3.2072C14.202 3.82538 12.4542 4.56755 11.1645 5.87798C9.58195 7.48806 9.06538 9.97805 10.2208 11.9859C11.0422 13.4117 12.4336 14.4191 13.9093 15.0855C15.8316 15.9441 17.839 16.5975 19.8984 17.0348C25.6326 18.3021 31.5718 18.7998 37.4301 19.0116C43.9229 19.2737 50.4266 19.0613 56.8883 18.3762C58.4864 18.2005 60.0816 17.9899 61.6739 17.7442C63.5491 17.4566 64.7526 15.0045 64.2 13.2963C63.5389 11.254 61.7616 10.4619 59.752 10.7702C59.456 10.8167 59.1616 10.8597 58.8653 10.9028L58.6518 10.9338C57.9709 11.0199 57.2902 11.1002 56.6096 11.1748C55.2032 11.3264 53.7936 11.4504 52.3802 11.5468C49.2154 11.7672 46.0416 11.8688 42.8698 11.874C39.753 11.874 36.6346 11.7861 33.5245 11.5812C32.1056 11.4882 30.6901 11.37 29.2781 11.2265C28.6358 11.1593 27.9952 11.0887 27.3546 11.0095L26.745 10.932L26.6124 10.9131L25.9805 10.8218C24.689 10.6272 23.3975 10.4034 22.1198 10.133C21.9908 10.1044 21.8755 10.0327 21.7929 9.9297C21.7102 9.82669 21.6652 9.69856 21.6652 9.5665C21.6652 9.43443 21.7102 9.3063 21.7929 9.2033C21.8755 9.10029 21.9908 9.02858 22.1198 8.99997H22.1439C23.2511 8.76406 24.367 8.56259 25.4863 8.38694C25.8594 8.32838 26.2336 8.27098 26.609 8.21475H26.6193C27.3202 8.16826 28.0245 8.04253 28.7219 7.95987C34.7894 7.32874 40.8934 7.11357 46.9904 7.31587C49.9507 7.40195 52.9088 7.57587 55.8554 7.87552C56.489 7.94093 57.1194 8.00982 57.7494 8.08733C57.9904 8.11658 58.2333 8.15101 58.4762 8.18029L58.9651 8.25091C60.391 8.46326 61.8093 8.72099 63.2202 9.02406C65.3107 9.47869 67.9952 9.62678 68.9251 11.917C69.2214 12.6437 69.3555 13.4513 69.5194 14.2141L69.7277 15.1871C69.7331 15.2045 69.737 15.2224 69.7395 15.2404C70.2323 17.5364 70.7251 19.8324 71.2189 22.1284C71.255 22.298 71.256 22.4733 71.2214 22.6432C71.1869 22.8132 71.1178 22.9742 71.0182 23.1162C70.9187 23.2582 70.7907 23.3782 70.6429 23.4687C70.495 23.5592 70.3299 23.6182 70.1581 23.642H70.1443L69.8429 23.6834L69.545 23.723C68.6016 23.8458 67.6566 23.9606 66.7107 24.0674C64.8474 24.2797 62.9814 24.4634 61.1126 24.6184C57.3987 24.9272 53.6774 25.1299 49.9488 25.2263C48.049 25.2768 46.1494 25.3003 44.2509 25.2969C36.6931 25.2909 29.1417 24.8516 21.6342 23.9813C20.8214 23.8848 20.0086 23.7815 19.1958 23.6765C19.8261 23.7574 18.7378 23.6145 18.5174 23.5835C18.0008 23.5112 17.4842 23.436 16.9676 23.3579C15.2335 23.0979 13.5098 22.7776 11.7792 22.4969C9.68701 22.1525 7.68605 22.3247 5.7936 23.3579C4.24016 24.208 2.98288 25.5115 2.18947 27.0946C1.37324 28.7822 1.13044 30.6196 0.765382 32.433C0.400323 34.2461 -0.167937 36.1971 0.047312 38.0586C0.510528 42.0758 3.3191 45.3408 7.35888 46.071C11.1593 46.7597 14.9804 47.3178 18.8118 47.793C33.8624 49.6362 49.0678 49.8566 64.1654 48.4509C65.3952 48.336 66.6227 48.2109 67.849 48.0752C68.232 48.0333 68.6195 48.0774 68.983 48.2045C69.3469 48.3315 69.6774 48.5382 69.9507 48.8099C70.2243 49.0813 70.4336 49.4102 70.5632 49.7731C70.6928 50.136 70.7398 50.5232 70.7005 50.9062L70.3184 54.6224C69.5478 62.1315 68.7776 69.6397 68.0074 77.1478C67.2038 85.032 66.3949 92.9158 65.5811 100.799C65.3514 103.02 65.1219 105.239 64.8922 107.458C64.672 109.644 64.641 111.898 64.2259 114.057C63.5715 117.452 61.2726 119.538 57.9181 120.301C54.8451 121 51.7056 121.367 48.5539 121.396C45.0602 121.415 41.568 121.26 38.0739 121.279C34.3443 121.3 29.7757 120.955 26.8966 118.179C24.367 115.741 24.0174 111.923 23.673 108.622C23.2138 104.252 22.7586 99.8819 22.3075 95.5126L19.7762 71.2173L18.1385 55.4973C18.111 55.2371 18.0834 54.9805 18.0576 54.7187C17.8613 52.8435 16.5336 51.008 14.4414 51.1027C12.6506 51.1818 10.6152 52.704 10.8252 54.7187L12.0393 66.3731L14.5499 90.481C15.2651 97.329 15.9786 104.178 16.6903 111.028C16.8281 112.34 16.9572 113.656 17.1019 114.968C17.8888 122.138 23.3648 126.002 30.146 127.091C34.1066 127.728 38.1635 127.859 42.1827 127.924C47.3347 128.007 52.5386 128.205 57.6064 127.271C65.1162 125.894 70.7504 120.879 71.5546 113.101C71.7843 110.856 72.0138 108.61 72.2435 106.363C73.0067 98.9331 73.7693 91.5027 74.5302 84.0717L77.0202 59.7917L78.1619 48.6643C78.2189 48.1126 78.4518 47.5936 78.8266 47.1846C79.201 46.7757 79.6976 46.4979 80.2422 46.393C82.3894 45.9744 84.4419 45.2598 85.9693 43.6256C88.401 41.0237 88.8848 37.6314 88.0256 34.2115ZM7.24867 36.6122C7.28138 36.5965 7.22112 36.8771 7.1953 37.008C7.19011 36.8102 7.20045 36.6346 7.24867 36.6122ZM7.45702 38.224C7.47427 38.2118 7.52592 38.2806 7.5793 38.3632C7.49837 38.2877 7.44842 38.2307 7.45702 38.224ZM7.66195 38.4941C7.77562 38.6992 7.736 38.6198 7.66195 38.4941ZM8.0735 38.8282H8.08384C8.08384 38.8403 8.10278 38.8525 8.10966 38.8643C8.09824 38.8512 8.0873 38.839 8.0735 38.8282ZM80.1421 38.329C79.3709 39.0624 78.2083 39.4035 77.0598 39.5738C64.1795 41.4854 51.111 42.4531 38.0896 42.0259C28.7701 41.7075 19.5488 40.6726 10.3224 39.369C9.41837 39.2416 8.43856 39.0762 7.81693 38.4099C6.64598 37.1526 7.22112 34.6214 7.52592 33.1027C7.80486 31.7113 8.33869 29.8567 9.99354 29.6587C12.5765 29.3556 15.5762 30.4456 18.1316 30.8331C21.2083 31.3026 24.2964 31.6786 27.3959 31.961C40.6243 33.1664 54.0749 32.9786 67.2445 31.2154C69.6448 30.8928 72.0368 30.518 74.4202 30.0909C76.5434 29.7103 78.8973 28.9957 80.1802 31.1947C81.0602 32.6928 81.1773 34.6973 81.041 36.3901C80.999 37.1274 80.6787 37.8211 80.1421 38.329Z" fill="white"/>
<path fill-rule="evenodd" clip-rule="evenodd" d="M158.258 74.104C157.506 75.5395 156.471 76.7894 155.155 77.8502C153.839 78.912 152.304 79.7763 150.549 80.4416C148.795 81.1088 147.029 81.5565 145.253 81.7846C143.477 82.0134 141.753 81.9936 140.083 81.7219C138.411 81.4518 136.99 80.9005 135.821 80.0669L137.138 66.3917C138.349 65.9757 139.873 65.5488 141.712 65.1113C143.55 64.6749 145.441 64.3619 147.384 64.175C149.327 63.9872 151.165 64.0093 152.9 64.2374C154.632 64.4665 156.001 65.0179 157.004 65.8925C157.547 66.3917 158.007 66.9328 158.383 67.5158C158.758 68.0989 158.988 68.7024 159.073 69.3267C159.281 71.0752 159.01 72.6675 158.258 74.104ZM139.142 44.9731C140.02 44.432 141.075 43.9526 142.307 43.536C143.54 43.1206 144.804 42.8285 146.099 42.6621C147.394 42.4966 148.658 42.4742 149.891 42.5993C151.123 42.7248 152.21 43.0678 153.15 43.6294C154.09 44.192 154.789 45.0038 155.249 46.0646C155.709 47.127 155.834 48.4697 155.625 50.0931C155.458 51.3837 154.945 52.4768 154.09 53.3715C153.233 54.2675 152.188 55.016 150.956 55.6198C149.724 56.2243 148.418 56.7027 147.04 57.0553C145.66 57.4102 144.333 57.6707 143.06 57.8365C141.785 58.0035 140.678 58.1081 139.738 58.1485C138.798 58.1904 138.181 58.2112 137.889 58.2112L139.142 44.9731ZM165.026 65.2675C164.357 63.8112 163.459 62.5312 162.332 61.4265C161.204 60.3238 159.865 59.5229 158.32 59.023C158.988 58.4819 159.647 57.6288 160.295 56.4627C160.942 55.2979 161.495 54.0272 161.955 52.6537C162.414 51.279 162.728 49.896 162.895 48.5008C163.061 47.1065 162.999 45.9094 162.708 44.9097C161.996 42.4125 160.879 40.4557 159.354 39.04C157.828 37.6249 156.054 36.6467 154.027 36.1049C152 35.5654 149.765 35.4496 147.321 35.7619C144.877 36.0739 142.38 36.688 139.832 37.6038C139.832 37.3961 139.853 37.1776 139.895 36.9485C139.936 36.7203 139.957 36.4803 139.957 36.2301C139.957 35.6057 139.644 35.0653 139.017 34.6067C138.391 34.1488 137.67 33.8787 136.855 33.7945C136.04 33.7123 135.246 33.8883 134.473 34.3254C133.7 34.7629 133.167 35.5654 132.875 36.7289C132.541 40.4765 132.206 44.3693 131.873 48.4064C131.538 52.4451 131.183 56.5251 130.807 60.647C130.431 64.7683 130.055 68.8585 129.679 72.9171C129.303 76.9766 128.927 80.879 128.551 84.6253C128.676 85.7494 128.989 86.6243 129.491 87.2483C129.992 87.8736 130.577 88.2483 131.246 88.3725C131.914 88.4979 132.614 88.3821 133.345 88.0288C134.076 87.6761 134.713 87.0608 135.257 86.1869C136.928 87.1027 138.808 87.696 140.898 87.967C142.986 88.2371 145.106 88.2371 147.259 87.967C149.41 87.696 151.53 87.1865 153.62 86.4365C155.709 85.6877 157.61 84.7507 159.323 83.6272C161.036 82.503 162.477 81.2221 163.648 79.7865C164.817 78.3494 165.59 76.799 165.966 75.1347C166.342 73.4272 166.446 71.7209 166.279 70.0137C166.112 68.3072 165.694 66.7257 165.026 65.2675Z" fill="white"/>
<path fill-rule="evenodd" clip-rule="evenodd" d="M226.157 98.2279C225.927 99.6017 225.602 101.048 225.185 102.569C224.767 104.087 224.276 105.472 223.713 106.721C223.149 107.97 222.521 108.979 221.833 109.75C221.143 110.519 220.401 110.843 219.608 110.718C218.981 110.633 218.584 110.238 218.417 109.532C218.249 108.822 218.249 107.949 218.417 106.909C218.584 105.868 218.907 104.691 219.388 103.38C219.868 102.069 220.454 100.767 221.143 99.4775C221.833 98.186 222.616 96.9486 223.493 95.762C224.371 94.5758 225.289 93.5863 226.25 92.7959C226.46 93.0452 226.553 93.6695 226.533 94.6695C226.511 95.6682 226.386 96.8551 226.157 98.2279ZM247.403 71.1268C246.839 70.5025 246.149 70.1492 245.334 70.0654C244.52 69.9822 243.694 70.4401 242.859 71.4391C242.315 72.4378 241.626 73.3959 240.79 74.3118C239.955 75.2282 239.088 76.0599 238.19 76.8094C237.291 77.5582 236.435 78.2046 235.62 78.745C234.806 79.2868 234.168 79.682 233.708 79.9316C233.542 78.5998 233.447 77.1636 233.427 75.6228C233.405 74.0826 233.437 72.522 233.521 70.9399C233.646 68.6916 233.906 66.4234 234.304 64.1332C234.701 61.8436 235.276 59.5953 236.028 57.3882C236.028 56.2234 235.755 55.2759 235.213 54.5473C234.669 53.8193 234.011 53.3604 233.239 53.1735C232.465 52.9866 231.672 53.0903 230.857 53.4855C230.042 53.8817 229.343 54.6004 228.757 55.6398C228.257 57.0142 227.682 58.5543 227.034 60.2606C226.386 61.9681 225.655 63.706 224.841 65.4753C224.026 67.2458 223.117 68.9626 222.114 70.627C221.111 72.2929 220.015 73.7713 218.824 75.0612C217.633 76.3514 216.337 77.3617 214.939 78.0897C213.538 78.8186 212.025 79.1409 210.395 79.0577C209.642 78.8494 209.099 78.2878 208.765 77.3713C208.43 76.4561 208.232 75.3105 208.17 73.937C208.107 72.5633 208.17 71.0538 208.358 69.4094C208.546 67.7655 208.797 66.131 209.11 64.5079C209.423 62.8839 209.768 61.3438 210.144 59.8868C210.52 58.4298 210.874 57.201 211.209 56.202C211.711 54.9956 211.711 53.9847 211.209 53.1735C210.708 52.3614 210.019 51.8212 209.142 51.5495C208.264 51.2791 207.344 51.2903 206.384 51.5812C205.422 51.8727 204.733 52.5175 204.316 53.5166C203.605 55.2244 202.957 57.1386 202.372 59.2618C201.787 61.3847 201.317 63.5818 200.963 65.85C200.607 68.1194 200.408 70.3678 200.366 72.595C200.364 72.7399 200.371 72.8775 200.37 73.0218C199.459 75.442 198.591 77.2714 197.767 78.4954C196.701 80.0782 195.499 80.7652 194.162 80.5559C193.576 80.3063 193.192 79.7242 193.004 78.8074C192.814 77.8926 192.752 76.7684 192.814 75.435C192.878 74.1041 193.035 72.595 193.284 70.9082C193.537 69.2225 193.848 67.474 194.224 65.6628C194.601 63.851 194.998 62.0314 195.415 60.1988C195.833 58.3674 196.209 56.6394 196.545 55.0154C196.502 53.5585 196.074 52.4455 195.259 51.6746C194.445 50.9054 193.305 50.6036 191.844 50.769C190.841 51.1857 190.098 51.7278 189.618 52.393C189.137 53.0586 188.751 53.9127 188.459 54.9527C188.291 55.4948 188.041 56.5767 187.707 58.201C187.372 59.8234 186.945 61.6874 186.422 63.7892C185.9 65.8926 185.283 68.0878 184.574 70.3774C183.863 72.667 183.069 74.7393 182.192 76.5908C181.314 78.443 180.353 79.9316 179.309 81.0558C178.265 82.1793 177.136 82.6378 175.924 82.4295C175.256 82.3044 174.828 81.6174 174.641 80.369C174.452 79.1198 174.421 77.5802 174.546 75.7479C174.672 73.9162 174.922 71.9073 175.298 69.7223C175.674 67.5364 176.06 65.4657 176.457 63.5079C176.854 61.5521 177.22 59.8234 177.554 58.3252C177.889 56.8263 178.118 55.8273 178.244 55.3284C178.244 54.121 177.971 53.1537 177.429 52.4241C176.885 51.6967 176.227 51.2382 175.455 51.0503C174.681 50.8634 173.888 50.9671 173.073 51.3623C172.258 51.7585 171.559 52.4772 170.974 53.5166C170.764 54.6407 170.492 55.9422 170.159 57.4199C169.824 58.8974 169.501 60.4167 169.188 61.9783C168.874 63.5396 168.581 65.0695 168.31 66.5684C168.038 68.0673 167.84 69.3783 167.714 70.5025C167.631 71.3764 167.536 72.449 167.433 73.7182C167.328 74.9889 167.275 76.331 167.275 77.746C167.275 79.1623 167.38 80.5671 167.59 81.9614C167.798 83.3566 168.174 84.6366 168.717 85.8014C169.26 86.9674 170.023 87.9242 171.005 88.674C171.986 89.4234 173.23 89.8391 174.734 89.9233C176.279 90.0055 177.627 89.8922 178.777 89.5793C179.925 89.2673 180.969 88.7777 181.91 88.1114C182.85 87.4468 183.706 86.6551 184.48 85.7386C185.252 84.8238 186.015 83.8247 186.767 82.7415C187.477 84.3246 188.396 85.5518 189.525 86.4263C190.653 87.3002 191.844 87.8215 193.097 87.987C194.35 88.1524 195.625 87.9774 196.921 87.4561C198.215 86.9364 199.385 86.0516 200.43 84.8023C201.118 84.0362 201.767 83.1655 202.376 82.203C202.634 82.6538 202.909 83.0887 203.218 83.4903C204.242 84.8238 205.632 85.7386 207.387 86.2385C209.267 86.7383 211.104 86.8225 212.902 86.489C214.698 86.1562 216.411 85.5518 218.041 84.6778C219.67 83.8033 221.184 82.7527 222.585 81.5239C223.984 80.2961 225.206 79.0167 226.25 77.6833C226.209 78.641 226.188 79.5473 226.188 80.3998C226.188 81.2538 226.167 82.1793 226.126 83.179C224.035 84.6366 222.062 86.385 220.203 88.4244C218.343 90.4634 216.713 92.6388 215.314 94.9498C213.915 97.2599 212.817 99.6017 212.025 101.974C211.231 104.349 210.843 106.565 210.865 108.626C210.885 110.686 211.376 112.486 212.337 114.027C213.298 115.567 214.865 116.67 217.038 117.336C219.294 118.045 221.278 118.065 222.992 117.399C224.705 116.733 226.198 115.629 227.473 114.089C228.747 112.549 229.791 110.686 230.607 108.501C231.421 106.315 232.069 104.036 232.549 101.663C233.03 99.2903 233.332 96.9572 233.458 94.6695C233.584 92.379 233.584 90.3383 233.458 88.5486C237.051 87.0506 239.996 85.1562 242.295 82.866C244.593 80.578 246.494 78.1626 247.998 75.6228C248.457 74.9985 248.614 74.249 248.469 73.3751C248.321 72.5006 247.967 71.7511 247.403 71.1268Z" fill="white"/>
<path fill-rule="evenodd" clip-rule="evenodd" d="M326.471 67.1469C326.596 66.1897 326.784 65.1798 327.034 64.118C327.287 63.0566 327.6 62.0259 327.975 61.0269C328.352 60.0278 328.791 59.1645 329.29 58.4355C329.792 57.7075 330.327 57.1869 330.89 56.8739C331.453 56.5629 332.026 56.5936 332.615 56.9677C333.239 57.343 333.626 58.1337 333.773 59.3401C333.917 60.5491 333.773 61.839 333.335 63.2128C332.896 64.5872 332.112 65.8768 330.983 67.0841C329.856 68.2925 328.33 69.0822 326.41 69.4569C326.324 68.8755 326.346 68.1046 326.471 67.1469ZM348.186 69.7065C347.498 69.4998 346.839 69.4784 346.212 69.6448C345.588 69.8112 345.188 70.2483 345.021 70.9568C344.688 72.2883 344.154 73.6518 343.424 75.0461C342.692 76.4413 341.796 77.7625 340.73 79.0121C339.664 80.2605 338.461 81.3641 337.127 82.3213C335.789 83.279 334.388 83.9657 332.925 84.3817C331.463 84.8403 330.253 84.8918 329.29 84.5379C328.33 84.1853 327.568 83.5808 327.005 82.7277C326.439 81.8742 326.032 80.8435 325.783 79.6361C325.53 78.4288 325.386 77.1805 325.344 75.8889C327.725 76.0563 329.844 75.6301 331.706 74.6089C333.562 73.5901 335.14 72.2361 336.436 70.5504C337.732 68.8643 338.714 66.9702 339.383 64.8675C340.048 62.7657 340.426 60.6736 340.509 58.5917C340.551 56.6349 340.26 54.9808 339.632 53.6275C339.005 52.2752 338.16 51.2224 337.095 50.4736C336.029 49.7241 334.807 49.287 333.428 49.1625C332.048 49.0374 330.65 49.2253 329.229 49.7241C327.514 50.3072 326.064 51.2541 324.874 52.5661C323.684 53.8771 322.688 55.3974 321.898 57.1245C321.101 58.8521 320.474 60.7149 320.016 62.7126C319.556 64.7117 319.222 66.6787 319.014 68.6147C318.825 70.3523 318.725 72.0134 318.689 73.6169C318.6 73.8205 318.513 74.0163 318.418 74.2342C317.77 75.7133 317.017 77.1597 316.161 78.5747C315.305 79.9904 314.354 81.1773 313.31 82.1341C312.265 83.0918 311.179 83.4246 310.051 83.1331C309.382 82.9677 309.018 82.1958 308.955 80.823C308.892 79.4486 308.964 77.7421 309.174 75.7021C309.382 73.663 309.622 71.455 309.894 69.0822C310.166 66.7094 310.302 64.4413 310.302 62.2761C310.302 60.4025 309.946 58.6025 309.236 56.8739C308.526 55.1478 307.554 53.7107 306.322 52.5661C305.089 51.4205 303.659 50.6608 302.03 50.2867C300.399 49.9113 298.645 50.1616 296.765 51.0355C294.884 51.9101 293.391 53.1379 292.284 54.72C291.176 56.303 290.163 57.9673 289.245 59.7158C288.909 58.3833 288.419 57.1459 287.771 56.0003C287.123 54.8553 286.33 53.8566 285.39 53.0025C284.449 52.15 283.393 51.4838 282.225 51.0045C281.055 50.5267 279.822 50.2867 278.526 50.2867C277.274 50.2867 276.114 50.5267 275.049 51.0045C273.983 51.4838 273.012 52.0969 272.134 52.8464C271.257 53.5968 270.464 54.4387 269.753 55.376C269.043 56.3123 268.415 57.2393 267.873 58.1542C267.788 57.072 267.694 56.1254 267.591 55.3126C267.486 54.5014 267.298 53.8144 267.026 53.2528C266.755 52.6902 266.369 52.264 265.867 51.9725C265.366 51.6819 264.655 51.5353 263.737 51.5353C263.277 51.5353 262.816 51.6288 262.358 51.8157C261.897 52.0035 261.489 52.264 261.136 52.5968C260.78 52.9312 260.509 53.336 260.321 53.8144C260.132 54.2931 260.081 54.8451 260.164 55.4694C260.205 55.9283 260.321 56.4787 260.509 57.1245C260.697 57.7702 260.874 58.6137 261.042 59.6531C261.208 60.6941 261.344 61.9539 261.449 63.4313C261.553 64.9097 261.584 66.7206 261.543 68.8643C261.501 71.0089 261.344 73.5165 261.073 76.3888C260.8 79.2614 260.372 82.592 259.788 86.3798C259.704 87.2544 260.038 87.9625 260.791 88.5037C261.543 89.0438 262.399 89.3561 263.36 89.44C264.321 89.5232 265.23 89.3561 266.086 88.9408C266.943 88.5235 267.434 87.7955 267.559 86.7552C267.685 84.7984 267.925 82.7171 268.28 80.5101C268.635 78.3046 269.074 76.1187 269.596 73.9536C270.118 71.7894 270.713 69.7286 271.383 67.7712C272.051 65.8144 272.792 64.0873 273.607 62.5885C274.422 61.0896 275.268 59.8931 276.145 58.998C277.023 58.1027 277.942 57.6553 278.903 57.6553C280.073 57.6553 280.981 58.1853 281.63 59.2467C282.276 60.3091 282.736 61.6733 283.008 63.3369C283.28 65.0032 283.405 66.8253 283.385 68.8019C283.362 70.7792 283.28 72.6838 283.134 74.5152C282.987 76.3478 282.82 77.9814 282.632 79.4176C282.444 80.8541 282.308 81.8435 282.225 82.3837C282.225 83.3414 282.59 84.1005 283.321 84.663C284.052 85.2246 284.867 85.5581 285.766 85.6621C286.664 85.7664 287.51 85.5993 288.304 85.1619C289.097 84.7248 289.557 83.9872 289.683 82.9453C290.1 79.9485 290.675 76.9411 291.406 73.9229C292.136 70.9043 292.973 68.199 293.913 65.8048C294.853 63.4108 295.897 61.4541 297.047 59.9344C298.196 58.4157 299.418 57.6553 300.714 57.6553C301.381 57.6553 301.894 58.1139 302.248 59.0288C302.603 59.9446 302.781 61.1933 302.781 62.7753C302.781 63.9414 302.687 65.1385 302.499 66.3664C302.311 67.5945 302.092 68.8643 301.841 70.1756C301.59 71.4873 301.371 72.8294 301.183 74.2032C300.995 75.5776 300.901 77.0131 300.901 78.512C300.901 79.5529 301.006 80.7603 301.214 82.1341C301.423 83.5072 301.82 84.8096 302.405 86.0368C302.99 87.2653 303.794 88.3056 304.819 89.1587C305.842 90.0121 307.147 90.439 308.734 90.439C311.117 90.439 313.226 89.9289 315.065 88.9091C316.903 87.8896 318.481 86.5581 319.797 84.9133C319.865 84.8269 319.927 84.735 319.994 84.6496C320.093 84.8928 320.183 85.1501 320.298 85.3814C321.197 87.2131 322.416 88.6281 323.965 89.6278C325.511 90.6269 327.328 91.1782 329.418 91.2829C331.504 91.3856 333.783 91.0006 336.25 90.127C338.087 89.4608 339.684 88.6281 341.044 87.6291C342.4 86.6301 343.623 85.4125 344.708 83.976C345.796 82.5398 346.788 80.8848 347.687 79.0121C348.586 77.1376 349.492 74.9945 350.41 72.5792C350.58 71.9145 350.423 71.3209 349.943 70.7997C349.463 70.28 348.877 69.9155 348.186 69.7065Z" fill="white"/>
<path fill-rule="evenodd" clip-rule="evenodd" d="M382.234 62.7392C382.026 63.9676 381.745 65.3216 381.39 66.7984C381.031 68.2768 380.583 69.8064 380.042 71.3884C379.498 72.9705 378.83 74.3967 378.036 75.6659C377.242 76.9366 376.334 77.9449 375.31 78.6943C374.286 79.4438 373.105 79.7561 371.767 79.631C371.098 79.5484 370.586 79.0905 370.234 78.2572C369.879 77.4252 369.69 76.3628 369.668 75.0723C369.649 73.7827 369.761 72.367 370.014 70.8262C370.263 69.2867 370.65 67.7769 371.175 66.2985C371.694 64.8217 372.334 63.4576 373.086 62.2083C373.838 60.9596 374.702 59.9916 375.687 59.3046C376.666 58.6179 377.745 58.2963 378.913 58.3366C380.084 58.3785 381.335 58.9609 382.673 60.0851C382.59 60.6268 382.446 61.512 382.234 62.7392ZM404.513 67.5161C403.866 67.1833 403.198 67.1113 402.51 67.2982C401.822 67.4854 401.329 68.1206 401.038 69.2028C400.868 70.3689 400.494 71.7417 399.908 73.3238C399.322 74.9059 398.602 76.4057 397.745 77.8198C396.89 79.2355 395.908 80.4121 394.801 81.3484C393.694 82.2857 392.513 82.7126 391.262 82.6278C390.215 82.5455 389.482 82.0147 389.066 81.0361C388.647 80.0579 388.43 78.8307 388.407 77.3516C388.388 75.8748 388.535 74.2096 388.846 72.3568C389.159 70.5043 389.537 68.6623 389.975 66.8294C390.414 64.9983 390.862 63.239 391.322 61.5529C391.78 59.8672 392.158 58.4412 392.452 57.2758C392.785 56.2348 392.679 55.3507 392.138 54.6211C391.594 53.8937 390.916 53.3724 390.1 53.0604C389.284 52.7484 388.458 52.6652 387.623 52.8108C386.788 52.9568 386.247 53.4041 385.994 54.1529C383.53 52.0297 381.159 50.8851 378.881 50.7187C376.606 50.5523 374.503 51.0521 372.583 52.2176C370.66 53.383 368.958 55.0688 367.476 57.2758C365.991 59.4828 364.791 61.8867 363.873 64.4883C362.951 67.0899 362.378 69.7446 362.148 72.4502C361.918 75.1564 362.097 77.6233 362.682 79.8502C363.268 82.0771 364.298 83.8995 365.783 85.3136C367.265 86.7292 369.281 87.4374 371.831 87.4374C372.961 87.4374 374.046 87.2086 375.089 86.7507C376.135 86.2918 377.095 85.7507 377.972 85.1263C378.849 84.5023 379.623 83.8464 380.292 83.1593C380.961 82.4726 381.482 81.9004 381.86 81.4419C382.151 82.9408 382.631 84.2115 383.3 85.2518C383.969 86.2918 384.73 87.1465 385.588 87.8115C386.442 88.4767 387.342 88.9663 388.282 89.2793C389.223 89.5916 390.132 89.7475 391.009 89.7475C392.974 89.7475 394.81 89.0812 396.526 87.7487C398.238 86.4179 399.774 84.7827 401.13 82.8473C402.487 80.911 403.607 78.872 404.484 76.7273C405.361 74.5836 405.946 72.679 406.238 71.0131C406.532 70.3888 406.478 69.7337 406.081 69.0467C405.684 68.36 405.162 67.8505 404.513 67.5161Z" fill="white"/>
<path fill-rule="evenodd" clip-rule="evenodd" d="M517.35 102.002C516.995 103.417 516.441 104.615 515.689 105.592C514.937 106.57 513.996 107.081 512.867 107.123C512.156 107.164 511.615 106.789 511.238 105.999C510.863 105.207 510.601 104.188 510.457 102.939C510.31 101.69 510.246 100.295 510.268 98.7545C510.287 97.2143 510.351 95.6949 510.457 94.1961C510.559 92.6978 510.684 91.302 510.831 90.0124C510.979 88.7209 511.091 87.7237 511.177 87.0153C512.595 87.1817 513.779 87.7948 514.716 88.8572C515.657 89.9189 516.377 91.1778 516.879 92.6354C517.382 94.0924 517.673 95.6639 517.756 97.35C517.839 99.0357 517.705 100.586 517.35 102.002ZM494.662 102.002C494.307 103.417 493.753 104.615 493.001 105.592C492.249 106.57 491.308 107.081 490.182 107.123C489.471 107.164 488.927 106.789 488.553 105.999C488.175 105.207 487.913 104.188 487.769 102.939C487.622 101.69 487.558 100.295 487.58 98.7545C487.599 97.2143 487.663 95.6949 487.769 94.1961C487.871 92.6978 487.996 91.302 488.143 90.0124C488.291 88.7209 488.406 87.7237 488.489 87.0153C489.91 87.1817 491.091 87.7948 492.028 88.8572C492.969 89.9189 493.689 91.1778 494.191 92.6354C494.694 94.0924 494.985 95.6639 495.068 97.35C495.151 99.0357 495.017 100.586 494.662 102.002ZM471.379 66.533C471.337 67.5314 471.244 68.4162 471.097 69.1865C470.95 69.958 470.751 70.446 470.502 70.6543C470.041 70.4041 469.478 69.7599 468.809 68.718C468.14 67.678 467.619 66.5007 467.241 65.1897C466.867 63.8783 466.751 62.5887 466.899 61.318C467.043 60.0489 467.702 59.061 468.873 58.3519C469.331 58.1023 469.727 58.1958 470.063 58.6332C470.396 59.0703 470.668 59.7049 470.879 60.5375C471.087 61.3711 471.231 62.3279 471.318 63.4102C471.401 64.4934 471.42 65.5334 471.379 66.533ZM465.833 78.991C465.183 79.677 464.463 80.2703 463.67 80.7702C462.876 81.27 462.06 81.6447 461.228 81.8943C460.39 82.1449 459.638 82.2066 458.969 82.0815C457.091 81.7074 455.647 80.8946 454.646 79.646C453.644 78.3977 453.004 76.9305 452.735 75.2444C452.463 73.558 452.492 71.757 452.828 69.8422C453.161 67.9276 453.724 66.1481 454.521 64.5036C455.315 62.8588 456.275 61.4431 457.404 60.2572C458.531 59.0703 459.763 58.3321 461.1 58.0396C460.598 60.1628 460.431 62.3596 460.598 64.6278C460.767 66.8969 461.311 69.0303 462.23 71.0284C462.812 72.2374 463.513 73.3391 464.329 74.3382C465.142 75.3378 466.137 76.1913 467.305 76.8988C466.972 77.607 466.479 78.3039 465.833 78.991ZM535.18 67.1574C535.305 66.2006 535.491 65.1897 535.743 64.1279C535.993 63.0671 536.307 62.0364 536.684 61.0377C537.059 60.0377 537.497 59.1743 537.999 58.446C538.502 57.718 539.033 57.1967 539.596 56.8847C540.163 56.5724 540.735 56.6034 541.321 56.9782C541.948 57.3535 542.335 58.1442 542.479 59.351C542.627 60.559 542.479 61.8489 542.041 63.2233C541.603 64.597 540.819 65.8876 539.692 67.094C538.566 68.303 537.039 69.0927 535.116 69.4674C535.033 68.8854 535.055 68.1151 535.18 67.1574ZM560.438 67.1574C560.563 66.2006 560.748 65.1897 561.001 64.1279C561.251 63.0671 561.564 62.0364 561.942 61.0377C562.316 60.0377 562.755 59.1743 563.257 58.446C563.759 57.718 564.291 57.1967 564.854 56.8847C565.42 56.5724 565.993 56.6034 566.579 56.9782C567.206 57.3535 567.59 58.1442 567.737 59.351C567.884 60.559 567.737 61.8489 567.299 63.2233C566.86 64.597 566.076 65.8876 564.95 67.094C563.82 68.303 562.294 69.0927 560.374 69.4674C560.291 68.8854 560.31 68.1151 560.438 67.1574ZM583.907 70.8105C583.427 70.2908 582.841 69.9263 582.153 69.717C581.465 69.5097 580.806 69.4889 580.179 69.6553C579.551 69.8217 579.155 70.2591 578.988 70.9663C578.652 72.2991 578.121 73.6623 577.388 75.0559C576.659 76.4518 575.759 77.7734 574.694 79.0217C573.628 80.2703 572.428 81.3746 571.091 82.3318C569.753 83.2895 568.355 83.9762 566.892 84.3916C565.43 84.8511 564.217 84.9026 563.257 84.5484C562.294 84.1951 561.532 83.5913 560.969 82.7382C560.406 81.8841 559.999 80.8543 559.747 79.646C559.497 78.4396 559.35 77.191 559.308 75.8998C561.689 76.0668 563.811 75.6406 565.67 74.6194C567.529 73.5999 569.107 72.246 570.403 70.5599C571.695 68.8751 572.678 66.9807 573.347 64.8783C574.015 62.7756 574.39 60.6841 574.476 58.6022C574.515 56.6454 574.223 54.9903 573.596 53.6374C572.972 52.285 572.124 51.2329 571.059 50.4844C569.993 49.734 568.771 49.2975 567.391 49.1724C566.015 49.0473 564.614 49.2358 563.193 49.734C561.481 50.318 560.028 51.2646 558.838 52.5759C557.647 53.8876 556.655 55.4079 555.862 57.1343C555.068 58.863 554.441 60.7247 553.98 62.7234C553.519 64.7215 553.187 66.6892 552.979 68.6246C552.777 70.503 552.665 72.3007 552.639 74.0214C552.483 74.3644 552.313 74.709 552.131 75.0559C551.401 76.4518 550.502 77.7734 549.436 79.0217C548.374 80.2703 547.171 81.3746 545.833 82.3318C544.495 83.2895 543.097 83.9762 541.635 84.3916C540.172 84.8511 538.959 84.9026 537.999 84.5484C537.039 84.1951 536.275 83.5913 535.711 82.7382C535.148 81.8841 534.742 80.8543 534.489 79.646C534.239 78.4396 534.092 77.191 534.051 75.8998C536.431 76.0668 538.553 75.6406 540.412 74.6194C542.271 73.5999 543.849 72.246 545.145 70.5599C546.438 68.8751 547.42 66.9807 548.089 64.8783C548.758 62.7756 549.135 60.6841 549.219 58.6022C549.26 56.6454 548.966 54.9903 548.342 53.6374C547.715 52.285 546.867 51.2329 545.801 50.4844C544.735 49.734 543.513 49.2975 542.137 49.1724C540.758 49.0473 539.356 49.2358 537.935 49.734C536.223 50.318 534.771 51.2646 533.58 52.5759C532.39 53.8876 531.398 55.4079 530.604 57.1343C529.811 58.863 529.183 60.7247 528.726 62.7234C528.265 64.7215 527.929 66.6892 527.721 68.6246C527.603 69.7164 527.523 70.7746 527.465 71.814C527.062 72.1564 526.668 72.501 526.249 72.8393C524.809 74.0054 523.292 75.0559 521.705 75.9932C520.115 76.9305 518.467 77.7004 516.755 78.3039C515.039 78.9078 513.286 79.2722 511.491 79.3964L515.375 37.9324C515.625 37.0575 515.5 36.2886 515.001 35.6223C514.499 34.9558 513.849 34.4982 513.055 34.2486C512.262 33.998 511.417 34.0194 510.518 34.3103C509.619 34.6025 508.879 35.2687 508.294 36.3081C507.999 37.8911 507.699 40.0556 507.385 42.8028C507.071 45.5503 506.758 48.5481 506.444 51.7954C506.131 55.0428 505.817 58.3938 505.503 61.8489C505.19 65.3052 504.918 68.5311 504.691 71.5282C504.678 71.6614 504.671 71.7817 504.659 71.9132C504.294 72.222 503.939 72.5334 503.561 72.8393C502.121 74.0054 500.604 75.0559 499.017 75.9932C497.43 76.9305 495.779 77.7004 494.067 78.3039C492.351 78.9078 490.598 79.2722 488.803 79.3964L492.687 37.9324C492.94 37.0575 492.812 36.2886 492.313 35.6223C491.811 34.9558 491.161 34.4982 490.367 34.2486C489.574 33.998 488.729 34.0194 487.83 34.3103C486.931 34.6025 486.191 35.2687 485.606 36.3081C485.315 37.8911 485.011 40.0556 484.697 42.8028C484.383 45.5503 484.07 48.5481 483.756 51.7954C483.443 55.0428 483.132 58.3938 482.815 61.8489C482.505 65.3052 482.23 68.5311 482.003 71.5282C481.996 71.5884 481.993 71.6431 481.99 71.7033C481.331 72.0066 480.617 72.2729 479.839 72.4962C479.046 72.726 478.147 72.8614 477.145 72.9026C477.311 72.1526 477.446 71.3199 477.551 70.4041C477.657 69.4889 477.74 68.5311 477.804 67.5314C477.865 66.533 477.887 65.5334 477.865 64.5343C477.843 63.5346 477.791 62.6194 477.708 61.7862C477.5 59.9974 477.113 58.3004 476.55 56.6969C475.987 55.095 475.225 53.7529 474.262 52.6694C473.302 51.5871 472.102 50.8582 470.659 50.4844C469.219 50.1097 467.535 50.2338 465.615 50.8582C462.771 50.4844 460.214 50.7449 457.935 51.6393C455.66 52.5353 453.686 53.8354 452.012 55.542C450.342 57.2498 448.975 59.2575 447.91 61.5682C446.844 63.8783 446.134 66.2521 445.779 68.6863C445.628 69.7186 445.555 70.7462 445.532 71.7714C444.886 73.0911 444.175 74.2447 443.395 75.2127C442.291 76.5865 441.142 77.7106 439.948 78.5846C438.758 79.4591 437.577 80.1254 436.409 80.5833C435.238 81.0418 434.195 81.3542 433.276 81.5196C432.188 81.7279 431.145 81.7494 430.14 81.5823C429.139 81.4166 428.217 80.9375 427.385 80.1458C426.716 79.5638 426.204 78.6265 425.849 77.3359C425.494 76.0454 425.286 74.5791 425.222 72.9337C425.158 71.2889 425.222 69.5714 425.411 67.7817C425.599 65.9922 425.919 64.2953 426.38 62.6924C426.841 61.0898 427.423 59.6534 428.137 58.3826C428.844 57.1145 429.679 56.2082 430.643 55.6671C431.183 55.751 431.519 56.0726 431.644 56.6345C431.772 57.1967 431.801 57.863 431.74 58.6332C431.676 59.4041 431.583 60.1945 431.459 61.0057C431.331 61.8178 431.27 62.4953 431.27 63.0354C431.478 64.1596 431.884 65.0342 432.492 65.6585C433.097 66.2828 433.775 66.6479 434.527 66.751C435.279 66.8556 436.022 66.679 436.755 66.2204C437.484 65.7631 438.079 65.0342 438.54 64.0345C438.582 64.0764 438.643 64.0972 438.726 64.0972L439.606 56.167C439.855 55.0841 439.689 54.127 439.103 53.2943C438.518 52.4617 437.747 51.9823 436.783 51.8582C435.574 50.1097 433.932 49.1836 431.865 49.079C429.798 48.975 427.676 49.6518 425.503 51.1087C424.166 52.0671 422.985 53.3878 421.964 55.0735C420.937 56.7602 420.102 58.6332 419.455 60.6937C418.806 62.7542 418.348 64.9305 418.076 67.2201C417.804 69.5097 417.753 71.7372 417.919 73.9007C418.086 76.0668 418.473 78.1068 419.081 80.0207C419.686 81.9365 420.531 83.5391 421.619 84.8287C422.537 85.9529 423.58 86.7762 424.751 87.2965C425.919 87.8172 427.142 88.1388 428.419 88.2639C429.692 88.3884 430.956 88.3359 432.211 88.1077C433.462 87.8796 434.655 87.5573 435.782 87.1397C437.244 86.5996 438.748 85.9119 440.294 85.0793C441.839 84.2473 443.324 83.2476 444.745 82.0815C445.491 81.4681 446.211 80.7996 446.905 80.0825C447.222 80.8652 447.577 81.6226 448.003 82.3318C449.132 84.2044 450.655 85.7247 452.579 86.8901C454.499 88.0556 456.86 88.6165 459.66 88.5759C462.668 88.534 465.446 87.7749 467.996 86.2969C470.543 84.8201 472.633 82.6431 474.262 79.7711C476.703 79.7711 479.103 79.3705 481.465 78.5743C481.446 78.8262 481.427 79.0914 481.407 79.3346C481.241 81.541 481.155 83.0393 481.155 83.8306C481.116 85.2044 481.02 86.9004 480.873 88.9189C480.729 90.9385 480.633 93.0617 480.591 95.2885C480.55 97.5154 480.633 99.7638 480.844 102.034C481.052 104.302 481.491 106.363 482.159 108.216C482.828 110.067 483.779 111.639 485.011 112.93C486.243 114.22 487.862 114.991 489.868 115.241C491.999 115.531 493.836 115.157 495.382 114.117C496.927 113.075 498.182 111.65 499.145 109.839C500.105 108.027 500.783 105.936 501.18 103.563C501.577 101.191 501.692 98.8069 501.526 96.4127C501.356 94.0185 500.918 91.7609 500.207 89.6383C499.497 87.5145 498.515 85.766 497.263 84.3916C498.015 84.1849 498.915 83.7894 499.958 83.2057C501.001 82.6233 502.076 81.9673 503.187 81.2383C503.459 81.0594 503.727 80.871 503.996 80.687C503.894 82.1622 503.843 83.2143 503.843 83.8306C503.801 85.2044 503.708 86.9004 503.561 88.9189C503.417 90.9385 503.321 93.0617 503.279 95.2885C503.238 97.5154 503.321 99.7638 503.529 102.034C503.74 104.302 504.179 106.363 504.847 108.216C505.513 110.067 506.463 111.639 507.699 112.93C508.931 114.22 510.55 114.991 512.556 115.241C514.684 115.531 516.524 115.157 518.07 114.117C519.615 113.075 520.87 111.65 521.83 109.839C522.79 108.027 523.468 105.936 523.868 103.563C524.265 101.191 524.377 98.8069 524.211 96.4127C524.044 94.0185 523.606 91.7609 522.895 89.6383C522.185 87.5145 521.203 85.766 519.948 84.3916C520.703 84.1849 521.599 83.7894 522.646 83.2057C523.689 82.6233 524.764 81.9673 525.875 81.2383C526.447 80.8598 527.02 80.4694 527.59 80.0674C527.807 82.1036 528.268 83.8892 529.004 85.3913C529.903 87.2236 531.126 88.6386 532.671 89.6383C534.217 90.6367 536.035 91.1887 538.124 91.2927C540.214 91.3954 542.489 91.0114 544.956 90.1369C546.793 89.4713 548.393 88.6386 549.75 87.6396C551.107 86.6399 552.329 85.4223 553.417 83.9868C553.481 83.9036 553.539 83.813 553.599 83.7292C553.795 84.3122 554.009 84.8722 554.262 85.3913C555.161 87.2236 556.383 88.6386 557.929 89.6383C559.475 90.6367 561.292 91.1887 563.382 91.2927C565.471 91.3954 567.747 91.0114 570.214 90.1369C572.051 89.4713 573.651 88.6386 575.007 87.6396C576.364 86.6399 577.587 85.4223 578.675 83.9868C579.759 82.5497 580.751 80.8946 581.651 79.0217C582.55 77.1481 583.459 75.0054 584.377 72.5897C584.543 71.9244 584.387 71.3308 583.907 70.8105Z" fill="white"/>
<mask id="mask1_155_1097" style="mask-type:luminance" maskUnits="userSpaceOnUse" x="592" y="25" width="32" height="33">
<path d="M623.433 25.6001H592V57.0332H623.433V25.6001Z" fill="white"/>
</mask>
<g mask="url(#mask1_155_1097)">
<path fill-rule="evenodd" clip-rule="evenodd" d="M606.243 29.535C599.587 29.535 594.192 34.9309 594.192 41.5869C594.192 48.2429 599.587 53.6387 606.243 53.6387C612.899 53.6387 618.294 48.2429 618.294 41.5869C618.294 34.9309 612.899 29.535 606.243 29.535ZM592 41.5869C592 33.7206 598.378 27.3438 606.243 27.3438C614.109 27.3438 620.486 33.7206 620.486 41.5869C620.486 49.4531 614.109 55.8301 606.243 55.8301C598.378 55.8301 592 49.4531 592 41.5869ZM601.862 36.1085C601.862 35.5034 602.352 35.0128 602.957 35.0128H607.341C608.502 35.0128 609.616 35.4746 610.438 36.2963C611.261 37.1181 611.722 38.233 611.722 39.3952C611.722 40.5574 611.261 41.6723 610.438 42.4941C610.112 42.8218 609.738 43.0922 609.331 43.2989L611.523 46.44C611.869 46.936 611.747 47.6192 611.251 47.9654C610.755 48.3117 610.074 48.1901 609.728 47.6938L606.995 43.7776H604.051V47.0646C604.051 47.6698 603.562 48.1603 602.957 48.1603C602.352 48.1603 601.862 47.6698 601.862 47.0646V36.1085ZM607.565 41.575C607.51 41.5747 607.459 41.5782 607.405 41.5856C607.382 41.5862 607.36 41.5866 607.341 41.5866H604.051V37.2038H607.341C607.92 37.2038 608.477 37.4349 608.89 37.8458C609.299 38.2566 609.53 38.8141 609.53 39.3952C609.53 39.9763 609.299 40.5338 608.89 40.9446C608.531 41.3024 608.061 41.5238 607.565 41.575Z" fill="white"/>
</g>
</g>
</g>
<defs>
<clipPath id="clip0_155_1097">
<rect width="624" height="128" fill="white"/>
</clipPath>
</defs>
</svg>
