<svg width="2500" height="465" viewBox="0 0 2500 465" fill="none" xmlns="http://www.w3.org/2000/svg">
<g clip-path="url(#clip0_155_1074)">
<path d="M2201.5 0.187989C2197.14 0.186806 2192.97 1.91453 2189.88 4.99145C2186.8 8.06838 2185.07 12.2427 2185.07 16.5971V131.586H2488.87L2350.52 0.223603L2201.5 0.187989ZM2500 166.371C2500 164.217 2499.58 162.083 2498.75 160.092C2497.93 158.101 2496.72 156.293 2495.19 154.771C2493.67 153.249 2491.86 152.043 2489.86 151.222C2487.87 150.402 2485.74 149.983 2483.58 149.989H2368.6V453.785L2499.95 315.398L2500 166.371ZM2333.76 464.812C2338.11 464.8 2342.27 463.065 2345.34 459.987C2348.41 456.91 2350.14 452.74 2350.14 448.394V333.419H2046.34L2184.67 464.781L2333.76 464.812ZM2035.25 298.646C2035.25 300.802 2035.67 302.936 2036.49 304.928C2037.32 306.919 2038.53 308.729 2040.05 310.254C2041.57 311.778 2043.38 312.988 2045.37 313.813C2047.37 314.638 2049.5 315.064 2051.66 315.064H2166.64V11.2461L2035.26 149.597L2035.25 298.646Z" fill="black"/>
<path d="M642.738 55.6258V195.918H447.262V55.6258L376.092 55.5991V409.339H447.262V257.37H642.738V409.339H714.037V55.6258H642.738ZM1589.82 55.6258V409.277L1902.17 409.259L1862.59 347.023H1661.24V257.37H1856.21V197.396H1661.24V116.428H1862.26L1901.04 55.6258H1589.82ZM111.485 55.5813C37.4124 55.5813 0 100.571 0 166.087V298.148C0 373.943 48.1856 409.348 111.102 409.348L334.419 409.303L293.049 344.66H124.885C89.1773 344.66 73.6229 331.754 73.6229 291.768V171.972C73.6229 133.313 86.7066 118.231 125.837 118.231H294.803L334.548 55.5857L111.485 55.5813ZM1277.41 55.4789C1234.62 55.4789 1190.82 81.1699 1190.82 147.296V164.284C1190.82 233.175 1233.01 259.502 1275.18 259.694H1423.31C1438.69 259.694 1451.2 262.24 1451.2 288.256L1451.18 318.323C1450.8 341.632 1439.11 347.023 1422.78 347.023H1227.92L1188.01 409.254H1427.34C1485.09 409.254 1524.27 380.554 1524.27 314.196V289.819C1524.27 225.678 1487.87 195.41 1431.41 195.41H1289.98C1274.28 195.41 1263.37 191.106 1263.37 167.881L1263.36 143.432C1263.36 123.653 1270.87 116.428 1289.14 116.428L1474.7 116.356L1513.49 55.4121L1277.41 55.4789ZM920.901 55.6792L753.163 409.303H832.453L865.12 336.272H1047.38L1079.94 409.303H1159.55L991.429 55.6748L920.901 55.6792ZM956.052 129.08L1020.51 276.08H892L956.052 129.08Z" fill="black"/>
</g>
<defs>
<clipPath id="clip0_155_1074">
<rect width="2500" height="465" fill="white"/>
</clipPath>
</defs>
</svg>
