<svg width="696" height="175" viewBox="0 0 696 175" fill="none" xmlns="http://www.w3.org/2000/svg">
<g clip-path="url(#clip0_155_1077)">
<path d="M161.519 82.1897H24.9489C21.4689 82.1897 18.6289 79.3397 18.6289 75.8697V66.2297C18.6289 55.3197 27.4789 46.4697 38.3889 46.4697H147.929C158.839 46.4697 167.689 55.3197 167.689 66.2297V75.8697C167.839 79.3497 164.989 82.1897 161.519 82.1897Z" fill="white"/>
<path d="M132.75 36.0398H53.7202C50.2402 36.0398 47.2402 33.1898 47.2402 29.5598C47.2402 13.4398 60.3602 0.319824 76.4802 0.319824H109.99C126.11 0.319824 139.23 13.4398 139.23 29.5598C139.23 33.1998 136.38 36.0398 132.75 36.0398Z" fill="white"/>
<path d="M167.84 92.6299H18.6295C8.82953 92.6299 0.769531 100.69 0.769531 110.49C0.769531 120.29 8.82953 128.35 18.6295 128.35H71.5795C73.4795 118.23 82.3295 110.49 93.0795 110.49C103.83 110.49 112.84 118.23 114.73 128.35H167.68C177.48 128.35 185.54 120.29 185.54 110.49C185.54 100.69 177.64 92.6299 167.84 92.6299Z" fill="white"/>
<path d="M161.359 138.78H115.049V174.5H149.819C159.619 174.5 167.679 166.44 167.679 156.64V145.26C167.839 141.78 164.989 138.78 161.359 138.78Z" fill="white"/>
<path d="M24.9487 138.78C21.4687 138.78 18.4688 141.63 18.4688 145.26V156.64C18.4688 166.44 26.5288 174.5 36.3288 174.5H71.0988V138.78C71.2588 138.78 24.9487 138.78 24.9487 138.78Z" fill="white"/>
<path d="M327.009 99.8996C327.009 119.34 313.569 131.83 296.029 131.83C287.649 131.83 281.009 129.14 276.589 123.77V130.88H259.359V45.3696H277.379V75.5596C281.959 70.4996 288.289 67.9696 296.029 67.9696C313.409 67.9696 327.009 80.4596 327.009 99.8996ZM308.669 99.8996C308.669 89.1496 301.869 82.6696 292.859 82.6696C283.849 82.6696 277.049 89.1496 277.049 99.8996C277.049 110.65 283.849 117.13 292.859 117.13C301.869 117.13 308.669 110.65 308.669 99.8996Z" fill="white"/>
<path d="M385.8 111.44L395.44 121.87C389.75 128.51 381.06 131.83 369.83 131.83C348.33 131.83 334.42 118.39 334.42 99.8997C334.42 81.4097 348.49 67.9697 367.61 67.9697C385.15 67.9697 399.54 79.5097 399.7 99.4197L353.7 108.27C356.39 114.43 362.08 117.44 370.14 117.44C376.79 117.44 381.54 115.55 385.8 111.44ZM351.98 97.9997L382.17 92.1497C380.43 85.8297 375.06 81.5597 367.47 81.5597C358.62 81.5597 352.3 87.5697 351.98 97.9997Z" fill="white"/>
<path d="M458.509 111.44L468.149 121.87C462.459 128.51 453.769 131.83 442.539 131.83C421.039 131.83 407.129 118.39 407.129 99.8997C407.129 81.4097 421.199 67.9697 440.319 67.9697C457.859 67.9697 472.249 79.5097 472.409 99.4197L426.569 108.27C429.259 114.43 434.949 117.44 443.009 117.44C449.499 117.44 454.239 115.55 458.509 111.44ZM424.689 97.9997L454.879 92.1497C453.139 85.8297 447.769 81.5597 440.179 81.5597C431.329 81.5597 425.159 87.5697 424.689 97.9997Z" fill="white"/>
<path d="M547.97 95.4696V131.03H529.95V98.1496C529.95 88.1896 525.37 83.4496 517.31 83.4496C508.62 83.4496 502.45 88.8196 502.45 100.2V130.86H484.43V45.3496H502.45V75.3796C507.35 70.4796 514.3 67.9496 522.21 67.9496C536.91 67.9696 547.97 76.4996 547.97 95.4696Z" fill="white"/>
<path d="M562.039 50.1097C562.039 44.4197 566.619 39.9897 573.259 39.9897C579.899 39.9897 584.479 44.0997 584.479 49.6297C584.479 55.6397 579.899 60.0597 573.259 60.0597C566.629 60.0697 562.039 55.7997 562.039 50.1097ZM564.259 68.9198H582.279V131.04H564.259C564.259 130.88 564.259 68.9198 564.259 68.9198Z" fill="white"/>
<path d="M596.82 50.1097C596.82 44.4197 601.4 39.9897 608.04 39.9897C614.68 39.9897 619.26 44.0997 619.26 49.6297C619.26 55.6397 614.68 60.0597 608.04 60.0597C601.4 60.0597 596.82 55.7997 596.82 50.1097ZM599.03 68.9198H617.05V131.04H599.03C599.03 130.88 599.03 68.9198 599.03 68.9198Z" fill="white"/>
<path d="M695.29 68.9199L669.05 131.04H650.4L624.32 68.9199H642.97L660.2 111.12L677.9 68.9199C678.06 68.9199 695.29 68.9199 695.29 68.9199Z" fill="white"/>
</g>
<defs>
<clipPath id="clip0_155_1077">
<rect width="696" height="175" fill="white"/>
</clipPath>
</defs>
</svg>
