<?xml version="1.0" encoding="utf-8"?>
<svg viewBox="0 0 278 304" fill="none" xmlns="http://www.w3.org/2000/svg">
  <path d="M272.563 62.0217C275.169 61.9725 277.185 64.136 277.136 66.447C277.087 67.8237 276.595 68.9546 275.562 69.8889C273.399 71.8557 270.105 70.8231 269.465 67.9712C269.318 67.332 269.269 66.5945 269.465 66.0045C269.76 65.0211 270.252 64.0377 270.744 63.1034C271.235 62.3167 272.071 62.0217 272.563 62.0217Z" fill="black" transform="matrix(1, 0, 0, 1, 0, 1.4210854715202004e-14)"/>
  <path d="M274.431 45.2548C274.431 47.1232 272.956 48.795 271.039 48.9917C269.269 49.1883 267.548 48.0083 267.204 46.2382C266.958 45.0581 267.253 43.878 267.744 42.8454C267.941 42.4029 268.482 42.0095 268.924 41.7637C271.235 40.6328 274.431 42.6488 274.431 45.2548Z" fill="black" transform="matrix(1, 0, 0, 1, 0, 1.4210854715202004e-14)"/>
  <line id="secondary" x1="181.352" y1="118.066" x2="181.352" y2="180.702" style="fill: none; stroke: rgb(44, 169, 188); stroke-linecap: round; stroke-linejoin: round; stroke-width: 2;" transform="matrix(1, 0, 0, 1, 0, 1.4210854715202004e-14)"/>
  <polyline id="secondary-2" data-name="secondary" points="229.234 178.958 229.234 147.641 131.145 147.641 131.145 178.958" style="fill: none; stroke: rgb(44, 169, 188); stroke-linecap: round; stroke-linejoin: round; stroke-width: 2;" transform="matrix(1, 0, 0, 1, 0, 1.4210854715202004e-14)"/>
  <path id="primary" d="M 245.386 118.647 L 203.347 118.647 L 203.347 93.592 L 245.386 93.592 L 245.386 118.647 Z M 287.424 206.338 L 287.424 181.283 L 259.398 181.283 L 259.398 206.338 L 287.424 206.338 Z M 189.335 206.338 L 189.335 181.283 L 161.309 181.283 L 161.309 206.338 L 189.335 206.338 Z M 238.379 206.338 L 238.379 181.283 L 210.354 181.283 L 210.354 206.338 L 238.379 206.338 Z" style="fill: none; stroke: rgb(0, 0, 0); stroke-linecap: round; stroke-linejoin: round; stroke-width: 2;" transform="matrix(1, 0, 0, 1, 0, 1.4210854715202004e-14)"/>
  <path d="M 169.318 59.587 L 115.766 136.667 L 102.088 81.496 L 152.356 42.088 C 84.143 -14.854 -11.989 34.657 -20.675 131.211 C -23.192 159.216 -17.509 187.376 -4.534 211.225 C -1.272 208.868 2.496 207.608 6.34 207.599 L 102.088 207.599 C 117.886 207.599 127.756 227.302 119.863 243.066 C 116.197 250.38 109.421 254.887 102.088 254.887 L 35.407 254.887 C 109.05 302.012 199.347 239.598 197.945 142.538 C 197.501 111.792 187.318 82.292 169.318 59.587 Z M 115.766 170.556 C 115.766 177.957 110.561 183.954 104.141 183.954 L -2.552 183.954 C -8.967 183.954 -14.178 177.957 -14.178 170.556 L -14.178 126.419 C -14.178 119.02 -8.967 113.022 -2.552 113.022 L 40.536 113.022 L 40.536 69.674 C 40.536 63.149 45.131 57.853 50.794 57.853 L 87.588 57.853 C 92.136 57.812 96.158 61.256 97.439 66.285 L 115.766 136.667 L 115.766 170.556 Z" style="fill: rgb(0, 187, 255);" transform="matrix(1, 0, 0, 1, 0, 1.4210854715202004e-14)"/>
  <circle cx="15.959" cy="74.082" r="3" style="fill: none; stroke: rgb(0, 0, 0); stroke-linecap: round; stroke-linejoin: round; stroke-width: 2px;" transform="matrix(6.458366870880127, 0, 0, 6.595701217651367, 4.357407093048096, -250.90423583984375)"/>
  <circle cx="1.959" cy="74.082" r="3" style="fill: none; stroke: rgb(0, 0, 0); stroke-linecap: round; stroke-linejoin: round; stroke-width: 2px;" transform="matrix(6.458366870880127, 0, 0, 6.595701217651367, 4.357407093048096, -250.90423583984375)"/>
  <line style="fill: none; stroke: rgb(0, 0, 0); stroke-linecap: round; stroke-linejoin: round; stroke-width: 2px;" x1="107.426" x2="17.591" y1="257.505" y2="257.505" transform="matrix(1, 0, 0, 1, 0, 1.4210854715202004e-14)"/>
  <line style="fill: none; stroke: rgb(0, 0, 0); stroke-linecap: round; stroke-linejoin: round; stroke-width: 2px;" x1="68.676" x2="42.843" y1="237.718" y2="237.718" transform="matrix(1, 0, 0, 1, 0, 1.4210854715202004e-14)"/>
  <line style="fill: none; stroke: rgb(0, 0, 0); stroke-linecap: round; stroke-linejoin: round; stroke-width: 2px;" x1="107.426" x2="17.591" y1="217.931" y2="217.931" transform="matrix(1, 0, 0, 1, 0, 1.4210854715202004e-14)"/>
  <line style="fill: none; stroke: rgb(0, 0, 0); stroke-linecap: round; stroke-linejoin: round; stroke-width: 2px;" x1="49.302" x2="49.302" y1="211.336" y2="204.74" transform="matrix(1, 0, 0, 1, 0, 1.4210854715202004e-14)"/>
  <line style="fill: none; stroke: rgb(0, 0, 0); stroke-linecap: round; stroke-linejoin: round; stroke-width: 2px;" x1="75.134" x2="75.134" y1="211.336" y2="204.74" transform="matrix(1, 0, 0, 1, 0, 1.4210854715202004e-14)"/>
  <path d="M 49.302 138.783 L 8.613 138.783 C 2.555 138.783 -2.366 143.803 -2.366 149.995 L -2.366 186.931 C -2.366 193.125 2.555 198.144 8.613 198.144 L 109.365 198.144 C 115.428 198.144 120.343 193.125 120.343 186.931 L 120.343 158.571 L 49.302 138.783 Z" style="fill: none; stroke: rgb(0, 0, 0); stroke-linecap: round; stroke-linejoin: round; stroke-width: 2px;" transform="matrix(1, 0, 0, 1, 0, 1.4210854715202004e-14)"/>
  <path d="M 120.343 158.571 L 103.036 99.671 C 101.808 95.475 98.023 92.606 93.734 92.614 L 58.989 92.614 C 53.641 92.614 49.302 97.046 49.302 102.507 L 49.302 136.145" style="fill: none; stroke: rgb(0, 0, 0); stroke-linecap: round; stroke-linejoin: round; stroke-width: 2px;" transform="matrix(1, 0, 0, 1, 0, 1.4210854715202004e-14)"/>
  <path d="M 17.01 132.187 L 17.01 121.699 C 17.022 119.946 16.35 118.264 15.137 117.016 L 10.551 112.4" style="fill: none; stroke: rgb(0, 0, 0); stroke-linecap: round; stroke-linejoin: round; stroke-width: 2px;" transform="matrix(1, 0, 0, 1, 0, 1.4210854715202004e-14)"/>
  <line style="fill: none; stroke: rgb(0, 0, 0); stroke-linecap: round; stroke-linejoin: round; stroke-width: 2px;" x1="75.134" x2="75.134" y1="99.208" y2="142.741" transform="matrix(1, 0, 0, 1, 0, 1.4210854715202004e-14)"/>
  <path d="M 120.343 158.571 L 176.467 87.006 C 179.547 82.87 178.765 76.975 174.723 73.815 C 171.455 71.447 167.084 71.447 163.808 73.815 L 107.426 112.4" style="fill: none; stroke: rgb(0, 0, 0); stroke-linecap: round; stroke-linejoin: round; stroke-width: 2px;" transform="matrix(1, 0, 0, 1, 0, 1.4210854715202004e-14)"/>
  <path d="M 178.469 82.72 L 178.469 158.571 C 168.529 158.524 162.271 169.493 167.205 178.311 C 171.441 185.87 181.561 187.242 187.574 181.062" style="fill: none; stroke: rgb(0, 0, 0); stroke-linecap: round; stroke-linejoin: round; stroke-width: 2px;" transform="matrix(1, 0, 0, 1, 0, 1.4210854715202004e-14)"/>
</svg>