<?xml version="1.0" encoding="iso-8859-1"?>
<!-- Uploaded to: SVG Repo, www.svgrepo.com, Generator: SVG Repo Mixer Tools -->
<svg height="800px" width="800px" version="1.1" id="Layer_1" xmlns="http://www.w3.org/2000/svg" xmlns:xlink="http://www.w3.org/1999/xlink" 
	 viewBox="0 0 512 512" xml:space="preserve">
<path style="fill:#2D527C;" d="M495.619,509.832c-9.047,0-16.381-7.334-16.381-16.381V175.923c0-8.875-7.221-16.096-16.094-16.096
	H337.57c-9.047,0-16.381-7.334-16.381-16.381s7.334-16.381,16.381-16.381h125.574c26.94,0,48.856,21.918,48.856,48.858v317.528
	C512,502.498,504.666,509.832,495.619,509.832z"/>
<path style="fill:#CEE8FA;" d="M156.901,235.673l98.786-96.12V33.125c0-12.933-15.613-19.434-24.793-10.325L16.381,235.673
	l214.513,212.873c9.18,9.109,24.793,2.608,24.793-10.325V331.795L156.901,235.673z"/>
<g>
	<path style="fill:#2D527C;" d="M338.971,311.517h-80.632l-77.947-75.846l86.719-84.38c3.17-3.083,4.957-7.317,4.957-11.74V33.123
		c0-17.069-13.921-30.955-31.031-30.955c-8.13,0-15.831,3.198-21.682,9.005L4.842,224.046C1.743,227.12,0,231.306,0,235.673
		c0,4.367,1.743,8.553,4.842,11.627l214.513,212.873c5.851,5.805,13.549,9.003,21.68,9.005h0.002c7.937,0,15.506-2.988,21.312-8.412
		c6.266-5.855,9.717-13.862,9.717-22.545v-93.94h66.507v149.17c0,9.047,7.334,16.381,16.381,16.381
		c9.047,0,16.381-7.334,16.381-16.381V343.884C371.336,326.037,356.816,311.517,338.971,311.517z M239.305,433.814L39.637,235.673
		L239.305,37.531v95.103l-93.827,91.296c-3.17,3.083-4.957,7.317-4.957,11.74s1.787,8.657,4.957,11.74l93.827,91.298V433.814z"/>
	<path style="fill:#2D527C;" d="M425.602,453.578c-9.047,0-16.381-7.334-16.381-16.381V253.69c0-0.903-0.734-1.636-1.636-1.636
		H246.218c-9.047,0-16.381-7.334-16.381-16.381s7.334-16.381,16.381-16.381h161.366c18.968,0,34.398,15.431,34.398,34.398v183.507
		C441.983,446.244,434.649,453.578,425.602,453.578z"/>
</g>
</svg>