<?xml version="1.0" encoding="iso-8859-1"?>
<!-- Uploaded to: SVG Repo, www.svgrepo.com, Generator: SVG Repo Mixer Tools -->
<svg height="800px" width="800px" version="1.1" id="Layer_1" xmlns="http://www.w3.org/2000/svg" xmlns:xlink="http://www.w3.org/1999/xlink" 
	 viewBox="0 0 511.99 511.99" xml:space="preserve">
<g>
	<path style="fill:#CACFD6;" d="M202.658,149.329c-5.89,0-10.671-4.766-10.671-10.656V10.677c0-5.891,4.781-10.671,10.671-10.671
		c5.891,0,10.672,4.781,10.672,10.671v127.996C213.329,144.563,208.548,149.329,202.658,149.329z"/>
	<path style="fill:#CACFD6;" d="M309.334,149.329c-5.906,0-10.688-4.766-10.688-10.656V10.677c0-5.891,4.781-10.671,10.688-10.671
		c5.875,0,10.656,4.781,10.656,10.671v127.996C319.99,144.563,315.209,149.329,309.334,149.329z"/>
</g>
<path style="fill:#AAB2BC;" d="M255.984,511.99c-5.875,0-10.656-4.781-10.656-10.672V138.673c0-5.89,4.781-10.671,10.656-10.671
	c5.906,0,10.672,4.781,10.672,10.671v362.646C266.656,507.209,261.891,511.99,255.984,511.99z"/>
<g>
	<path style="fill:#CACFD6;" d="M309.303,85.331c-1.844,0-3.75-0.484-5.469-1.516l-106.66-63.998
		c-5.047-3.031-6.688-9.578-3.656-14.625c3.031-5.062,9.578-6.703,14.625-3.671l106.661,63.998c5.062,3.031,6.688,9.593,3.656,14.64
		C316.459,83.487,312.928,85.331,309.303,85.331z"/>
	<path style="fill:#CACFD6;" d="M202.673,149.329c-3.625,0-7.156-1.844-9.156-5.172c-3.031-5.047-1.391-11.609,3.656-14.64
		l106.66-63.998c5.062-3.031,11.594-1.391,14.625,3.656c3.031,5.062,1.406,11.609-3.656,14.64l-106.661,63.998
		C206.423,148.845,204.533,149.329,202.673,149.329z"/>
	<path style="fill:#CACFD6;" d="M187.611,234.67c-3.875,0-7.625-2.125-9.515-5.828c-2.672-5.25-0.594-11.672,4.656-14.344
		L308.24,150.5c5.25-2.672,11.688-0.594,14.344,4.656c2.688,5.25,0.594,11.671-4.656,14.343l-125.473,63.998
		C190.892,234.295,189.236,234.67,187.611,234.67z"/>
	<path style="fill:#CACFD6;" d="M335.678,298.668c-1.406,0-2.844-0.281-4.219-0.875l-148.082-63.998
		c-5.422-2.344-7.906-8.625-5.562-14.031c2.328-5.406,8.609-7.891,14.015-5.562L339.896,278.2c5.406,2.344,7.906,8.625,5.562,14.031
		C343.74,296.263,339.803,298.668,335.678,298.668z"/>
	<path style="fill:#CACFD6;" d="M165.018,362.666c-4.328,0-8.391-2.64-9.984-6.921c-2.078-5.516,0.719-11.672,6.234-13.734
		l170.659-63.998c5.531-2.078,11.656,0.719,13.75,6.234c2.062,5.516-0.75,11.672-6.25,13.733l-170.66,63.998
		C167.518,362.447,166.268,362.666,165.018,362.666z"/>
	<path style="fill:#CACFD6;" d="M358.269,426.665c-1.125,0-2.25-0.172-3.375-0.547l-193.235-63.999
		c-5.594-1.858-8.625-7.89-6.766-13.483c1.844-5.594,7.875-8.625,13.469-6.766l193.251,63.999c5.594,1.844,8.625,7.89,6.781,13.468
		C366.894,423.821,362.738,426.665,358.269,426.665z"/>
	<path style="fill:#CACFD6;" d="M142.425,490.663c-4.609,0-8.843-3-10.218-7.641c-1.688-5.655,1.547-11.577,7.187-13.265
		l215.844-63.998c5.625-1.672,11.562,1.547,13.25,7.202c1.688,5.641-1.531,11.578-7.188,13.25L145.456,490.21
		C144.456,490.522,143.425,490.663,142.425,490.663z"/>
</g>
<g>
	<path style="fill:#E6E9ED;" d="M202.673,85.331c-3.625,0-7.156-1.844-9.156-5.172c-3.031-5.047-1.391-11.609,3.656-14.64
		l106.66-63.998c5.062-3.031,11.594-1.391,14.625,3.671c3.031,5.047,1.406,11.594-3.656,14.625l-106.66,63.998
		C206.423,84.847,204.533,85.331,202.673,85.331z"/>
	<path style="fill:#E6E9ED;" d="M309.303,149.329c-1.844,0-3.75-0.484-5.469-1.516l-106.66-63.998
		c-5.047-3.031-6.688-9.578-3.656-14.64c3.031-5.047,9.578-6.688,14.625-3.656l106.661,63.998c5.062,3.031,6.688,9.593,3.656,14.64
		C316.459,147.485,312.928,149.329,309.303,149.329z"/>
	<path style="fill:#E6E9ED;" d="M324.365,234.67c-1.625,0-3.281-0.375-4.844-1.172L194.048,169.5
		c-5.25-2.672-7.328-9.093-4.656-14.343s9.109-7.328,14.343-4.656l125.504,63.998c5.25,2.672,7.312,9.094,4.656,14.344
		C331.99,232.545,328.271,234.67,324.365,234.67z"/>
	<path style="fill:#E6E9ED;" d="M176.315,298.668c-4.125,0-8.062-2.405-9.796-6.437c-2.344-5.406,0.156-11.688,5.562-14.031
		l148.066-63.998c5.406-2.328,11.688,0.156,14.031,5.562s-0.156,11.687-5.562,14.031l-148.082,63.998
		C179.159,298.387,177.721,298.668,176.315,298.668z"/>
	<path style="fill:#E6E9ED;" d="M346.959,362.666c-1.25,0-2.5-0.219-3.719-0.688L172.565,297.98
		c-5.515-2.062-8.312-8.218-6.25-13.733c2.078-5.516,8.218-8.312,13.734-6.234l170.66,63.998c5.529,2.062,8.311,8.219,6.248,13.734
		C355.363,360.026,351.303,362.666,346.959,362.666z"/>
	<path style="fill:#E6E9ED;" d="M153.722,426.665c-4.484,0-8.64-2.844-10.125-7.328c-1.859-5.578,1.172-11.624,6.766-13.468
		l193.252-63.999c5.594-1.859,11.623,1.172,13.467,6.766c1.875,5.594-1.156,11.625-6.748,13.483l-193.253,63.999
		C155.956,426.493,154.831,426.665,153.722,426.665z"/>
	<path style="fill:#E6E9ED;" d="M369.551,490.663c-1,0-2-0.141-3.031-0.453l-215.829-63.998c-5.656-1.672-8.875-7.609-7.203-13.25
		c1.688-5.655,7.625-8.874,13.265-7.202l215.829,63.998c5.656,1.688,8.875,7.609,7.188,13.265
		C378.394,487.663,374.176,490.663,369.551,490.663z"/>
	<path style="fill:#E6E9ED;" d="M309.334,85.331H202.658c-5.89,0-10.671-4.766-10.671-10.656s4.781-10.671,10.671-10.671h106.676
		c5.875,0,10.656,4.781,10.656,10.671C319.99,80.565,315.209,85.331,309.334,85.331z"/>
	<path style="fill:#E6E9ED;" d="M479.986,149.329H32.007c-5.156,0-9.578-3.688-10.5-8.766c-0.922-5.062,1.922-10.078,6.75-11.875
		L198.924,64.69c5.5-2.078,11.656,0.719,13.718,6.234c2.078,5.516-0.719,11.672-6.234,13.734l-115.59,43.343h330.358L305.584,84.659
		c-5.531-2.062-8.312-8.219-6.25-13.734s8.219-8.312,13.75-6.234l170.652,63.998c4.812,1.797,7.654,6.812,6.748,11.875
		C489.547,145.641,485.142,149.329,479.986,149.329z"/>
</g>
<path style="fill:#434A54;" d="M341.334,21.333H170.659c-5.89,0-10.671-4.766-10.671-10.656s4.78-10.672,10.671-10.672h170.675
	c5.875,0,10.656,4.781,10.656,10.671S347.209,21.333,341.334,21.333z"/>
<g>
	<path style="fill:#E6E9ED;" d="M138.675,511.99c-0.609,0-1.234-0.047-1.859-0.172c-5.812-1.016-9.687-6.547-8.656-12.344
		l63.998-362.661c1.016-5.797,6.547-9.671,12.359-8.656c5.797,1.031,9.672,6.562,8.641,12.358l-63.982,362.661
		C148.253,508.349,143.753,511.99,138.675,511.99z"/>
	<path style="fill:#E6E9ED;" d="M373.301,511.99c-5.062,0-9.562-3.641-10.469-8.812l-63.998-362.661
		c-1.031-5.796,2.844-11.328,8.625-12.358c5.812-1.016,11.344,2.859,12.375,8.656l63.998,362.661
		c1.031,5.797-2.844,11.328-8.656,12.344C374.551,511.943,373.926,511.99,373.301,511.99z"/>
</g>
<g>
	<path style="fill:#FFCE54;" d="M501.328,181.328H437.33c-5.906,0-10.688-4.766-10.688-10.656c0-5.891,4.781-10.671,10.688-10.671
		h63.998c5.875,0,10.656,4.781,10.656,10.671C511.984,176.562,507.203,181.328,501.328,181.328z"/>
	<path style="fill:#FFCE54;" d="M479.986,213.327h-21.344c-5.875,0-10.656-4.766-10.656-10.656c0-5.891,4.781-10.671,10.656-10.671
		h21.344c5.875,0,10.654,4.781,10.654,10.671C490.641,208.561,485.861,213.327,479.986,213.327z"/>
	<path style="fill:#FFCE54;" d="M74.662,181.328H10.663c-5.891,0-10.656-4.766-10.656-10.656c0-5.891,4.766-10.671,10.656-10.671
		h63.998c5.891,0,10.671,4.781,10.671,10.671C85.333,176.562,80.552,181.328,74.662,181.328z"/>
	<path style="fill:#FFCE54;" d="M53.334,213.327H32.007c-5.891,0-10.672-4.766-10.672-10.656c0-5.891,4.781-10.671,10.672-10.671
		h21.327c5.891,0,10.672,4.781,10.672,10.671S59.225,213.327,53.334,213.327z"/>
</g>
</svg>