<?xml version="1.0" encoding="iso-8859-1"?>
<!-- Uploaded to: SVG Repo, www.svgrepo.com, Generator: SVG Repo Mixer Tools -->
<svg height="800px" width="800px" version="1.1" id="Layer_1" xmlns="http://www.w3.org/2000/svg" xmlns:xlink="http://www.w3.org/1999/xlink" 
	 viewBox="0 0 512 512" xml:space="preserve">
<path style="fill:#D7EBFF;" d="M445.22,66.791c-12.121,0-23.551,3.306-33.412,9.082c-11.842,6.912-21.414,17.374-27.224,29.884
	c-7.056-3.606-14.858-5.576-22.839-5.576c-27.613,0-50.085,22.471-50.085,50.085s22.471,50.085,50.085,50.085h83.553
	c36.773-0.033,66.702-29.984,66.702-66.78C512,96.742,482.049,66.791,445.22,66.791z"/>
<path style="fill:#BDDEFF;" d="M512,133.571c0,36.796-29.928,66.746-66.702,66.78h-33.49V75.873
	c9.861-5.776,21.292-9.082,33.412-9.082C482.049,66.791,512,96.742,512,133.571z"/>
<path style="fill:#D7EBFF;" d="M178.101,0.011c-12.121,0-23.551,3.306-33.412,9.082c-11.842,6.912-21.414,17.374-27.224,29.884
	c-7.056-3.606-14.858-5.576-22.839-5.576c-27.613,0-50.085,22.471-50.085,50.085s22.471,50.085,50.085,50.085h83.553
	c36.773-0.033,66.702-29.984,66.702-66.78C244.881,29.962,214.93,0.011,178.101,0.011z"/>
<path style="fill:#BDDEFF;" d="M244.881,66.791c0,36.796-29.928,66.746-66.702,66.78h-33.49V9.093
	c9.861-5.776,21.292-9.082,33.412-9.082C214.93,0.011,244.881,29.962,244.881,66.791z"/>
<path style="fill:#B8C9D9;" d="M473.914,367.3c-0.556-1.781-1.225-3.562-1.783-5.342c-6.564-19.588-12.91-38.398-14.912-61.437
	H321.877c-1.891,21.815-7.679,39.734-13.801,58.21c-0.444,1.113-0.778,2.115-1.112,3.228c-0.556,1.781-1.225,3.562-1.783,5.342
	c-3.56,10.685-7.122,21.592-9.793,33.39c-2.56,10.351-4.452,21.258-5.342,33.39c-0.445,5.342-0.669,10.907-0.669,16.695v44.52
	c0,9.22,7.475,16.695,16.695,16.695h183.644v-61.215C489.718,416.717,482.039,391.34,473.914,367.3z"/>
<path style="fill:#9EACBA;" d="M472.131,361.957c-6.564-19.588-12.91-38.398-14.912-61.437h-67.671v211.469h100.17v-61.215
	c0-34.058-7.679-59.434-15.803-83.475C473.357,365.519,472.689,363.738,472.131,361.957z"/>
<path style="fill:#FFD15D;" d="M473.914,367.3H305.182c0.556-1.781,1.225-3.562,1.783-5.342c0.333-1.113,0.667-2.115,1.112-3.228
	c6.121-18.476,11.91-36.395,13.801-58.21h135.342c2.002,23.039,8.347,41.849,14.912,61.437
	C472.689,363.738,473.357,365.519,473.914,367.3z"/>
<path style="fill:#F29E1B;" d="M389.548,300.52v66.78h84.366c-0.556-1.781-1.225-3.562-1.783-5.342
	c-6.564-19.588-12.91-38.398-14.912-61.437H389.548z"/>
<path style="fill:#576573;" d="M457.22,300.52H321.877c0.669-5.342,0.892-10.907,0.892-16.695v-33.39
	c0-9.238,7.456-16.695,16.695-16.695h100.17c9.239,0,16.695,7.457,16.695,16.695v33.39
	C456.328,289.612,456.551,295.177,457.22,300.52z"/>
<path style="fill:#485566;" d="M439.633,233.74h-50.085v66.78h67.671c-0.669-5.342-0.892-10.907-0.892-16.695v-33.39
	C456.328,241.197,448.872,233.74,439.633,233.74z"/>
<path style="fill:#B8C9D9;" d="M237.068,336.692c-1.448-7.457-2.782-14.914-4.119-22.371c-0.778-4.452-1.557-9.015-2.337-13.801
	c-2.671-16.027-5.231-33.612-6.567-51.42c-0.444-5.342-0.778-10.462-1.002-15.359H55.205c-1.113,24.152-4.673,45.633-9.238,66.78
	c-2.005,9.906-4.229,19.7-6.567,29.606c-8.459,36.284-17.14,73.903-17.14,120.649v44.52c0,9.238,7.456,16.695,16.695,16.695h166.949
	c9.239,0,16.695-7.457,16.695-16.695v-94.605c0-10.24,4.562-19.7,12.466-26.044C245.114,366.881,240.897,357.129,237.068,336.692z"
	/>
<path style="fill:#9EACBA;" d="M237.068,336.692c-1.448-7.457-2.782-14.914-4.119-22.371c-0.778-4.452-1.557-9.015-2.337-13.801
	c-2.671-16.027-5.231-33.612-6.567-51.42c-0.444-5.342-0.778-10.462-1.002-15.359h-83.919v278.249h66.78
	c9.239,0,16.695-7.457,16.695-16.695v-94.605c0-10.24,4.562-19.7,12.466-26.044C245.114,366.881,240.897,357.129,237.068,336.692z"
	/>
<path style="fill:#FFD15D;" d="M230.613,300.52H45.967c4.563-21.147,8.125-42.628,9.238-66.78h167.84
	c0.223,4.897,0.557,10.017,1.002,15.359C225.382,266.907,227.941,284.493,230.613,300.52z"/>
<path style="fill:#F29E1B;" d="M139.124,233.74v66.78h91.488c-2.671-16.027-5.231-33.612-6.567-51.42
	c-0.444-5.342-0.778-10.462-1.002-15.359L139.124,233.74L139.124,233.74z"/>
<path style="fill:#576573;" d="M223.044,233.74H55.205l0.445-16.695v-33.39c0-9.239,7.456-16.695,16.695-16.695h66.78h66.78
	c9.239,0,16.695,7.456,16.695,16.695v33.39L223.044,233.74z"/>
<path style="fill:#485566;" d="M223.044,233.74l-0.445-16.695v-33.39c0-9.239-7.456-16.695-16.695-16.695h-66.78v66.78H223.044z"/>
<path style="fill:#CFDBE6;" d="M322.769,511.989H189.209v-94.605c0-9.22,7.475-16.695,16.695-16.695h100.17
	c9.22,0,16.695,7.475,16.695,16.695V511.989z"/>
<path style="fill:#9EACBA;" d="M306.074,400.689h-50.085v111.3h66.78v-94.605C322.769,408.164,315.294,400.689,306.074,400.689z"/>
<path style="fill:#576573;" d="M322.769,434.079H189.209v-33.39c0-20.428,9.152-39.428,25.118-52.128
	c11.706-9.429,26.532-14.651,41.662-14.651c17.956,0,34.749,6.978,47.27,19.645c12.531,12.391,19.51,29.178,19.51,47.134V434.079z"
	/>
<path style="fill:#485566;" d="M322.769,434.079v-33.39c0-17.956-6.978-34.743-19.51-47.134
	c-12.521-12.667-29.314-19.645-47.27-19.645v100.17H322.769z"/>
<path style="fill:#576573;" d="M495.283,511.989H16.695C7.475,511.989,0,504.514,0,495.294l0,0c0-9.22,7.475-16.695,16.695-16.695
	h478.588c9.22,0,16.695,7.475,16.695,16.695l0,0C511.978,504.514,504.503,511.989,495.283,511.989z"/>
<path style="fill:#485566;" d="M495.283,478.599H255.989v33.39h239.294c9.22,0,16.695-7.475,16.695-16.695
	C511.978,486.074,504.503,478.599,495.283,478.599z"/>
</svg>