<?xml version="1.0" encoding="iso-8859-1"?>
<!-- Uploaded to: SVG Repo, www.svgrepo.com, Generator: SVG Repo Mixer Tools -->
<svg height="800px" width="800px" version="1.1" id="Layer_1" xmlns="http://www.w3.org/2000/svg" xmlns:xlink="http://www.w3.org/1999/xlink" 
	 viewBox="0 0 498.4 498.4" xml:space="preserve">
<path style="fill:#FCC03A;" d="M462.4,270.4c13.6,0,26.4,4.8,34.4,12.8v-96c0-23.2-18.4-42.4-40.8-42.4h-94.4c7.2-8,11.2-20,11.2-32
	c0-28.8-23.2-51.2-52-51.2s-52,22.4-52,51.2c0,12,4,24,11.2,32h-93.6c-23.2,0-41.6,19.2-41.6,42.4v100c-8-10.4-23.2-16.8-38.4-16.8
	c-28.8,0-51.2,23.2-51.2,52s23.2,52,51.2,52c15.2,0,30.4-6.4,38.4-16.8v100c0,23.2,19.2,40.8,41.6,40.8h98.4
	c-9.6-8-15.2-21.6-15.2-36c0-28.8,23.2-51.2,52-51.2s52,22.4,52,51.2c0,14.4-5.6,28-15.2,36h98.4c23.2,0,40.8-17.6,40.8-40.8v-96
	c-8,8-20.8,12.8-34.4,12.8c-28.8,0-52-23.2-52-52S434.4,270.4,462.4,270.4z"/>
<path style="fill:#EAAA0A;" d="M144.8,352.8V456c0,23.2,19.2,40.8,41.6,40.8h98.4c-9.6-8-15.2-21.6-15.2-36
	c0-28.8,23.2-51.2,52-51.2s52,22.4,52,51.2c0,14.4-5.6,28-15.2,36h98.4c23.2,0,40.8-17.6,40.8-40.8v-96c-8,8-20.8,12.8-34.4,12.8
	c-28.8,0-51.2-23.2-51.2-52s23.2-52,51.2-52c13.6,0,26.4,4.8,34.4,12.8v-96c0-23.2-18.4-42.4-40.8-42.4h-96"/>
<path style="fill:#E8930C;" d="M184.8,496.8h100c-9.6-8-15.2-21.6-15.2-36c0-28.8,23.2-51.2,52-51.2s52,22.4,52,51.2
	c0,14.4-5.6,28-15.2,36h98.4c23.2,0,40.8-17.6,40.8-40.8v-96c-8,8-20.8,12.8-34.4,12.8c-28.8,0-51.2-23.2-51.2-52s23.2-52,51.2-52
	c13.6,0,26.4,4.8,34.4,12.8v-96.8"/>
<g>
	<path style="fill:#DBD8C3;" d="M216.8,120.8c0,3.2-3.2,4.8-8,4.8l0,0c-4.8,0-8-2.4-8-4.8V59.2c0-3.2,3.2-4.8,8-4.8l0,0
		c4.8,0,8,2.4,8,4.8V120.8z"/>
	<path style="fill:#DBD8C3;" d="M176.8,66.4c0,3.2-3.2,4.8-8,4.8l0,0c-4.8,0-8-2.4-8-4.8V4.8c0-3.2,3.2-4.8,8-4.8l0,0
		c4.8,0,8,2.4,8,4.8V66.4z"/>
	<path style="fill:#DBD8C3;" d="M464.8,120.8c0,3.2-3.2,4.8-8,4.8l0,0c-4.8,0-8-2.4-8-4.8V59.2c0-3.2,3.2-4.8,8-4.8l0,0
		c4.8,0,8,2.4,8,4.8V120.8z"/>
	<path style="fill:#DBD8C3;" d="M424.8,66.4c0,3.2-3.2,4.8-8,4.8l0,0c-4.8,0-8-2.4-8-4.8V4.8c0-3.2,3.2-4.8,8-4.8l0,0
		c4.8,0,8,2.4,8,4.8V66.4z"/>
	<path style="fill:#DBD8C3;" d="M121.6,416.8c3.2,0,4.8,3.2,4.8,8l0,0c0,4.8-2.4,8-4.8,8H60c-3.2,0-4.8-3.2-4.8-8l0,0
		c0-4.8,2.4-8,4.8-8H121.6z"/>
	<path style="fill:#DBD8C3;" d="M66.4,448.8c3.2,0,4.8,3.2,4.8,8l0,0c0,4.8-2.4,8-4.8,8H5.6c-3.2,0-4.8-3.2-4.8-8l0,0
		c0-4.8,2.4-8,4.8-8H66.4z"/>
	<path style="fill:#DBD8C3;" d="M121.6,168.8c3.2,0,4.8,3.2,4.8,8l0,0c0,4.8-2.4,8-4.8,8H60c-3.2,0-4.8-3.2-4.8-8l0,0
		c0-4.8,2.4-8,4.8-8H121.6z"/>
	<path style="fill:#DBD8C3;" d="M66.4,208.8c3.2,0,4.8,3.2,4.8,8l0,0c0,4.8-2.4,8-4.8,8H5.6c-3.2,0-4.8-3.2-4.8-8l0,0
		c0-4.8,2.4-8,4.8-8H66.4z"/>
</g>
</svg>