<?xml version="1.0" encoding="iso-8859-1"?>
<!-- Uploaded to: SVG Repo, www.svgrepo.com, Generator: SVG Repo Mixer Tools -->
<svg height="800px" width="800px" version="1.1" id="Layer_1" xmlns="http://www.w3.org/2000/svg" xmlns:xlink="http://www.w3.org/1999/xlink" 
	 viewBox="0 0 512.001 512.001" xml:space="preserve">
<polygon style="fill:#D0E8FF;" points="123.567,149.859 141.22,149.859 141.22,132.207 79.436,132.207 79.436,149.859 
	97.089,149.859 "/>
<g>
	<path style="fill:#5CB0FF;" d="M467.791,344.037V220.469h-97.089h-52.957c-4.874,0-8.826-3.952-8.826-8.826v-17.652H176.525v17.652
		c0,4.874-3.952,8.826-8.826,8.826h-44.131H97.089H63.714l-35.857,61.784l35.857,61.784H467.791z"/>
	<polygon style="fill:#5CB0FF;" points="494.27,202.817 494.27,114.554 379.529,114.554 379.529,202.817 476.617,202.817 	"/>
</g>
<g>
	<path style="fill:#D0E8FF;" d="M326.571,405.821c26.189,0,47.938-19.125,52.16-44.131h-104.32
		C278.633,386.695,300.382,405.821,326.571,405.821z"/>
	<path style="fill:#D0E8FF;" d="M463.378,361.689c-12.166,0-22.066,9.899-22.066,22.066s9.899,22.066,22.066,22.066
		c12.166,0,22.066-9.899,22.066-22.066S475.544,361.689,463.378,361.689z"/>
	<path style="fill:#D0E8FF;" d="M48.544,361.689c-12.166,0-22.066,9.899-22.066,22.066s9.899,22.066,22.066,22.066
		s22.066-9.899,22.066-22.066S60.711,361.689,48.544,361.689z"/>
	<path style="fill:#D0E8FF;" d="M176.525,405.821c26.189,0,47.938-19.125,52.16-44.131H124.365
		C128.587,386.695,150.335,405.821,176.525,405.821z"/>
</g>
<g>
	<path style="fill:#1C71DA;" d="M512,344.037h-26.556V220.469h17.652c4.874,0,8.826-3.952,8.826-8.826V105.728
		c0-4.874-3.952-8.826-8.826-8.826H370.702c-4.874,0-8.826,3.952-8.826,8.826v97.089h-35.305v-17.652
		c0-4.874-3.952-8.826-8.826-8.826H167.699c-4.874,0-8.826,3.952-8.826,8.826v17.652h-26.479v-35.305h17.652
		c4.874,0,8.826-3.952,8.826-8.826v-35.305c0-4.874-3.952-8.826-8.826-8.826H70.61c-4.874,0-8.826,3.952-8.826,8.826v35.305
		c0,4.874,3.952,8.826,8.826,8.826h17.652v35.305H58.633c-3.146,0-6.055,1.677-7.632,4.396l-40.981,70.61
		c-1.59,2.741-1.59,6.12,0,8.861l33.287,57.353H0v17.652h15.55c-4.238,6.317-6.724,13.904-6.724,22.066
		c0,21.902,17.816,39.718,39.718,39.718s39.718-17.816,39.718-39.718c0-8.162-2.486-15.749-6.724-22.066h24.989
		c4.366,34.775,34.058,61.784,69.997,61.784s65.631-27.009,69.997-61.784h10.052c4.366,34.775,34.059,61.784,69.997,61.784
		s65.631-27.009,69.997-61.784h33.816c-4.238,6.317-6.724,13.904-6.724,22.066c0,21.902,17.816,39.718,39.718,39.718
		c21.902,0,39.718-17.816,39.718-39.718c0-8.162-2.486-15.749-6.724-22.066h15.628L512,344.037L512,344.037z M379.529,114.554
		H494.27v88.262h-17.652h-97.089V114.554z M79.436,132.207h61.784v17.652h-17.652H97.089H79.436V132.207z M105.915,167.512h8.826
		v35.305h-8.826V167.512z M63.714,220.469h33.374h26.479h44.131c4.874,0,8.826-3.952,8.826-8.826v-17.652h132.394v17.652
		c0,4.874,3.952,8.826,8.826,8.826h52.957h97.089v123.567H63.714l-35.857-61.784L63.714,220.469z M48.544,405.821
		c-12.166,0-22.066-9.899-22.066-22.066s9.899-22.066,22.066-22.066s22.066,9.899,22.066,22.066S60.711,405.821,48.544,405.821z
		 M176.525,405.821c-26.189,0-47.938-19.125-52.16-44.131h104.32C224.463,386.695,202.714,405.821,176.525,405.821z
		 M326.571,405.821c-26.189,0-47.938-19.125-52.16-44.131h104.32C374.509,386.695,352.761,405.821,326.571,405.821z
		 M463.378,405.821c-12.166,0-22.066-9.899-22.066-22.066s9.899-22.066,22.066-22.066c12.166,0,22.066,9.899,22.066,22.066
		S475.544,405.821,463.378,405.821z"/>
	<path style="fill:#1C71DA;" d="M108.139,99.578c0.487,0.073,1.052,0.125,1.689,0.125c5.676,0,17.14-3.961,29.5-30.823
		c14.507-31.525,40.903-38.925,80.695-22.604l2.874,1.177c53.039,21.755,72.877,29.931,114.345,26.535
		c14.157-1.146,25.513-6.503,37.537-12.179c24.888-11.735,53.108-25.035,120.788-7.619c4.749,1.211,9.533-1.625,10.748-6.344
		c1.215-4.723-1.625-9.533-6.344-10.748c-73.868-19.014-106.501-3.62-132.721,8.749c-10.99,5.185-20.48,9.662-31.435,10.55
		c-37.236,3.004-54.625-4.111-106.221-25.272l-2.874-1.181c-61.822-25.354-90.374,3.168-103.433,31.56
		c-7.576,16.467-13.097,19.95-14.265,20.531c-4.111,0.198-7.654,3.271-8.292,7.499C100.002,94.355,103.32,98.85,108.139,99.578z"/>
</g>
<g>
	<path style="fill:#FF5D5D;" d="M380.664,491.876c-2.259,0-4.518-0.862-6.241-2.585c-3.447-3.448-3.447-9.035,0-12.483
		l31.205-31.205c3.448-3.446,9.035-3.446,12.483,0c3.447,3.448,3.447,9.035,0,12.483l-31.205,31.205
		C385.182,491.015,382.924,491.876,380.664,491.876z"/>
	<path style="fill:#FF5D5D;" d="M411.87,491.876c-2.259,0-4.518-0.862-6.241-2.585l-31.205-31.205
		c-3.447-3.448-3.447-9.035,0-12.483c3.448-3.446,9.035-3.446,12.483,0l31.205,31.205c3.447,3.448,3.447,9.035,0,12.483
		C416.387,491.015,414.129,491.876,411.87,491.876z"/>
</g>
<path style="fill:#00D40B;" d="M235.031,147.653c-17.034,0-30.892-13.858-30.892-30.892s13.858-30.892,30.892-30.892
	s30.892,13.858,30.892,30.892S252.065,147.653,235.031,147.653z M235.031,103.522c-7.301,0-13.239,5.939-13.239,13.239
	c0,7.301,5.939,13.239,13.239,13.239s13.239-5.939,13.239-13.239C248.27,109.46,242.332,103.522,235.031,103.522z"/>
<path style="fill:#FFC504;" d="M79.058,312.323c-2.341,0-4.585-0.93-6.241-2.585l-24.965-24.965c-1.655-1.656-2.585-3.9-2.585-6.241
	s0.93-4.585,2.586-6.241l24.965-24.964c3.448-3.446,9.036-3.443,12.482,0l24.964,24.964c3.447,3.448,3.447,9.035,0,12.482
	l-24.964,24.965C83.643,311.393,81.399,312.323,79.058,312.323z M66.575,278.532l12.483,12.483l12.482-12.483L79.058,266.05
	L66.575,278.532z"/>
</svg>