<?xml version="1.0" encoding="utf-8"?>
<!-- Uploaded to: SVG Repo, www.svgrepo.com, Generator: SVG Repo Mixer Tools -->
<svg version="1.1" id="Uploaded to svgrepo.com" xmlns="http://www.w3.org/2000/svg" xmlns:xlink="http://www.w3.org/1999/xlink" 
	 width="800px" height="800px" viewBox="0 0 32 32" xml:space="preserve">
<style type="text/css">
	.pictogram_een{fill:#F4D6B0;}
	.pictogram_drie{fill:#F27261;}
	.pictogram_vier{fill:#E54D2E;}
	.pictogram_vijf{fill:#01A59C;}
	.pictogram_zes{fill:#0C6667;}
	.st0{fill:#F8AD89;}
	.st1{fill:none;}
	.st2{clip-path:url(#SVGID_2_);fill:#01A59C;}
	.st3{clip-path:url(#SVGID_2_);fill:none;}
	.st4{clip-path:url(#SVGID_2_);fill:#0C6667;}
	.st5{fill:#0C6667;}
</style>
<g>
	<path class="pictogram_vijf" d="M16,0C7.163,0,0,7.163,0,16s7.163,16,16,16s16-7.163,16-16S24.837,0,16,0z"/>
	<path class="pictogram_drie" d="M16,3C8.82,3,3,8.82,3,16c0,1.709,0.339,3.337,0.938,4.831l10.643-4.263
		c-0.053-0.126-0.088-0.214-0.095-0.248C14.417,16.007,14.5,8.454,14.5,8.1c0-0.017,0.005-0.033,0.005-0.05
		C14.532,7.245,15.189,6.6,16,6.6s1.468,0.645,1.495,1.45C17.495,8.067,17.5,8.083,17.5,8.1v7.573l1.696,3.702
		c0.314,0.684,0.066,1.477-0.546,1.876c-0.151,0.098-0.309,0.157-0.468,0.197l2.649,6.614C25.616,26.143,29,21.471,29,16
		C29,8.82,23.18,3,16,3z"/>
	<path class="pictogram_vier" d="M18.182,21.448c-0.692,0.173-1.413-0.168-1.712-0.823c-0.105-0.229-1.505-3.154-1.888-4.057
		L3.938,20.831C5.857,25.616,10.529,29,16,29c1.709,0,3.337-0.339,4.831-0.938L18.182,21.448z"/>
	<path class="st1" d="M3.077,15.509C3.364,8.593,9.064,3.05,16.05,3.05c3.581,0,6.828,1.456,9.182,3.806
		c-2.354-2.358-5.607-3.819-9.195-3.819c-6.986,0-12.686,5.543-12.973,12.459c-0.008,0.181-0.027,0.358-0.027,0.541
		c0,3.587,1.461,6.84,3.819,9.194c-2.35-2.353-3.805-5.6-3.805-9.181C3.05,15.868,3.07,15.69,3.077,15.509z"/>
	<path class="pictogram_een" d="M19.196,19.375L17.5,15.673V8.1c0-0.017-0.005-0.033-0.005-0.05C17.468,7.245,16.811,6.6,16,6.6
		s-1.468,0.645-1.495,1.45C14.505,8.067,14.5,8.083,14.5,8.1c0,0.354-0.083,7.907-0.014,8.22c0.062,0.28,1.864,4.044,1.984,4.305
		c0.369,0.805,1.376,1.151,2.181,0.626C19.262,20.852,19.51,20.059,19.196,19.375z"/>
	<path class="pictogram_zes" d="M14.505,8.05C14.505,8.033,14.5,8.017,14.5,8V6c0-0.829,0.672-1.5,1.5-1.5s1.5,0.671,1.5,1.5v2
		c0,0.017-0.005,0.033-0.005,0.05C17.468,7.245,16.811,6.6,16,6.6S14.532,7.245,14.505,8.05z M17.5,26v-2c0-0.829-0.672-1.5-1.5-1.5
		s-1.5,0.671-1.5,1.5v2c0,0.829,0.672,1.5,1.5,1.5S17.5,26.829,17.5,26z M27.5,16c0-0.829-0.672-1.5-1.5-1.5h-2
		c-0.828,0-1.5,0.671-1.5,1.5s0.672,1.5,1.5,1.5h2C26.828,17.5,27.5,16.829,27.5,16z M9.5,16c0-0.829-0.672-1.5-1.5-1.5H6
		c-0.828,0-1.5,0.671-1.5,1.5s0.672,1.5,1.5,1.5h2C8.828,17.5,9.5,16.829,9.5,16z"/>
</g>
</svg>